<svg id="Ebene_1" data-name="Ebene 1" xmlns="http://www.w3.org/2000/svg" viewBox="0 0 30 30"><title>dizzy</title><path d="M26.7,2.2C19.6-.1,10.2,1,5.2,4.7c-2,1.5-3,3.4-2.8,5.3a5.8,5.8,0,0,0,2.9,4,31.5,31.5,0,0,0,6,2.6l2.5.4c2,.2,10.3.2,11.6-2.6a2.7,2.7,0,0,0-.2-2.9C23.6,9.2,19,8.8,15.1,9.1a11.1,11.1,0,0,0-7.3,3.3c-1.6-.8-2.6-1.8-2.7-2.8s1-2.2,1.7-2.7c4.3-3.2,12.8-4.1,19-2.1a1.3,1.3,0,0,0,1.7-.9A1.3,1.3,0,0,0,26.7,2.2ZM15.3,11.8c4.4-.3,7.2.5,7.7,1.2v.2c-.9.7-5.9,1.4-8.9,1.1a19.8,19.8,0,0,1-3.5-.8A9.3,9.3,0,0,1,15.3,11.8Z"/><path d="M16.6,26.3H15.3a4,4,0,0,1-3.3-3,19.8,19.8,0,0,1-2.9-1.4,6.3,6.3,0,0,0,.3,1.9,6.7,6.7,0,0,0,5.5,5.2h1.7a1.2,1.2,0,0,0,1.3-1.4A1.3,1.3,0,0,0,16.6,26.3Z"/><path d="M21.3,17.5l-.8-.4-4.6.3H12.8a6.7,6.7,0,0,0-2.1,1.3c-.2.1-.3.3-.5.5a5.1,5.1,0,0,1-1.5-3.2v-.4L6.3,14.4a7.8,7.8,0,0,0-.2,1.4,7.6,7.6,0,0,0,3.1,6h0a20.8,20.8,0,0,0,3.9,1.8,5.8,5.8,0,0,0,1.4.3c5.4.8,8-1.6,8.4-3.4A2.9,2.9,0,0,0,21.3,17.5Zm-6.4,3.8a8.4,8.4,0,0,1-2.4-.7,7.7,7.7,0,0,1,6.1-1.3,2.4,2.4,0,0,1,1.6.8C20,20.5,18.5,21.8,14.9,21.3Z"/></svg>