<svg id="Ebene_1" data-name="Ebene 1" xmlns="http://www.w3.org/2000/svg" viewBox="0 0 30 30"><title>food</title><circle cx="15" cy="15" r="7.5" fill="#fff"/><path d="M15,22.9A7.9,7.9,0,1,1,22.9,15,7.9,7.9,0,0,1,15,22.9Zm0-15A7.1,7.1,0,1,0,22.1,15,7.1,7.1,0,0,0,15,7.9Z"/><path d="M19.7,12.8a2.1,2.1,0,0,0-2.8-.7,2,2,0,0,0-.7,2.8v.2a1.9,1.9,0,0,0-1,.3,2,2,0,0,0,2.1,3.5,1.2,1.2,0,0,0,.6-.6,1.7,1.7,0,0,0,1.4,0,2.1,2.1,0,0,0,1.2-2.6,2,2,0,0,0-.8-1A1.9,1.9,0,0,0,19.7,12.8Z" fill="#fff"/><path d="M16.4,19.6a2.5,2.5,0,0,1-2.2-1.2,2.7,2.7,0,0,1,.9-3.4l.6-.2a2.5,2.5,0,0,1,1-3,2.6,2.6,0,0,1,1.9-.3,2.9,2.9,0,0,1,1.5,1.2h0a2.4,2.4,0,0,1,.2,1.9,2.4,2.4,0,0,1,.6.9,2.5,2.5,0,0,1-.1,1.9,2.4,2.4,0,0,1-1.3,1.3,2.9,2.9,0,0,1-1.3.1l-.6.5A2.7,2.7,0,0,1,16.4,19.6ZM18,12.2l-.9.2a1.7,1.7,0,0,0-.6,2.3.1.1,0,0,0,.1.1l.4.6h-.7l-.8.2a1.7,1.7,0,0,0-.6,2.3,1.6,1.6,0,0,0,1,.8,1.9,1.9,0,0,0,1.3-.2,1.2,1.2,0,0,0,.5-.5l.2-.2h.2a2,2,0,0,0,1.1,0,2.2,2.2,0,0,0,1-.9,1.9,1.9,0,0,0,0-1.3,1.6,1.6,0,0,0-.6-.8l-.2-.2v-.2a1.8,1.8,0,0,0-.1-1.6h0a2,2,0,0,0-1-.8Z"/><path d="M6.1,7.6H5.3v3.4a.3.3,0,0,1-.3.3c-.2,0-.4-.1-.4-.3V7.5H3.9v3.4c0,.2-.2.3-.4.3a.3.3,0,0,1-.3-.3V7.5H2.4L2,10.9a2.4,2.4,0,0,0,1.3,2.4c.1,0,.2.1.1.2l-.5,7.4a1.5,1.5,0,0,0,1.2,1.6A1.3,1.3,0,0,0,5.6,21l-.5-7.5c0-.1,0-.2.1-.2a2.4,2.4,0,0,0,1.3-2.4Z"/><path d="M27.1,13.6a4.4,4.4,0,0,0,.9-2.7c0-1.9-1-3.4-2.3-3.4S23.5,9,23.5,10.9a4.4,4.4,0,0,0,.9,2.7,1.2,1.2,0,0,1,.4,1.1l-.4,6.2a1.4,1.4,0,0,0,1.2,1.6A1.3,1.3,0,0,0,27.1,21l-.5-6.3A1.6,1.6,0,0,1,27.1,13.6Z"/><path d="M10.3,13.1c2.1-1.1,1-3.2,3.9-3.8,6.9-1.2,5.1,5.2.5,7.6S6.7,15,10.3,13.1Z" fill="#fff"/><path d="M12.4,17.8a4.1,4.1,0,0,1-3.6-1.9c-.5-.9-.4-2.3,1.3-3.2a2.7,2.7,0,0,0,1.4-1.6A3.1,3.1,0,0,1,14.2,9c3.5-.7,4.5.7,4.8,1.6s-1.2,5.1-4.1,6.6A5.7,5.7,0,0,1,12.4,17.8Zm3.4-8.2H14.3a2.3,2.3,0,0,0-2.1,1.7,3.6,3.6,0,0,1-1.7,2h0c-1.1.6-1.5,1.3-1,2.2a3.8,3.8,0,0,0,5,.9c2.8-1.4,4.3-4.2,3.8-5.7S17.2,9.6,15.8,9.6Z"/><circle cx="15.5" cy="12.5" r="1.5" fill="#fff"/><path d="M15.5,14.2a1.8,1.8,0,0,1-1.8-1.7,1.8,1.8,0,0,1,3.6,0A1.8,1.8,0,0,1,15.5,14.2Zm0-2.9a1.2,1.2,0,0,0-1.2,1.2,1.2,1.2,0,0,0,2.4,0A1.2,1.2,0,0,0,15.5,11.3Z"/><circle cx="13.9" cy="18.1" r="2.7" fill="#fff"/><path d="M13.9,21.2A3.1,3.1,0,1,1,17,18.1,3.1,3.1,0,0,1,13.9,21.2Zm0-5.4a2.3,2.3,0,0,0,0,4.6,2.3,2.3,0,1,0,0-4.6Z"/><path d="M14.3,19.9h-.2l-2-1.5c-.1-.1-.2-.3-.1-.4a.3.3,0,0,1,.4,0l2,1.4a.2.2,0,0,1,.1.4Z"/><path d="M14.9,19.2h-.2l-2-1.5c-.1,0-.1-.2,0-.3s.2-.2.3-.1l2.1,1.5a.3.3,0,0,1,0,.4Z"/><path d="M15.5,18.2h-.2l-2-1.5c-.1-.1-.1-.2,0-.4h.3l2.1,1.5c.1.1.1.2,0,.4Z"/></svg>