<svg id="Ebene_1" data-name="Ebene 1" xmlns="http://www.w3.org/2000/svg" viewBox="0 0 30 30"><title>ok2</title><path d="M1.8,14.3h8.9c.9,0,3.8-4,3.8-4A15.2,15.2,0,0,1,17.9,7l1.4-1.2a3.4,3.4,0,0,0,.5-1.7c0-.8.1-.8.4-.8s1.1,1.4,1.1,2.4a4.4,4.4,0,0,1-1.1,2.4l-.8,1.4a2.4,2.4,0,0,0,.1,3c.4.5,1.5.8,3,.8h4.1a1.2,1.2,0,0,1,1.2,1.2,1.3,1.3,0,0,1-1.2,1.2H22a.6.6,0,0,0-.1,1.1h3.7c.6,0,1,.7,1,1.3a1.4,1.4,0,0,1-1,1.1H21.8a.5.5,0,0,0-.5.5c-.1.3.2.5.4.6h3.2c.4,0,.8.5.8,1.2a1.2,1.2,0,0,1-.8,1.2H21.1a.6.6,0,0,0-.5.6.5.5,0,0,0,.5.5h3.2a1,1,0,0,1,.8,1.2,1,1,0,0,1-.8.9H22.2c-3.2.2-7.9.4-8.9-.9S2.8,23.5,1.8,23.5v1.1c.8,0,9.7,0,10.7,1.2s3.3,1.4,5.8,1.4h6a2.1,2.1,0,0,0,1.9-2.1,2.4,2.4,0,0,0-.5-1.4,2.3,2.3,0,0,0,1.1-2,3.3,3.3,0,0,0-.4-1.4A2.6,2.6,0,0,0,27.6,18a2.3,2.3,0,0,0-.4-1.4,2.3,2.3,0,0,0,1.6-2.8,2.1,2.1,0,0,0-2.2-1.6H22.5a3.9,3.9,0,0,1-2.2-.4c-.2-.2-.6-.7,0-1.8l.8-1.3a6.7,6.7,0,0,0,1.3-3c0-2.9-1.4-3.4-2.2-3.5s-1.4,1.2-1.5,1.9a1,1,0,0,1-.2.9L17.3,6.1a17.1,17.1,0,0,0-3.6,3.5,21.1,21.1,0,0,1-3.1,3.6H1.8"/></svg>