<svg id="Ebene_1" data-name="Ebene 1" xmlns="http://www.w3.org/2000/svg" viewBox="0 0 226.77 226.77"><defs><style>.cls-1,.cls-3,.cls-5{fill:none;}.cls-2{fill:#1d1d1b;}.cls-3,.cls-5{stroke:#1d1d1b;stroke-miterlimit:10;}.cls-3{stroke-width:2px;}.cls-4{fill:#009fe3;}.cls-5{stroke-width:1.88px;}</style></defs><title>Zeichenfläche 81</title><g id="_Gruppe_" data-name="&lt;Gruppe&gt;"><path class="cls-1" d="M94.93,46.06c-.08.88-2.09,21.58-18.75,35h0a218.42,218.42,0,0,1,.52-25.16C78.8,26.21,110.63,29,110.63,29c33.93,0,34,23.34,34,23.34l0,24.69h-.25S110.25,65.75,94.93,46.06Z"/><path class="cls-2" d="M110.63,129.7a32.22,32.22,0,0,1-17-4.38c-5.55-3.39-9.89-8.76-12.91-16A73.31,73.31,0,0,1,75.9,89.77c-.32-2.85-.56-5.76-.69-8.66a216.07,216.07,0,0,1,.52-25.26c.62-8.67,3.78-15.49,9.38-20.26,10.28-8.75,25-7.55,25.6-7.5h0c34.4,0,34.82,24,34.82,24.29l0,26.47a79.54,79.54,0,0,1-.66,10.86,69.26,69.26,0,0,1-5.09,19.59c-3.14,7.21-7.5,12.6-13,16A29.79,29.79,0,0,1,110.63,129.7Zm-2.08-99.77c-4.37,0-14.71.74-22.21,7.12-5.19,4.43-8.12,10.8-8.7,18.93a212.4,212.4,0,0,0-.52,25c.13,2.86.36,5.72.68,8.52a71.43,71.43,0,0,0,4.64,19.06c2.86,6.84,7,11.92,12.14,15.09a30.42,30.42,0,0,0,16,4.1,28,28,0,0,0,15.17-4.1c5.12-3.2,9.23-8.3,12.22-15.16a67.31,67.31,0,0,0,4.94-19,74.36,74.36,0,0,0,.64-10.61l0-26.49c0-.92-.47-22.38-33-22.38C110.58,30,109.82,29.93,108.55,29.93Z"/><path class="cls-2" d="M188.72,196.34H37.41l0-1c.17-6.8.32-11.14.32-11.14-.33-20.31,15.29-24.51,15.45-24.55l36.1-12.13,3.82-1.75V124.5H95V147l-5,2.3L53.75,161.5c-.65.17-14.39,3.94-14.08,22.74,0,0-.14,4-.3,10.19H186.78c-.05-3.54-.06-9.69,0-11.52.16-9.92-5-17.57-15.42-22.74l-.51-.26c-.59-.3-6.25-2.14-37.39-11l-8.31-2.37,0-.7c-.77-21.21.17-21.78.73-22.12l1,1.64a.73.73,0,0,0,.28-.29c-.47,1.14-.42,10.94-.11,20l7,2c36,10.3,37.31,11,37.74,11.18l.48.25c11.11,5.52,16.66,13.76,16.49,24.49,0,1.83,0,8.94,0,12.42Z"/><path class="cls-2" d="M79.17,111.48c-2.46,0-5.47-1.85-7.07-4.41-.59-1-2.08-3.87-5.4-12.56-1-2.66-.92-4.63.29-5.86,2.34-2.39,7.91-.72,10.19.1l.3.11-.61,1.82-.34-.13c-3.1-1.12-7-1.77-8.18-.56-.79.8-.36,2.53.14,3.84,3.39,8.86,4.79,11.5,5.24,12.23,1.44,2.31,4.14,3.68,5.73,3.49a1.3,1.3,0,0,0,1.2-.9l1.8.64a3.18,3.18,0,0,1-2.8,2.16A3.91,3.91,0,0,1,79.17,111.48Z"/><path class="cls-2" d="M141.41,111.48a3.87,3.87,0,0,1-.48,0,3.19,3.19,0,0,1-2.82-2.16l1.8-.64a1.31,1.31,0,0,0,1.22.9c1.61.18,4.28-1.19,5.72-3.5.45-.73,1.86-3.39,5.23-12.22.5-1.31.93-3,.14-3.84-1.17-1.2-4.86-.61-8,.51a5.13,5.13,0,0,0-.49.16l-.7-1.78s.22-.09.6-.2c2.19-.78,7.64-2.39,10,0,1.2,1.23,1.29,3.2.28,5.86-3.31,8.66-4.8,11.58-5.39,12.55C146.87,109.63,143.86,111.48,141.41,111.48Z"/><path class="cls-2" d="M76.78,81.81l-1.2-1.49C92,67.12,93.9,46.84,94,46l1.9.08C95.8,47,93.79,68.11,76.78,81.81Z"/><path class="cls-2" d="M144,78c-1.4-.47-34.52-11.64-49.84-31.33l1.51-1.17c15,19.23,48.6,30.57,48.93,30.68Z"/></g><line class="cls-3" x1="101.63" y1="108.91" x2="119.72" y2="108.91"/><line class="cls-3" x1="106.76" y1="112.51" x2="113.11" y2="112.51"/><path class="cls-3" d="M132.5,147A28.73,28.73,0,0,1,90,149.06"/><circle class="cls-2" cx="96.12" cy="79.51" r="2.83"/><circle class="cls-2" cx="122.79" cy="79.51" r="2.83"/><path class="cls-4" d="M112.42,101.08a1.7,1.7,0,1,1-3.4,0c0-.94,1.59-3,1.7-3A6.53,6.53,0,0,1,112.42,101.08Z"/><path class="cls-4" d="M117.17,104.58a1.7,1.7,0,1,1-3.4,0c0-.94,1.59-3,1.7-3A6.53,6.53,0,0,1,117.17,104.58Z"/><polyline class="cls-5" points="109.12 84.12 106.17 96.23 113.79 96.23"/></svg>