<svg id="Ebene_1" data-name="Ebene 1" xmlns="http://www.w3.org/2000/svg" viewBox="0 0 75 75"><title>schuttelfrostk</title><path d="M36.8,7.8S24.1,6.6,23.3,18.4s-.6,29,13.5,29S50.3,27.6,50.3,27.6V17S50.3,7.8,36.8,7.8Z" fill="none" stroke="#000" stroke-linecap="round" stroke-linejoin="round"/><path d="M9.9,75.1c-1.2-2-1.7-13.6-1.7-13.6,0-5.2,5.7-7.6,5.7-7.6l12-5.3" fill="none" stroke="#000" stroke-linejoin="round"/><path d="M51.8,49.3l8.3,4.2s5.7,2.3,5.7,7.6c0,0,.1,10.4-.6,13.7" fill="none" stroke="#000" stroke-linejoin="round"/><path d="M23.5,31.9s-5.3-2.1-3.8,1.7a36.2,36.2,0,0,0,2.1,5c.9,1.4,3,2.1,3.4.9" fill="none" stroke="#000" stroke-linejoin="round"/><path d="M49.9,31.9s5.2-2.1,3.8,1.7-2,4.8-2.1,5-3,2.1-3.5.9" fill="none" stroke="#000" stroke-linejoin="round"/><path d="M50.2,26.8S36.6,22.3,30.6,14.5c0,0-.7,8.5-7.5,13.9" fill="none" stroke="#000" stroke-linecap="round" stroke-linejoin="round"/><path d="M36.3,29.6l-1.1,5.5h3" fill="none" stroke="#000" stroke-linecap="round" stroke-linejoin="round"/><line x1="35.7" y1="40.9" x2="37.7" y2="40.9" fill="none" stroke="#000" stroke-linecap="round" stroke-miterlimit="10"/><line x1="33.4" y1="39.5" x2="40.4" y2="39.5" fill="none" stroke="#000" stroke-linecap="round" stroke-miterlimit="10"/><path d="M46.4,43c-7.6,5.3-19.1.4-19.1.4s-2.6,8.8-1.1,9.9,19.7,5.3,21.7-2.1C49,47.2,46.4,43,46.4,43Z" fill="#fff" stroke="#000" stroke-linejoin="round"/><path d="M25.8,52.9c-2.2,6.4,1.1,17.7,1.6,21.9" fill="none" stroke="#000" stroke-linejoin="round"/><path d="M34.8,55.5c1.1,6.6,2.5,6.8,3,12.4" fill="none" stroke="#000" stroke-linejoin="round"/><path d="M46.6,43.2s14,6.3.4,31.7" fill="none" stroke="#000" stroke-linejoin="round"/><path d="M43.4,55.1c-1.2,2.2-7.4,15.2-7,19.6" fill="none" stroke="#000" stroke-linejoin="round"/><polyline points="3 60.5 6.1 59.5 5.3 56.4 8.5 55.9 8.3 52.7 11.5 52.9 12 49.7 15.1 50.7 16.5 47.8 19.1 49.8" fill="none" stroke="#29abe2" stroke-linejoin="round"/><polyline points="2.3 54.3 5.4 54 4.8 51 7.9 51.2 7.8 48.1 10.7 48.8 11.2 45.8 13.9 47 15.1 44.2 17.4 46.1" fill="none" stroke="#29abe2" stroke-linejoin="round"/><polyline points="54 45.2 55.3 47.9 57.6 46.2 58.3 49 60.9 47.8 61.1 50.7 63.9 50 63.4 52.9 66.3 52.9 65.2 55.6" fill="none" stroke="#29abe2" stroke-linejoin="round"/><polyline points="60 43.8 60.9 46.5 63.5 45.1 63.9 48 66.6 47.1 66.4 50 69.3 49.6 68.5 52.4 71.4 52.7 70 55.3" fill="none" stroke="#29abe2" stroke-linejoin="round"/><path d="M27.8,28.3a7.6,7.6,0,0,0,5.8,0" fill="none" stroke="#000" stroke-linecap="round" stroke-miterlimit="10"/><path d="M39.3,28.3a7.5,7.5,0,0,0,5.8,0" fill="none" stroke="#000" stroke-linecap="round" stroke-miterlimit="10"/></svg>