<svg id="Ebene_1" data-name="Ebene 1" xmlns="http://www.w3.org/2000/svg" viewBox="0 0 30 30"><title>schweif</title><path d="M3.9,23.6V23a.9.9,0,0,0,.1-.5,4.4,4.4,0,0,0,.2-1l.6-2a13.4,13.4,0,0,1,.7-1.8,9.8,9.8,0,0,1,.8-1.8,29.3,29.3,0,0,1,4.3-6.5L12,8l.6-.7.8-.6,1.4-1.3,1.5-1.1.8-.6.8-.5,1.6-1L22.9.5,19.8,2.6,18.3,3.7l-.7.6-.7.6L15.5,6.2,14.3,7.6l-.7.7-.5.7L12,10.4a33.6,33.6,0,0,0-3.4,6.5c-.2.5-.3,1.1-.5,1.7a10.5,10.5,0,0,0-.4,1.7,11.3,11.3,0,0,0-.3,1.8,1.9,1.9,0,0,0-.1.8v.8Z"/><path d="M13.2,29.5a1.3,1.3,0,0,1-.1-.6.9.9,0,0,1-.1-.5c-.1-.3-.1-.7-.2-1s-.1-1.4-.1-2v-2c.1-.7.1-1.3.2-2a28.4,28.4,0,0,1,2-7.6,13,13,0,0,1,.8-1.7,3.6,3.6,0,0,1,.4-.9l.5-.8.9-1.7,1.1-1.6a5.6,5.6,0,0,0,.5-.8l.6-.7,1.2-1.5,2.6-2.7-2.3,3L20.2,6l-.5.7-.4.9-.9,1.6c-.2.6-.5,1.2-.7,1.7l-.4.9-.3.8a12.1,12.1,0,0,1-.5,1.8,25.5,25.5,0,0,0-1,7.2,10.8,10.8,0,0,0,0,1.8,8.8,8.8,0,0,0,.2,1.7,11.3,11.3,0,0,0,.3,1.8,2.4,2.4,0,0,0,.2.8c0,.1.1.3.1.4v.3Z"/><path d="M23.7,29.2l-.3-.4c-.1-.2-.1-.3-.2-.4l-.4-.9-.6-1.6a10.9,10.9,0,0,1-.5-1.7,10.5,10.5,0,0,1-.4-1.7,32,32,0,0,1-.4-6.9,11.1,11.1,0,0,0,.2-1.7c.1-.3.1-.6.2-.9v-.8a10.5,10.5,0,0,1,.4-1.7l.5-1.6c.1-.2.1-.5.2-.8l.3-.8.6-1.5,1.5-3c-.4,1-.8,2.1-1.1,3.1l-.4,1.6-.2.8c-.1.3-.1.5-.2.8l-.3,1.6c-.1.6-.1,1.1-.2,1.7v.8c-.1.2,0,.5,0,.8a8.6,8.6,0,0,0-.1,1.6,26,26,0,0,0,1.1,6.3,5.3,5.3,0,0,0,.5,1.5l.6,1.5a9.1,9.1,0,0,1,.7,1.4,2.1,2.1,0,0,1,.4.6l.2.3c.1.1.2.2.2.3Z"/></svg>