<svg id="Ebene_1" data-name="Ebene 1" xmlns="http://www.w3.org/2000/svg" viewBox="0 0 30 30"><title>wellen</title><path d="M29.5,22.1V24c-1.4,0-2.1-1.2-2.6-2.1s-.7-1.1-1-1.1-.6.4-1.1,1.1A2.9,2.9,0,0,1,22.3,24a2.9,2.9,0,0,1-2.6-2.1c-.5-.7-.7-1.1-1.1-1.1s-.6.4-1,1.1S16.4,24,15,24s-2.1-1.2-2.6-2.1-.7-1.1-1-1.1-.6.4-1,1.1S9.2,24,7.8,24s-2.1-1.2-2.6-2.1-.7-1.1-1.1-1.1-.6.4-1,1.1S1.9,24,.5,24V22.1c.3,0,.6-.3,1-1.1a3.1,3.1,0,0,1,2.6-2c1.5,0,2.1,1.1,2.6,2s.7,1.1,1.1,1.1.6-.3,1-1.1a3.1,3.1,0,0,1,2.6-2A3.1,3.1,0,0,1,14,21c.4.8.7,1.1,1,1.1s.6-.3,1-1.1a3.1,3.1,0,0,1,2.6-2c1.5,0,2.1,1.1,2.6,2s.7,1.1,1.1,1.1.5-.3,1-1.1,1.1-2,2.6-2a3.1,3.1,0,0,1,2.6,2C28.9,21.8,29.2,22.1,29.5,22.1Z" fill="#006837"/><path d="M29.5,15.7v1.8c-1.4,0-2.1-1.2-2.6-2s-.7-1.2-1-1.2-.6.4-1.1,1.2a3,3,0,0,1-2.5,2,3,3,0,0,1-2.6-2c-.5-.8-.7-1.2-1.1-1.2s-.6.4-1,1.2-1.2,2-2.6,2-2.1-1.2-2.6-2-.7-1.2-1-1.2-.6.4-1,1.2-1.2,2-2.6,2-2.1-1.2-2.6-2-.7-1.2-1.1-1.2-.6.4-1,1.2-1.2,2-2.6,2V15.7c.3,0,.6-.4,1-1.2s1.2-2,2.6-2,2.1,1.2,2.6,2,.7,1.2,1.1,1.2.6-.4,1-1.2,1.2-2,2.6-2,2.1,1.2,2.6,2,.7,1.2,1,1.2.6-.4,1-1.2,1.2-2,2.6-2,2.1,1.2,2.6,2,.7,1.2,1.1,1.2.5-.4,1-1.2,1.1-2,2.6-2,2.1,1.2,2.6,2S29.2,15.7,29.5,15.7Z" fill="#006837"/><path d="M29.5,9.2V11a3.1,3.1,0,0,1-2.6-2c-.4-.8-.7-1.1-1-1.1s-.6.3-1.1,1.1a2.8,2.8,0,0,1-2.5,2,2.8,2.8,0,0,1-2.6-2c-.5-.8-.7-1.1-1.1-1.1s-.6.3-1,1.1A3.1,3.1,0,0,1,15,11a3.1,3.1,0,0,1-2.6-2c-.4-.8-.7-1.1-1-1.1s-.6.3-1,1.1a3.1,3.1,0,0,1-2.6,2C6.3,11,5.7,9.9,5.2,9S4.5,7.9,4.1,7.9s-.6.3-1,1.1A3.1,3.1,0,0,1,.5,11V9.2c.3,0,.6-.4,1-1.1S2.7,6,4.1,6,6.2,7.2,6.7,8.1s.7,1.1,1.1,1.1.6-.4,1-1.1S10,6,11.4,6,13.5,7.2,14,8.1s.7,1.1,1,1.1.6-.4,1-1.1S17.2,6,18.6,6s2.1,1.2,2.6,2.1.7,1.1,1.1,1.1.5-.4,1-1.1S24.4,6,25.9,6,28,7.2,28.5,8.1,29.2,9.2,29.5,9.2Z" fill="#006837"/></svg>