<svg id="Ebene_1" data-name="Ebene 1" xmlns="http://www.w3.org/2000/svg" viewBox="0 0 30 30"><title>allemedis</title><polygon points="11 23.3 1.6 23.3 1.6 12 3.5 10.2 9.1 10.2 11 12 11 23.3" fill="#fff"/><rect x="3.1" y="7.2" width="6.4" height="2.99" fill="#fff"/><path d="M11.3,11.8,9.8,10.3a.1.1,0,0,0,.1-.1v-3a.4.4,0,0,0-.4-.4H3.1c-.2,0-.3.2-.3.4v3h0L1.4,11.8c-.1,0-.1.1-.1.2V23.3a.3.3,0,0,0,.3.3H11c.2,0,.4-.1.4-.3V11.8ZM3.5,7.5H9.1V9.8H3.5Zm.2,3H9l1.6,1.7V15H2V12.2Zm6.9,5.3v3.3H2V15.8ZM2,22.9v-3h8.6v3Z"/><rect x="14.3" y="8.3" width="5" height="4.46" transform="translate(6.3 27.3) rotate(-90)" fill="#fff" stroke="#000" stroke-linejoin="round" stroke-width="0.53"/><circle cx="15.9" cy="9.3" r="0.6" fill="#fff" stroke="#000" stroke-miterlimit="10" stroke-width="0.28"/><circle cx="15.9" cy="10.9" r="0.6" fill="#fff" stroke="#000" stroke-miterlimit="10" stroke-width="0.28"/><circle cx="17.6" cy="9.3" r="0.6" fill="#fff" stroke="#000" stroke-miterlimit="10" stroke-width="0.28"/><circle cx="17.6" cy="10.9" r="0.6" fill="#fff" stroke="#000" stroke-miterlimit="10" stroke-width="0.28"/><circle cx="15.9" cy="12.6" r="0.6" fill="#fff" stroke="#000" stroke-miterlimit="10" stroke-width="0.28"/><circle cx="17.6" cy="12.6" r="0.6" fill="#fff" stroke="#000" stroke-miterlimit="10" stroke-width="0.28"/><rect x="12.6" y="14.1" width="8.4" height="5.85" transform="translate(-0.3 33.8) rotate(-90)" fill="#fff"/><polygon points="7.4 17.3 6.7 17.3 6.7 16.5 5.9 16.5 5.9 17.3 5.2 17.3 5.2 18 5.9 18 5.9 18.8 6.7 18.8 6.7 18 7.4 18 7.4 17.3"/><polygon points="17.5 16.8 17 16.8 17 16.3 16.5 16.3 16.5 16.8 16.1 16.8 16.1 17.3 16.5 17.3 16.5 17.7 17 17.7 17 17.3 17.5 17.3 17.5 16.8"/><path d="M19.7,12.5H13.8a.3.3,0,0,0-.3.3v8.4c0,.2.1.4.3.4h5.9a.4.4,0,0,0,.4-.4V12.8C20.1,12.6,19.9,12.5,19.7,12.5Zm-5.5,3.4h5.1v2.3H14.2Zm5.1,4.9H14.2V18.9h5.1Zm-5.1-5.7V13.2h5.1v1.9Z"/><path d="M25.2,16h.4a.8.8,0,0,1,.8.8v1.8a0,0,0,0,1,0,0H24.4a0,0,0,0,1,0,0V16.8a.8.8,0,0,1,.8-.8Z" transform="translate(28.6 -13.3) rotate(61.8)" fill="#fff" stroke="#000" stroke-miterlimit="10" stroke-width="0.37"/><path d="M22.8,17h.5a1,1,0,0,1,1,1v2.1a0,0,0,0,1,0,0H21.8a0,0,0,0,1,0,0V18a1,1,0,0,1,1-1Z" transform="translate(17.6 47.6) rotate(-118.2)"/><path d="M25.7,12h.4a.8.8,0,0,1,.8.8v1.8a0,0,0,0,1,0,0H24.8a0,0,0,0,1,0,0V12.8A.8.8,0,0,1,25.7,12Z" transform="translate(50.6 -2) rotate(121.1)" fill="#fff" stroke="#000" stroke-miterlimit="10" stroke-width="0.37"/><path d="M23.3,10.4h.5a1,1,0,0,1,1,1v2.1a0,0,0,0,1,0,0H22.3a0,0,0,0,1,0,0V11.3a1,1,0,0,1,1-1Z" transform="translate(1.2 25.9) rotate(-58.9)"/><path d="M25,22.4h.4a.8.8,0,0,1,.8.8V25a0,0,0,0,1,0,0H24.1a0,0,0,0,1,0,0V23.3A.8.8,0,0,1,25,22.4Z" transform="translate(59.2 17.3) rotate(126)" fill="#fff" stroke="#000" stroke-miterlimit="10" stroke-width="0.37"/><path d="M22.8,20.6h.5a1,1,0,0,1,1,1v2.1a0,0,0,0,1,0,0H21.8a0,0,0,0,1,0,0V21.6A1,1,0,0,1,22.8,20.6Z" transform="translate(-8.5 27.8) rotate(-54)"/></svg>