<svg id="Ebene_1" data-name="Ebene 1" xmlns="http://www.w3.org/2000/svg" viewBox="0 0 30 30"><title>asthma</title><polygon points="12.8 19 9.2 5.7 1.4 7.8 6.1 26.8 21.2 26.8 21.2 19 12.8 19" fill="#fff" stroke="#000" stroke-miterlimit="10"/><rect x="3.3" y="1.7" width="3.1" height="6.63" transform="translate(8.4 -1) rotate(74.7)" fill="#fff" stroke="#000" stroke-miterlimit="10" stroke-width="0.75"/><line x1="17.2" y1="18.8" x2="17.2" y2="26.6" fill="#fff" stroke="#000" stroke-miterlimit="10"/><line x1="12.9" y1="18.9" x2="10.5" y2="21.9" fill="#fff" stroke="#000" stroke-miterlimit="10"/><circle cx="22.8" cy="22.7" r="0.5"/><circle cx="24.2" cy="22.7" r="0.5"/><circle cx="25.6" cy="22.7" r="0.5"/><circle cx="27.1" cy="22.7" r="0.5"/><circle cx="28.5" cy="22.7" r="0.5"/><circle cx="22.8" cy="20.7" r="0.5"/><circle cx="24" cy="20" r="0.5"/><circle cx="25.3" cy="19.3" r="0.5"/><circle cx="26.5" cy="18.5" r="0.5"/><circle cx="27.7" cy="17.8" r="0.5"/><circle cx="22.8" cy="24.7" r="0.5"/><circle cx="24" cy="25.4" r="0.5"/><circle cx="25.3" cy="26.2" r="0.5"/><circle cx="26.5" cy="26.9" r="0.5"/><circle cx="27.7" cy="27.6" r="0.5"/></svg>