<svg id="Ebene_1" data-name="Ebene 1" xmlns="http://www.w3.org/2000/svg" viewBox="0 0 30 30"><title>ausschlag</title><ellipse cx="2.1" cy="1.9" rx="0.9" ry="0.9" fill="red"/><ellipse cx="6" cy="2.1" rx="0.9" ry="0.9" fill="red"/><ellipse cx="3.3" cy="5.1" rx="0.9" ry="0.9" fill="red"/><ellipse cx="8.3" cy="4.5" rx="0.9" ry="0.9" fill="red"/><ellipse cx="5.6" cy="7.4" rx="0.9" ry="0.9" fill="red"/><ellipse cx="11" cy="2.1" rx="0.9" ry="0.9" fill="red"/><ellipse cx="10.8" cy="6.1" rx="0.9" ry="0.9" fill="red"/><ellipse cx="1.9" cy="8.9" rx="0.9" ry="0.9" fill="red"/><ellipse cx="10.5" cy="10.9" rx="0.9" ry="0.9" fill="red"/><ellipse cx="8.5" cy="8.6" rx="0.9" ry="0.9" fill="red"/><ellipse cx="4.6" cy="10.9" rx="0.9" ry="0.9" fill="red"/><ellipse cx="22.9" cy="2.1" rx="0.9" ry="0.9" fill="red"/><ellipse cx="22.7" cy="6" rx="0.9" ry="0.9" fill="red"/><ellipse cx="19.7" cy="3.3" rx="0.9" ry="0.9" fill="red"/><ellipse cx="27.7" cy="8.3" rx="0.9" ry="0.9" fill="red"/><ellipse cx="20.3" cy="8.3" rx="0.9" ry="0.9" fill="red"/><ellipse cx="17.4" cy="5.6" rx="0.9" ry="0.9" fill="red"/><ellipse cx="22.8" cy="11" rx="0.9" ry="0.9" fill="red"/><ellipse cx="25.9" cy="2.1" rx="0.9" ry="0.9" fill="red"/><ellipse cx="24.9" cy="5.1" rx="0.9" ry="0.9" fill="red"/><ellipse cx="27.9" cy="5.1" rx="0.9" ry="0.9" transform="translate(10.6 27.7) rotate(-62.9)" fill="red"/><ellipse cx="24.7" cy="9" rx="0.9" ry="0.9" fill="red"/><ellipse cx="26.8" cy="12" rx="0.9" ry="0.9" transform="translate(1.2 26.3) rotate(-53.4)" fill="red"/><ellipse cx="18.7" cy="10.8" rx="0.9" ry="0.9" fill="red"/><ellipse cx="14.7" cy="11.8" rx="0.9" ry="0.9" fill="red"/><ellipse cx="15.9" cy="1.9" rx="0.9" ry="0.9" fill="red"/><ellipse cx="12.9" cy="8.5" rx="0.9" ry="0.9" fill="red"/><ellipse cx="16.2" cy="8.5" rx="0.9" ry="0.9" fill="red"/><ellipse cx="13.9" cy="4.6" rx="0.9" ry="0.9" fill="red"/><ellipse cx="28.7" cy="23.9" rx="0.9" ry="0.9" fill="red"/><ellipse cx="24.8" cy="23.7" rx="0.9" ry="0.9" fill="red"/><ellipse cx="27.5" cy="20.7" rx="0.9" ry="0.9" fill="red"/><ellipse cx="22.5" cy="21.4" rx="0.9" ry="0.9" fill="red"/><ellipse cx="25.3" cy="18.4" rx="0.9" ry="0.9" fill="red"/><ellipse cx="19.9" cy="22.8" rx="0.9" ry="0.9" fill="red"/><ellipse cx="22" cy="18.7" rx="0.9" ry="0.9" fill="red"/><ellipse cx="27.9" cy="15.9" rx="0.9" ry="0.9" fill="red"/><ellipse cx="18.3" cy="13.9" rx="0.9" ry="0.9" fill="red"/><ellipse cx="16.3" cy="14.9" rx="0.9" ry="0.9" fill="red"/><ellipse cx="21.3" cy="15.2" rx="0.9" ry="0.9" fill="red"/><ellipse cx="24.2" cy="14.9" rx="0.9" ry="0.9" fill="red"/><ellipse cx="7.9" cy="23.7" rx="0.9" ry="0.9" fill="red"/><ellipse cx="8.1" cy="19.8" rx="0.9" ry="0.9" fill="red"/><ellipse cx="11.1" cy="22.5" rx="0.9" ry="0.9" fill="red"/><ellipse cx="3.1" cy="17.5" rx="0.9" ry="0.9" fill="red"/><ellipse cx="10.5" cy="17.5" rx="0.9" ry="0.9" fill="red"/><ellipse cx="13.4" cy="20.3" rx="0.9" ry="0.9" fill="red"/><ellipse cx="6" cy="13.9" rx="0.9" ry="0.9" fill="red"/><ellipse cx="4.9" cy="23.7" rx="0.9" ry="0.9" fill="red"/><ellipse cx="4.9" cy="20.7" rx="0.9" ry="0.9" fill="red"/><ellipse cx="1.9" cy="21.7" rx="0.9" ry="0.9" transform="translate(-18.3 13.5) rotate(-62.9)" fill="red"/><ellipse cx="6.1" cy="16.8" rx="0.9" ry="0.9" fill="red"/><ellipse cx="2.1" cy="25.8" rx="0.9" ry="0.9" transform="translate(-13.8 5.4) rotate(-33.4)" fill="red"/><ellipse cx="6.1" cy="26.8" rx="0.9" ry="0.9" transform="translate(-13.7 7.8) rotate(-33.4)" fill="red"/><ellipse cx="12.1" cy="25.8" rx="0.9" ry="0.9" transform="translate(-12.2 10.9) rotate(-33.4)" fill="red"/><ellipse cx="15.1" cy="26.8" rx="0.9" ry="0.9" transform="translate(-7.2 5.6) rotate(-17)" fill="red"/><ellipse cx="19.1" cy="27.8" rx="0.9" ry="0.9" transform="translate(-7.3 6.8) rotate(-17)" fill="red"/><ellipse cx="22.1" cy="25.8" rx="0.9" ry="0.9" transform="translate(-11.7 28.6) rotate(-54.1)" fill="red"/><ellipse cx="9.1" cy="27.8" rx="0.9" ry="0.9" transform="translate(-18.7 18.9) rotate(-54.1)" fill="red"/><ellipse cx="4.1" cy="27.8" rx="0.9" ry="0.9" transform="translate(-11.1 4.2) rotate(-24.3)" fill="red"/><ellipse cx="18.1" cy="24.8" rx="0.9" ry="0.9" transform="translate(-12.6 24.9) rotate(-54.1)" fill="red"/><ellipse cx="26.1" cy="27.8" rx="0.9" ry="0.9" transform="translate(-11.7 32.6) rotate(-54.1)" fill="red"/><ellipse cx="2" cy="13.9" rx="0.9" ry="0.9" transform="translate(-10.3 7.3) rotate(-53.4)" fill="red"/><ellipse cx="12.1" cy="15" rx="0.9" ry="0.9" fill="red"/><ellipse cx="9.1" cy="14" rx="0.9" ry="0.9" fill="red"/><ellipse cx="14.9" cy="24" rx="0.9" ry="0.9" fill="red"/><ellipse cx="17.9" cy="17.3" rx="0.9" ry="0.9" fill="red"/><ellipse cx="14.6" cy="17.4" rx="0.9" ry="0.9" fill="red"/><ellipse cx="17.9" cy="21.2" rx="0.9" ry="0.9" fill="red"/></svg>