<svg id="Ebene_1" data-name="Ebene 1" xmlns="http://www.w3.org/2000/svg" xmlns:xlink="http://www.w3.org/1999/xlink" viewBox="0 0 75 75"><defs><clipPath id="clip-path"><rect x="-66.5" width="46.5" height="22.96" transform="translate(-86.4 23) rotate(180)" fill="none"/></clipPath></defs><title>bauchwehk</title><path d="M38.5,46.6c8.6-3.7,21.8-9.3,23.5-9.8" fill="none" stroke="#000" stroke-linecap="round" stroke-linejoin="round"/><path d="M33.3,54.9c-2.3.9-7.3,3.7-10.6,4.4-1.7.5-3-.8-4.8-1.9s-2.6-1.4-3-2.8.3-.9.9-1.4l1.3-1" fill="none" stroke="#000" stroke-linecap="round" stroke-linejoin="round"/><path d="M14.9,40.2s30.8,8.7,31.5,8.6,3.5-1.7,5.3-1.7l3.2.2a53.1,53.1,0,0,1,6,1.2c1.4.5,2.5,1,2.6,1.7s-1.4,2.8-2.1,3.2a8,8,0,0,0-1.7,2.1s-.2,1-3.8,1.1a17.6,17.6,0,0,1-8.4-2.7,95.3,95.3,0,0,1-14.2,1H31.6a92.3,92.3,0,0,1-14.5-2.7c-4.5-1.1-8-2.3-8.7-2.8C4.7,46,9.9,13.7,9.9,13.7a12.4,12.4,0,0,1,5.5-7.2l.9-.6,8.5-3.8L28.3.5s1.3,4.1,8.9,4.1,8.2-4,8.2-4S59.8,3.7,60.5,4.1s5.2,1.6,6.3,9.1c0,0,4.5,23.2,3.5,28.2-.4,2-5.6,5.1-9.4,7" fill="none" stroke="#000" stroke-linecap="round" stroke-linejoin="round"/><g clip-path="url(#clip-path)"><path d="M-50.5,5.5l-8.9,5.3a1.4,1.4,0,0,1-2-.7h0A1.5,1.5,0,0,1-61.1,8L-48,.2s5.6-3.4,7.9-3a8.1,8.1,0,0,0,6.2-1.3C-22.9-11.8-3.1-24.6-3.1-24l5.7,7.6S-32.5,5.3-33.2,8.8a8,8,0,0,1-3,5.1l-12.2,7.2a1.8,1.8,0,0,1-2.6-.6l-.2-.3a1.9,1.9,0,0,1,.7-2.6l7.1-4.2" fill="#fff" stroke="#000" stroke-linecap="round" stroke-linejoin="round" stroke-width="1.22"/></g><path d="M60.5,74.9c-.2-5.7-.5-16.4-.6-16.4a6.9,6.9,0,0,0-.9-2.1" fill="none" stroke="#000" stroke-linejoin="round"/><path d="M18.5,57.7c-.5,2.9-.8,3.8-.8,3.9V74.9" fill="none" stroke="#000" stroke-linejoin="round"/><path d="M18.1,60.8h.4c2.6.2,15.6,1.8,21.1,1.6S60,58.5,60,58.5" fill="none" stroke="#000" stroke-linejoin="round"/><line x1="17.2" y1="40.8" x2="20.3" y2="25" fill="#fff" stroke="#000" stroke-linecap="round" stroke-linejoin="round"/><line x1="60" y1="37.6" x2="57" y2="22.1" fill="none" stroke="#000" stroke-linecap="round" stroke-linejoin="round"/><path d="M55.6,39.4a100.8,100.8,0,0,1,.2-10.5l1-5.8C57.3,20.4,58,18,58,18" fill="none" stroke="#000" stroke-linecap="round" stroke-linejoin="round"/><path d="M21.9,41.9a83.3,83.3,0,0,0-.2-9.8l-1-5.8a43,43,0,0,0-1.3-5.1" fill="none" stroke="#000" stroke-linecap="round" stroke-linejoin="round"/><line x1="68.3" y1="23.9" x2="58.6" y2="28.7" fill="none" stroke="#000" stroke-linecap="round" stroke-linejoin="round"/><polyline points="40.5 42.8 45.1 35.9 46.1 41.2 51.5 33.3" fill="none" stroke="#ed1c24" stroke-linecap="round" stroke-linejoin="round" stroke-width="1.5"/><polyline points="36.2 44.2 29.4 39.5 34.7 38.5 26.7 33.1" fill="none" stroke="#ed1c24" stroke-linecap="round" stroke-linejoin="round" stroke-width="1.5"/><polyline points="38.1 41.8 37.6 33.6 41.6 37.2 41.1 27.6" fill="none" stroke="#ed1c24" stroke-linecap="round" stroke-linejoin="round" stroke-width="1.5"/><polyline points="37.8 56.1 33.1 63 32.1 57.7 26.7 65.6" fill="none" stroke="#ed1c24" stroke-linecap="round" stroke-linejoin="round" stroke-width="1.5"/><polyline points="42.1 54.7 48.9 59.4 43.6 60.4 51.5 65.8" fill="none" stroke="#ed1c24" stroke-linecap="round" stroke-linejoin="round" stroke-width="1.5"/><polyline points="40.2 57.1 40.7 65.3 36.6 61.7 37.2 71.3" fill="none" stroke="#ed1c24" stroke-linecap="round" stroke-linejoin="round" stroke-width="1.5"/><line x1="8.3" y1="25.9" x2="19.1" y2="29.8" fill="none" stroke="#000" stroke-linecap="round" stroke-linejoin="round"/></svg>