<svg id="Ebene_1" data-name="Ebene 1" xmlns="http://www.w3.org/2000/svg" viewBox="0 0 226.77 226.77"><defs><style>.cls-1,.cls-5,.cls-7{fill:none;}.cls-1,.cls-3,.cls-5,.cls-6{stroke:#1d1d1b;stroke-width:2px;}.cls-1,.cls-6{stroke-miterlimit:10;}.cls-2{fill:#1d1d1b;}.cls-3,.cls-4,.cls-6{fill:#fff;}.cls-3,.cls-5,.cls-7{stroke-linejoin:round;}.cls-7{stroke:#e6332a;stroke-width:4px;}</style></defs><title>Bildkarten_Exp3</title><path class="cls-1" d="M134.91-28l0-25.84s0-24.41-35.52-24.41c0,0-33.3-3-35.52,28.11a227.11,227.11,0,0,0-.54,26.32q.21,4.53.72,9A75.66,75.66,0,0,0,69,5.38C71.87,12.26,76.1,18,82.1,21.63a32.57,32.57,0,0,0,17.31,4.44,30.14,30.14,0,0,0,16.41-4.44C122,17.76,126.17,11.78,129,5.32a72.9,72.9,0,0,0,5.24-20.21,81,81,0,0,0,.68-11.25Z"/><path class="cls-1" d="M64.41-14.71l-.34-.12c-2.1-.76-13.15-4.35-9.69,4.72,3.83,10,5.25,12.45,5.57,13,2.36,3.78,7.9,5.74,9,2.52"/><path class="cls-1" d="M133.69-14.71s.2-.08.54-.18c2.52-.9,12.85-4,9.49,4.78-3.83,10-5.25,12.45-5.57,13-2.36,3.78-7.88,5.74-9,2.52"/><rect class="cls-2" x="90.31" y="4.31" width="18.93" height="2"/><rect class="cls-2" x="95.73" y="8.81" width="6.65" height="2"/><path class="cls-3" d="M56.3,178.13C55.07,186,53.23,198,52,202.82c0,0-.06,33,0,55.83s7.15,51.09,9.91,62.12c6,24,14.45,58.61,14.39,64.42-.08,9.06-.2,17.39,0,20.53.42,6.2.56,45.51,3.88,59.66s10,67.16,9.17,69.92-31.14,31.28-53.84,38.84c-12.36,4.12-6,14.47,25.16,14.25C74.86,588.31,94,575.54,94,575.54s10.83-1.4,14.17-1.68,13.87.84,7.48-32.74-2.22-48.55-2.22-48.55,1.68-40.06,2.24-46.15c1.48-16-2.24-44-5.56-55.39s1.5-50.61.54-66.32c-.06-1.18-.12-2.54-.16-4.06-.42-14.77.2-44.43-1.36-56.23-.38-2.89,1.18-4.61,3.12-4.61h4.18a2.76,2.76,0,0,1,2.62,2.81c-.14,10.54-.64,40.44.88,58.15.12,1.24.24,2.4.36,3.5,2.55,22,4.87,42.21,6.59,57.5.82,7.44-2.54,53.19-1.6,64.47s7.38,46.79,7,53.46,1.84,46.6.92,49.95-8.16,21-.92,22.93c17.61,4.8,31.12,13.09,35.5,14,13.15,2.9,32,1.86,36.08-.36s3.53-8-14.8-14.43-29.4-39.58-29.4-39.58.18-46.91,1.84-59.86-1.14-63-1.24-77.69a334.2,334.2,0,0,1,2.32-37l3.58-36.88s3.3-29.55,3.55-51.32-2.83-73-2.85-73.05c-.5-1.06-8.42-18.27-9.76-20.18-.63-.87-1.34-12-1.8-24.52"/><path class="cls-1" d="M52,202.82h0c.2,0,.56,0,1.07.06,7.2.56,43,4.9,57.89,4.44,16-.5,56-10.82,56-10.82"/><path class="cls-1" d="M124.64,34.39a30.05,30.05,0,0,1-44.49,2.2"/><rect class="cls-4" x="-2.21" y="-91.14" width="210.29" height="118.61"/><path class="cls-5" d="M61.36,151.74c.56-15.37-.14-32.87-.92-36.23-.64-2.78-2-9.33-3.22-15.59v0c-1.5-7.38-2.88-14.37-2.88-14.37"/><line class="cls-3" x1="49.69" y1="148.23" x2="58.12" y2="104.72"/><path class="cls-6" d="M119.7,18.7l1.37,14.92s45.18,12.81,47.3,13.91c2.54,1.32,14,4.5,17.21,25,0,0,12.22,63.66,9.58,77.33-1.67,8.61-29.95,22-37.38,23.28-24.66,4.36-62.61,12.82-68.81,15.4s-15.31,8.28-24.24,10.38c-4.79,1.13-8.26-2.25-13.34-5.23-4.34-2.56-7-3.86-8.1-7.68-.67-2.42,6.82-7.57,9.22-8.74a54.33,54.33,0,0,1,7.59-2.73c5-1.52,10.52-2.8,12.68-3.3a6.34,6.34,0,0,1,2-.17c2.36.13,8.11.71,10.15,2.9,3.12-.4,80-34.33,87.32-36.86"/><path class="cls-3" d="M82.7,22l-.34,14-10,5.25L45.12,53.71a6.45,6.45,0,0,0-.58.31c-1.91,1.14-11.76,7.56-14.85,19.86,0,0-14.37,88.38-4.11,97.48,3.42,3,39,12.9,63.54,15,17.16,1.46,43.59-2.26,43.59-2.26s11.24,7.27,23,7.18c9.89-.09,10.34-3,10.34-3s2.74-4.56,4.71-5.69,6.24-4.42,5.67-8.77c-.53-3.93-13.59-6.55-23.62-7.81a62.11,62.11,0,0,0-8.62-.57c-5.07-.1-12.34,4.48-14.56,4.65-2,.14-86.36-23.64-86.36-23.64"/><line class="cls-1" x1="24.64" y1="107.39" x2="54.83" y2="118.08"/><line class="cls-1" x1="166.81" y1="139.26" x2="158.72" y2="96.78"/><path class="cls-5" d="M154.74,144.37a264.35,264.35,0,0,1,.61-28.86S158,99.73,158,99.71c1.5-7.39,3.49-14.18,3.49-14.18"/><line class="cls-1" x1="189.68" y1="101.89" x2="162.9" y2="115.07"/><polyline class="cls-7" points="79.56 122.89 78.85 131.45 86.62 135.12 85.92 143.69 93.69 147.36 92.99 155.93"/><polyline class="cls-7" points="108.06 121.74 102.41 128.81 108.06 135.87 102.41 142.93 108.06 150 102.41 157.07"/><polyline class="cls-7" points="136.14 127.51 128.32 130.91 128.55 139.43 120.74 142.82 120.96 151.35 113.14 154.75"/><polyline class="cls-7" points="93.97 193.74 86.15 197.13 86.38 205.65 78.56 209.05 78.79 217.57 70.97 220.98"/><polyline class="cls-7" points="118.03 191.18 117.8 199.69 125.61 203.09 125.39 211.61 133.21 215.01 132.98 223.54"/><polyline class="cls-7" points="107.35 191.36 103.12 196.65 107.35 201.93 103.12 207.22 107.35 212.52 103.12 217.81"/></svg>