<svg id="Ebene_2" data-name="Ebene 2" xmlns="http://www.w3.org/2000/svg" viewBox="0 0 22 22"><title>blitz</title><path d="M8.5,21l-.4-.2-4.8-4a.8.8,0,0,1-.1-1.1v-.2L6,12.9l-3.8-4a.8.8,0,0,1,0-1.1.5.5,0,0,1,.9-.1h0l4.5,4.7a.9.9,0,0,1,0,1.1h0L4.8,16.2l4.1,3.3A1,1,0,0,1,9,20.7a.5.5,0,0,1-.5.3Z" fill="red"/><path d="M11.2,16.7a.8.8,0,0,1-.7-.5l-2-7a.9.9,0,0,1,.4-1h3.3l-1.8-6A.9.9,0,0,1,10.8,1a.7.7,0,0,1,.9.5l2.2,7.2a1,1,0,0,1-.4,1H10.1l1.7,6a.7.7,0,0,1-.4,1Z" fill="red"/><path d="M14.6,21h-.1a.9.9,0,0,1-.6-.9l.7-7.2c0-.5.3-.8.7-.7h.2l3.1,1.2V7.3a.7.7,0,1,1,1.4,0v7.2a.8.8,0,0,1-.7.9h-.2L15.8,14l-.6,6.3A.7.7,0,0,1,14.6,21Z" fill="red"/></svg>