<svg id="Ebene_1" data-name="Ebene 1" xmlns="http://www.w3.org/2000/svg" viewBox="0 0 30 30"><title>bluttropfen</title><path d="M23.7,7.9s-3-3.5-3.7-6.7h-.1c0-.1,0-.1-.1-.1s-.2.2-.2.2v.2a22.5,22.5,0,0,1-3.7,6.5h0A6.4,6.4,0,0,0,14.5,12c0,3.3,2.3,6,5.3,6s5.3-2.6,5.3-6A6.4,6.4,0,0,0,23.7,7.9Z" fill="#e6231e"/><path d="M12.2,14.5a16,16,0,0,1-3-5.3H9v.2A16.8,16.8,0,0,1,6,14.6a5,5,0,0,0-1.1,3.2c0,2.7,1.9,4.8,4.2,4.8a4.5,4.5,0,0,0,4.3-4.8A5.3,5.3,0,0,0,12.2,14.5Z" fill="#e6231e"/><path d="M18.4,22.9a11.7,11.7,0,0,1-2.3-4.1H16a.1.1,0,0,0-.1.1V19a13,13,0,0,1-2.3,3.9,3.9,3.9,0,0,0-.8,2.5A3.4,3.4,0,0,0,16,29a3.4,3.4,0,0,0,3.2-3.6,3.4,3.4,0,0,0-.8-2.5Z" fill="#e6231e"/></svg>