<svg id="Ebene_1" data-name="Ebene 1" xmlns="http://www.w3.org/2000/svg" viewBox="0 0 30 30"><title>drinks</title><polygon points="24.3 25.6 24.1 26.9 17.3 26.9 17.1 25.6 24.3 25.6" fill="#fff"/><polygon points="26.3 12.2 24.5 24.5 17 24.5 15.2 12.2 26.3 12.2" fill="#fff"/><polygon points="10.6 3.1 10.6 4.7 10.4 4.7 5.5 4.7 5.3 4.7 5.3 3.1 10.6 3.1" fill="#fff"/><path d="M12.2,13.9h0V25.9a.9.9,0,0,1-1,1H4.6a1,1,0,0,1-1-1v-12A6.8,6.8,0,0,1,4.8,10,8.2,8.2,0,0,0,6,5.7H9.9A8.2,8.2,0,0,0,11.1,10,6.8,6.8,0,0,1,12.2,13.9Z" fill="#fff"/><path d="M24.1,26.9V25.6H17.1l.2,1.3Zm.5,1.1H16.9a.6.6,0,0,1-.6-.5L14,11.7c-.1-.2,0-.3.1-.4l.4-.2H26.9a.7.7,0,0,1,.6.6L25.1,27.5A.5.5,0,0,1,24.6,28ZM17,24.5h7.5l1.8-12.3H15.2Z"/><path d="M4.7,2h6.4c.4,0,.6.2.6.5V5.2c0,.3-.2.5-.6.5H11a7.3,7.3,0,0,0,1.1,3.8,8.4,8.4,0,0,1,1.3,4.4v12A2.1,2.1,0,0,1,11.2,28H4.6a2.1,2.1,0,0,1-2.1-2.1v-12A7.8,7.8,0,0,1,3.8,9.5,7.6,7.6,0,0,0,4.9,5.7H4.7a.6.6,0,0,1-.6-.5V2.5A.6.6,0,0,1,4.7,2Zm.8,2.7h5.1V3.1H5.2V4.7ZM11.1,10A8.2,8.2,0,0,1,9.9,5.7H6A8.2,8.2,0,0,1,4.8,10a6.8,6.8,0,0,0-1.1,3.9v12a1,1,0,0,0,1,1h6.6a.9.9,0,0,0,1-1V14h0A6.8,6.8,0,0,0,11.1,10Z"/></svg>