<svg id="Ebene_1" data-name="Ebene 1" xmlns="http://www.w3.org/2000/svg" viewBox="0 0 75 75"><title>erbrechenk</title><path d="M7.7,74.5c1-7.4,2.8-18.5,2.8-18.5a15,15,0,0,1,5.6-8.6c2.5-1.9,13.4-4.5,13.4-4.5h2.2" fill="#fff" stroke="#000" stroke-miterlimit="10"/><polyline points="23 25.8 27.6 26.1 26.1 27.5" fill="none" stroke="#000" stroke-linecap="round" stroke-linejoin="round"/><polyline points="39 24.8 34.5 25.7 35.6 26.6" fill="none" stroke="#000" stroke-linecap="round" stroke-linejoin="round"/><path d="M44.2,22.7l-.6-9.2s-.5-8.8-13.3-8c0,0-12-.3-12.1,10.9,0,2.9.1,6.2.4,9.4.1,1.1.3,2.1.5,3.2a22.7,22.7,0,0,0,2.2,7.1,12.4,12.4,0,0,0,5,5.6,12.5,12.5,0,0,0,6.3,1.2,11.1,11.1,0,0,0,5.8-2,12.9,12.9,0,0,0,4.4-6.1,26,26,0,0,0,1.4-7.4,21.8,21.8,0,0,0,0-4Z" fill="none" stroke="#000" stroke-miterlimit="10"/><path d="M57.3,74.4a86.3,86.3,0,0,1-.5-8.7" fill="none" stroke="#000" stroke-miterlimit="10"/><path d="M17.1,75.2c.2-3.1,1.5-7.1,1.4-8.2" fill="none" stroke="#000" stroke-miterlimit="10"/><path d="M41.3,37.7A23.4,23.4,0,0,0,44,42s15.7,4.5,16.4,4.9,6.3,2.9,6.1,9.1c0,2.2,0,12.7.2,18.5" fill="none" stroke="#000" stroke-miterlimit="10"/><path d="M57.8,60.6l-1,5.1h0l-1.2,5.6a16.2,16.2,0,0,0-.2,3" fill="none" stroke="#000" stroke-miterlimit="10"/><path d="M17.5,61.1l1,5.1h0l1.2,5.6a16.2,16.2,0,0,1,.2,3" fill="none" stroke="#000" stroke-miterlimit="10"/><path d="M19.2,29h-.1c-.8-.2-4.8-1.3-3.4,1.9s2.1,4.4,2.3,4.5,2.9,1.9,3.3.7" fill="none" stroke="#000" stroke-miterlimit="10"/><path d="M44,27.5h.2c.9-.3,4.5-1.7,3.5,1.5A27.4,27.4,0,0,1,46,33.7c-.8,1.4-2.7,2.2-3.2,1.1" fill="none" stroke="#000" stroke-miterlimit="10"/><path d="M66.7,69.4l-9.6,3.2" fill="none" stroke="#000" stroke-miterlimit="10"/><path d="M44.8,42.1c-2,2.4-5.4,4.7-8.8,4.7a13.6,13.6,0,0,1-8.8-3.5" fill="none" stroke="#000" stroke-miterlimit="10"/><ellipse cx="32.1" cy="38" rx="1.7" ry="2.6" transform="translate(-6.2 69.8) rotate(-89.5)" fill="none" stroke="#000" stroke-miterlimit="10"/><line x1="8.4" y1="68.9" x2="17.5" y2="71.8" fill="none" stroke="#000" stroke-miterlimit="10"/><path d="M24.8,12.2c0,.4-.3,8.2-6.2,13.6h0c-.3-3.2-.4-6.5-.4-9.4C18.3,5.2,30.3,5.5,30.3,5.5c12.8-.8,13.3,8,13.3,8l.6,9.2h-.1S31,19.3,24.8,12.2Z" fill="none" stroke="#000" stroke-linecap="round" stroke-linejoin="round"/><path d="M30.9,27.2l-.8,5.6,3-.3" fill="none" stroke="#000" stroke-linecap="round" stroke-linejoin="round"/><path d="M32.4,37.8s-14,9.4-11.5,29.5a16.5,16.5,0,0,0,3-.1C24.2,67.2,21.8,44.4,32.4,37.8Z" fill="#009245" stroke="#009245" stroke-miterlimit="10" stroke-width="1.13"/><path d="M33.3,37.9s-9,8.9-4.4,23.5l2.2-.5C31.3,60.8,26.3,44.3,33.3,37.9Z" fill="#009245" stroke="#009245" stroke-miterlimit="10" stroke-width="0.85"/><path d="M31.7,38.2s-10.7,2.3-14,15l1.8.6C19.7,53.9,23.7,39.6,31.7,38.2Z" fill="#009245" stroke="#009245" stroke-miterlimit="10" stroke-width="0.73"/><ellipse cx="15" cy="54.9" rx="1.8" ry="0.8" transform="translate(-41.8 58.6) rotate(-78.4)" fill="#009245"/><ellipse cx="32.6" cy="51.2" rx="0.8" ry="1.8" transform="matrix(0.96, -0.29, 0.29, 0.96, -13.61, 11.83)" fill="#009245"/><ellipse cx="26.8" cy="64.1" rx="0.7" ry="1.6" transform="translate(-12.8 7) rotate(-12)" fill="#009245"/></svg>