<svg id="Ebene_1" data-name="Ebene 1" xmlns="http://www.w3.org/2000/svg" viewBox="0 0 226.77 226.77"><defs><style>.cls-1,.cls-2,.cls-4,.cls-5{fill:none;stroke:#1d1d1b;}.cls-1,.cls-2,.cls-4{stroke-linecap:round;}.cls-1,.cls-5{stroke-miterlimit:10;}.cls-1,.cls-4{stroke-width:2px;}.cls-2,.cls-4{stroke-linejoin:round;}.cls-2{stroke-width:1.5px;}.cls-3{fill:#1d1d1b;}.cls-5{stroke-width:0.75px;}</style></defs><title>Bildkarten_Exp3</title><path class="cls-1" d="M168.77,37.56,108.86,88.23c-12.53,10.35-32.62,34.63-38,42.05s-42.22,41-42.22,41,4.45,3,5.35,6.15c0,0,33.82-25.73,49.93-35.61,0,0,31-15.61,33-16.44s74.59-60,74.59-60,.83-2.9-.57-4.53-19.13-22.59-19.13-22.59S170.24,36.31,168.77,37.56Z"/><line class="cls-1" x1="28.67" y1="171.28" x2="20.4" y2="178.58"/><path class="cls-1" d="M34.23,177.27l-9,6.54-1.08.65a3.57,3.57,0,0,1-2.7-6.6l.16-.06"/><rect class="cls-2" x="116.54" y="74.11" width="48.9" height="17.69" transform="translate(-20.47 109.22) rotate(-39.71)"/><polygon class="cls-3" points="148 69.3 145.07 71.74 149.04 77.13 149.53 76.08 146.41 71.98 147.78 70.37 148 69.3"/><polygon class="cls-3" points="149.62 77.28 149.81 75.96 151.27 74.9 152.36 75.18 149.62 77.28"/><circle class="cls-3" cx="143.22" cy="74.27" r="0.91"/><path class="cls-1" d="M168.5,37.85l12.43-10.33c5.78-4.8,14.25-4.21,18.83,1.31L206,36.38c4.58,5.52,3.6,14-2.17,18.76l-13,10.77"/><circle class="cls-4" cx="170.76" cy="58.22" r="7.7"/><line class="cls-5" x1="130.26" y1="98.97" x2="149.83" y2="82.53"/></svg>