<svg id="Ebene_1" data-name="Ebene 1" xmlns="http://www.w3.org/2000/svg" viewBox="0 0 30 30"><title>geburtstag</title><path d="M4.3,23.5h0V15.1a2.4,2.4,0,0,1,2.4-2.4H23.3a2.4,2.4,0,0,1,2.4,2.4v8.3" fill="#fff"/><path d="M9.9,6.4c0,.6-.3,1.1-.8,1.1S8.3,7,8.3,6.4a8,8,0,0,1,.8-2.1C9.2,4,9.9,5.8,9.9,6.4Z" fill="none" stroke="#000" stroke-miterlimit="10" stroke-width="0.54"/><path d="M13.7,6.4c0,.6-.3,1.1-.8,1.1s-.8-.5-.8-1.1a8,8,0,0,1,.8-2.1C13,4,13.7,5.8,13.7,6.4Z" fill="none" stroke="#000" stroke-miterlimit="10" stroke-width="0.54"/><path d="M17.7,6.4c0,.6-.3,1.1-.8,1.1s-.8-.5-.8-1.1a8,8,0,0,1,.8-2.1C17,4,17.7,5.8,17.7,6.4Z" fill="none" stroke="#000" stroke-miterlimit="10" stroke-width="0.54"/><path d="M21.7,6.4c0,.6-.3,1.1-.8,1.1s-.8-.5-.8-1.1a8,8,0,0,1,.8-2.1C21,4,21.7,5.8,21.7,6.4Z" fill="none" stroke="#000" stroke-miterlimit="10" stroke-width="0.54"/><rect x="3.1" y="22.8" width="23.8" height="2.37" fill="#fff"/><path d="M26.9,22.2H25.8V15.1a2.9,2.9,0,0,0-2.8-3H21.5v-4H20.3v4H17.6v-4H16.4v4H13.6v-4H12.4v4H9.7v-4H8.5v4H7a2.9,2.9,0,0,0-2.8,3v7.1H3.1a.6.6,0,0,0-.6.6v2.3a.6.6,0,0,0,.6.6H26.9a.6.6,0,0,0,.6-.6V22.8A.6.6,0,0,0,26.9,22.2ZM5.3,15.1A1.8,1.8,0,0,1,7,13.3H23a1.8,1.8,0,0,1,1.7,1.8v.6h0a2,2,0,0,1-4,0H19.5a1.8,1.8,0,0,1-1.9,1.7,1.9,1.9,0,0,1-2-1.7H14.4a1.9,1.9,0,0,1-2,1.7,1.8,1.8,0,0,1-1.9-1.7H9.3a1.9,1.9,0,0,1-2,1.7,1.9,1.9,0,0,1-2-1.7h0Zm0,2.9a3.4,3.4,0,0,0,2,.6,3.6,3.6,0,0,0,2.6-1.2,3.2,3.2,0,0,0,2.5,1.2A3.4,3.4,0,0,0,15,17.4a3.4,3.4,0,0,0,2.6,1.2,3.2,3.2,0,0,0,2.5-1.2,3.6,3.6,0,0,0,2.6,1.2,3.4,3.4,0,0,0,2-.6v4.2H5.3Zm21,6.6H3.7V23.4H26.3Z"/></svg>