<svg id="Ebene_2" data-name="Ebene 2" xmlns="http://www.w3.org/2000/svg" viewBox="0 0 34 22"><title>gepunktet</title><ellipse cx="24.6" cy="6.1" rx="0.7" ry="0.6" fill="red"/><ellipse cx="26.7" cy="7.4" rx="0.9" ry="0.8" fill="red"/><ellipse cx="28.9" cy="8.8" rx="1.1" ry="1" fill="red"/><ellipse cx="31.7" cy="10.7" rx="1.3" ry="1.2" fill="red"/><ellipse cx="22.8" cy="9.4" rx="0.7" ry="0.6" fill="red"/><ellipse cx="24.4" cy="11.2" rx="0.9" ry="0.8" fill="red"/><ellipse cx="26" cy="13.3" rx="1.1" ry="1" fill="red"/><ellipse cx="28" cy="15.8" rx="1.3" ry="1.2" fill="red"/><ellipse cx="20.5" cy="11.9" rx="0.7" ry="0.6" fill="red"/><ellipse cx="20.8" cy="14.1" rx="0.9" ry="0.8" fill="red"/><ellipse cx="21.1" cy="16.7" rx="1.1" ry="1" fill="red"/><ellipse cx="21.4" cy="19.8" rx="1.3" ry="1.2" fill="red"/><ellipse cx="14.3" cy="10.3" rx="0.7" ry="0.6" fill="red"/><ellipse cx="13.3" cy="12.4" rx="0.9" ry="0.8" fill="red"/><ellipse cx="12.2" cy="14.7" rx="1.1" ry="1" fill="red"/><ellipse cx="10.6" cy="17.5" rx="1.3" ry="1.2" fill="red"/><ellipse cx="11.8" cy="6" rx="0.7" ry="0.6" fill="red"/><ellipse cx="9.7" cy="7.3" rx="0.9" ry="0.8" fill="red"/><ellipse cx="7.4" cy="8.6" rx="1.1" ry="1" fill="red"/><ellipse cx="4.4" cy="10.2" rx="1.3" ry="1.2" fill="red"/><ellipse cx="10.9" cy="3.4" rx="0.7" ry="0.6" fill="red"/><ellipse cx="8.4" cy="3.2" rx="0.9" ry="0.8" fill="red"/><ellipse cx="5.7" cy="2.8" rx="1.1" ry="1" fill="red"/><ellipse cx="2.3" cy="2.2" rx="1.3" ry="1.2" fill="red"/></svg>