<svg id="Ebene_1" data-name="Ebene 1" xmlns="http://www.w3.org/2000/svg" viewBox="0 0 226.77 226.77"><defs><style>.cls-1,.cls-3{fill:none;}.cls-2{fill:#1d1d1b;}.cls-3{stroke:#1d1d1b;stroke-miterlimit:10;stroke-width:2px;}</style></defs><title>Zeichenfläche 15</title><g id="_Gruppe_" data-name="&lt;Gruppe&gt;"><path class="cls-1" d="M95.25,41.56c-.08.88-2.09,21.57-18.75,35h0A218.19,218.19,0,0,1,77,51.41c2.12-29.7,34-26.87,34-26.87,33.93,0,34,23.33,34,23.33l0,24.69h-.25S110.57,61.24,95.25,41.56Z"/><path class="cls-2" d="M111,125.2a32.22,32.22,0,0,1-17-4.39c-5.55-3.38-9.89-8.76-12.91-16a73.21,73.21,0,0,1-4.78-19.57c-.32-2.85-.56-5.76-.69-8.66a216.1,216.1,0,0,1,.52-25.26c.62-8.67,3.78-15.48,9.38-20.26,10.28-8.75,25-7.55,25.6-7.5h0c34.4,0,34.82,24.05,34.82,24.29l0,26.47a79.65,79.65,0,0,1-.66,10.87,69.28,69.28,0,0,1-5.09,19.58c-3.14,7.22-7.5,12.6-13,16A29.87,29.87,0,0,1,111,125.2Zm-2.08-99.77c-4.37,0-14.72.73-22.21,7.12C81.47,37,78.54,43.35,78,51.48a212.27,212.27,0,0,0-.52,25c.13,2.86.36,5.73.68,8.53a71.06,71.06,0,0,0,4.64,19c2.86,6.85,6.95,11.92,12.14,15.09a30.43,30.43,0,0,0,16,4.11,28,28,0,0,0,15.17-4.1c5.12-3.21,9.23-8.31,12.22-15.17a67.31,67.31,0,0,0,4.94-19,74.3,74.3,0,0,0,.64-10.6l0-26.5c0-.91-.47-22.38-33-22.38C110.9,25.49,110.14,25.43,108.87,25.43Z"/><path class="cls-2" d="M189,191.83H37.73l0-1c.18-6.79.33-11.14.33-11.14-.33-20.3,15.29-24.51,15.45-24.55L89.63,143l3.82-1.75V120h1.91v22.52l-5,2.3L54.07,157c-.65.17-14.39,3.94-14.08,22.74,0,.05-.14,4-.3,10.19H187.1c0-3.53-.06-9.68,0-11.51.16-9.92-5-17.58-15.42-22.75l-.51-.25c-.59-.31-6.25-2.14-37.39-11L125.43,142l0-.69c-.77-21.22.17-21.79.73-22.12l1,1.63a.67.67,0,0,0,.28-.29c-.47,1.15-.42,11-.11,20l7,2c36,10.3,37.31,11,37.74,11.19l.48.24c11.11,5.53,16.66,13.77,16.48,24.49,0,1.84,0,8.94,0,12.42Z"/><path class="cls-2" d="M79.49,107c-2.46,0-5.47-1.85-7.07-4.41-.59-1-2.08-3.86-5.4-12.56-1-2.66-.92-4.63.29-5.86,2.34-2.39,7.91-.72,10.19.11l.3.11-.61,1.81-.34-.12c-3.1-1.13-7-1.78-8.18-.57-.79.81-.36,2.53.14,3.84,3.39,8.87,4.79,11.51,5.24,12.23,1.44,2.31,4.14,3.68,5.73,3.49a1.29,1.29,0,0,0,1.2-.89l1.8.63A3.18,3.18,0,0,1,80,107Z"/><path class="cls-2" d="M141.73,107l-.48,0a3.22,3.22,0,0,1-2.82-2.16l1.8-.65a1.31,1.31,0,0,0,1.22.91c1.61.17,4.28-1.2,5.72-3.5.45-.73,1.86-3.4,5.23-12.23.5-1.31.93-3,.14-3.84-1.17-1.2-4.86-.61-8,.51a5.13,5.13,0,0,0-.49.16l-.7-1.78s.22-.09.6-.2c2.19-.78,7.64-2.38,9.95,0,1.2,1.22,1.29,3.19.28,5.85-3.31,8.66-4.8,11.58-5.39,12.55C147.19,105.12,144.18,107,141.73,107Z"/><path class="cls-2" d="M77.1,77.3l-1.2-1.49C92.28,62.62,94.22,42.33,94.3,41.48l1.9.08C96.12,42.53,94.11,63.6,77.1,77.3Z"/><path class="cls-2" d="M144.33,73.47c-1.4-.47-34.52-11.64-49.84-31.32L96,41c15,19.23,48.6,30.57,48.93,30.68Z"/></g><polyline class="cls-3" points="109.44 79.62 106.49 93.36 114.11 93.36"/><path class="cls-3" d="M102,104.4s5.17,2.57,8.3,2.57S120,104.4,120,104.4"/><path class="cls-3" d="M132.82,142.46a28.73,28.73,0,0,1-42.53,2.09"/><circle class="cls-2" cx="95.22" cy="77.15" r="2.83"/><circle class="cls-2" cx="120.04" cy="77.15" r="2.83"/></svg>