<svg id="Ebene_1" data-name="Ebene 1" xmlns="http://www.w3.org/2000/svg" viewBox="0 0 30 30"><title>heiss</title><path d="M7.6,5C14,16.9,7.2,19.1,9.5,28.5c.3,1.3-.8,1.2-1.2.5C2.4,19.2,9.9,15.1,7.2,5.3,7,4.5,7.2,4.2,7.6,5Z" fill="#e6231e"/><path d="M14.6,1c6.4,11.8-.3,14,1.9,23.4.3,1.3-.8,1.3-1.2.6-5.9-9.8,1.6-13.9-1.1-23.7C14,.4,14.2.2,14.6,1Z" fill="#e6231e"/><path d="M21.2,5c6.4,11.9-.3,14.1,1.9,23.5.3,1.3-.8,1.2-1.2.5C16,19.2,23.5,15.1,20.8,5.3,20.6,4.5,20.8,4.2,21.2,5Z" fill="#e6231e"/></svg>