<svg id="Ebene_2" data-name="Ebene 2" xmlns="http://www.w3.org/2000/svg" viewBox="0 0 283.46 283.46"><defs><style>.cls-1{fill:none;stroke:red;stroke-miterlimit:10;stroke-width:7.21px;}</style></defs><title>Zeichenfläche 29</title><path class="cls-1" d="M111.41,194.75c0-7.89,13.64-7.89,13.64-15.78s-13.64-7.89-13.64-15.78,13.64-7.89,13.64-15.78-13.64-7.89-13.64-15.78,13.64-7.89,13.64-15.78-13.64-7.89-13.64-15.78,13.64-7.89,13.64-15.79-13.64-7.89-13.64-15.78"/><path class="cls-1" d="M139.45,194.75c0-7.89,13.63-7.89,13.63-15.78s-13.63-7.89-13.63-15.78,13.63-7.89,13.63-15.78-13.63-7.89-13.63-15.78,13.63-7.89,13.63-15.78-13.63-7.89-13.63-15.78,13.63-7.89,13.63-15.79-13.63-7.89-13.63-15.78"/><path class="cls-1" d="M167,197.37c0-7.89,13.63-7.89,13.63-15.78S167,173.7,167,165.81s13.63-7.89,13.63-15.78S167,142.14,167,134.25s13.63-7.89,13.63-15.78S167,110.58,167,102.69s13.63-7.89,13.63-15.79S167,79,167,71.12"/></svg>