<svg id="Ebene_2" data-name="Ebene 2" xmlns="http://www.w3.org/2000/svg" viewBox="0 0 334.55 841.89"><defs><style>.cls-1{fill:#c69c6d;}.cls-2{fill:none;stroke:#fff;stroke-miterlimit:10;stroke-width:2px;}</style></defs><title>Zeichenfläche 22</title><path class="cls-1" d="M90.07,518.18a3.54,3.54,0,0,1-.08-.45c-.29-2.34-2.93-5.57-2.34-8.21a17.6,17.6,0,0,0-.61-7c-.21.52-2,5-1.74,6.7a16.78,16.78,0,0,0,1.82,4.94,24.4,24.4,0,0,0,2.89,4Zm8.8-38c0-.09,0-.17,0-.25A1.47,1.47,0,0,0,98.87,480.16Zm157.68,16.43c.36,6.85-2.28,16.35-3.89,17.42-1.77,1.19-3.72-7.26-3.72-7.26-.59-3.54,3.75-31.75,3.75-31.75l-3.75-33.73L246.17,377c-2.2-16.48-11.48-42.28-12.77-45.78.7,4.47-2.67,32.87-2.67,32.87L231.89,403c.76,2,4.91,14.7,5.92,21s8.11,21.17,4.09,54.91c-2.84,23.79-11.39,42.16-11.67,45.66-.63,7.81,2.06,56.1-.67,75.34-1.32,9.29-6.65,43.59-6.91,47.89s2.78,21.21,1.77,31.57S217,709.21,215.48,716s-10.76,29.31-11,31.83-.47,9.09,0,11.37c1.09,5.3-4.3,12.38-9.35,14.9s-25.46,19.34-39.4,22.56c-2.42.56-12,.84-15-1.88-1.15-1-4.45-8.81,9.44-18.4s28.86-25.94,32.09-33.58c1.19-2.81-1.32-70.42-2-74-6-30.52-17.12-110.22-17.12-110.22s-5-19-9.21-36.29h0s-1,62.25-1.29,68.31,7.41,42.79,8.67,55.67,1.06,66.47,1.31,68.49,2.78,16.67,4,22.48,1,13.39-.25,14.15-9.53,6.7-12.89,8.84c-2.69,1.72-14.65,10.1-18.43,12.88s-16.8,6.42-27.28,7.33c-6.17.53-10.11-10.36-10.11-10.36s5.31-6.82,11.12-9.35,22.73-17.68,24.75-20.71,4.29-15.15,4.29-16.42S107.9,598,107.9,598s-9.1-110-9-117.72c-.3,4.61-1,12.07-2.13,14.63C95,498.67,95.27,507.18,95,508.64s3.22,7,2.34,10.26c-.17.64-.34,1.21-.49,1.73.4,1.24,2.08,6.63.79,7.73-1.46,1.25-4.29-1.51-10.35-4S81.2,521,79.69,518s-6.82-13.39-6.82-15.16,2.31-10.4,2.78-12.88c.91-4.86,5.81-20.21,6.31-22.73s8.84-98,8.84-98V313.66c0-2.52-6.57-39.91-6.31-58.35s4-20.2,7.83-24.5,21.47-10.61,26.77-12.37a37.08,37.08,0,0,0,9.6-5.06s-2.61-7.24-3.45-9.45a2.13,2.13,0,0,1-.4.1c-12.43,2.39-16.53-10.43-20.42-14.75C101.9,186.48,87,165,87,156.93s1.24-9.92,0-13.64-5.57-6.82-5-13-.44-7.44-.44-24.8,11.29-32.63,26-39.88c32.74-16.18,59.7,6.23,65.47,15.8,14.23,23.6,9.45,39,7.83,42.89,2.3,2.39,3.35,6,.62,10.86-5.43,9.68-5,15.87-7.61,18.13a7.81,7.81,0,0,1-3.59,2.11h0s-3,12.78,2.84,25.41a40,40,0,0,0,16.16,17.93s49.26,14.4,58.1,22.23,14.1,16.8,18.18,31.32c1.79,6.34,7.58,42.94,7.83,44.46S278.05,344,278.05,344s7.09,28.94,3,44.29l-11.22,88.57s7.67,25.39,5.31,32.48c-.41,2.71-6.66,13.46-6.66,13.46s-6.16,5.21-9.25,6.75-5.25.75-3.57-2.49c4-7.77,6.18-13.38,4.14-20C259,504.61,257.38,499.28,256.55,496.59Z"/><path class="cls-2" d="M148.39,186.06c-5.45,3-16.85,16.21-23.15,17.87a2.13,2.13,0,0,1-.4.1c-12.43,2.39-16.53-10.43-20.42-14.75C101.9,186.48,87,165,87,156.93s1.24-9.92,0-13.64-5.57-6.82-5-13-.44-7.44-.44-24.8,11.29-32.63,26-39.88c32.74-16.18,59.7,6.23,65.47,15.8,14.23,23.6,9.45,39,7.83,42.89a10.48,10.48,0,0,1-.45,1"/><path class="cls-2" d="M167,129.18s-.92-6.92,4.34-8.5c1.79-.53,6.63.6,9.51,3.6,2.3,2.39,3.35,6,.62,10.86-5.43,9.68-5,15.87-7.61,18.13a7.81,7.81,0,0,1-3.59,2.11,13.12,13.12,0,0,1-2.51.14c-2.64,0-5.5-4.67-3.24-8.06"/><path class="cls-2" d="M233.4,331.24c1.29,3.5,10.57,29.3,12.77,45.78l2.77,64.25L252.69,475s-4.34,28.21-3.75,31.75c0,0,1.95,8.45,3.72,7.26,1.61-1.07,4.25-10.57,3.89-17.42a16.6,16.6,0,0,0-.19-1.93"/><path class="cls-2" d="M217.6,275.77c-.25,1.77,15.66,55.07,15.66,55.07l.12.32"/><path class="cls-2" d="M125.06,203.45c0,.11.11.27.18.48.84,2.21,3.45,9.45,3.45,9.45a37.08,37.08,0,0,1-9.6,5.06c-5.3,1.76-23,8.08-26.77,12.37s-7.58,6.07-7.83,24.5,6.31,55.83,6.31,58.35v55.57s-8.33,95.48-8.84,98-5.4,17.87-6.31,22.73c-.47,2.48-2.78,11.11-2.78,12.88S78.17,515,79.69,518s1.51,3.79,7.58,6.31,8.89,5.29,10.35,4c1.29-1.1-.39-6.49-.79-7.73l-.09-.26"/><path class="cls-2" d="M98.87,480.23c-.07,7.7,9,117.72,9,117.72s29.88,124.4,29.88,125.66S135.51,737,133.49,740s-18.94,18.19-24.75,20.71-11.12,9.35-11.12,9.35,3.94,10.89,10.11,10.36c10.48-.91,23.49-4.55,27.28-7.33s15.74-11.16,18.43-12.88c3.36-2.14,11.62-8.08,12.89-8.84s1.51-8.34.25-14.15-3.79-20.46-4-22.48,0-55.61-1.31-68.49-8.92-49.6-8.67-55.67,1.29-68.31,1.29-68.31"/><path class="cls-2" d="M98.89,479.91a1.47,1.47,0,0,0,0,.25"/><path class="cls-2" d="M102,265.7c.59,1.48,1.16,32.3,1.41,37.61s7.33,28.29,7.83,32.83a31.47,31.47,0,0,0,3.23,9.58l-2.36,49s-8.19,39.16-10,44.22-2.77,37.62-3.27,40.88"/><path class="cls-2" d="M233.32,330.89a1.37,1.37,0,0,1,.06.27s0,0,0,.08c.7,4.47-2.67,32.87-2.67,32.87L231.89,403c.76,2,4.91,14.7,5.92,21s8.11,21.17,4.09,54.91c-2.84,23.79-11.39,42.16-11.67,45.66-.63,7.81,2.06,56.1-.67,75.34-1.32,9.29-6.65,43.59-6.91,47.89s2.78,21.21,1.77,31.57S217,709.21,215.48,716s-10.76,29.31-11,31.83-.47,9.09,0,11.37c1.09,5.3-4.3,12.38-9.35,14.9s-25.46,19.34-39.4,22.56c-2.42.56-12,.84-15-1.88-1.15-1-4.45-8.81,9.44-18.4s28.86-25.94,32.09-33.58c1.19-2.81-1.32-70.42-2-74-6-30.52-17.12-110.22-17.12-110.22s-5-19-9.21-36.29c-3.12-12.72-5.84-24.57-5.95-27.45"/><path class="cls-2" d="M99.08,476.39s-.06,1.4-.18,3.44a.19.19,0,0,0,0,.08c0,.08,0,.16,0,.25v.07c-.3,4.61-1,12.07-2.13,14.63C95,498.67,95.27,507.18,95,508.64s3.22,7,2.34,10.26c-.17.64-.34,1.21-.49,1.73-.65,2.11-1.26,3.2-2.44,3-1.38-.28-3.78-3.13-4.32-5.42a3.54,3.54,0,0,1-.08-.45c-.29-2.34-2.93-5.57-2.34-8.21a20.95,20.95,0,0,0-1.76-10.26"/><path class="cls-2" d="M87.06,502.48l0,0c-.21.52-2,5-1.74,6.7a16.78,16.78,0,0,0,1.82,4.94,24.4,24.4,0,0,0,2.89,4"/><path class="cls-2" d="M256.05,495s.19.64.5,1.63c.83,2.69,2.46,8,3.21,10.42,2,6.62-.13,12.23-4.14,20-1.68,3.24.48,4,3.57,2.49s9.25-6.75,9.25-6.75,6.25-10.75,6.66-13.46c2.36-7.09-5.31-32.48-5.31-32.48L281,388.24c4.13-15.35-3-44.29-3-44.29s-4.37-45.7-4.63-47.21-6-38.12-7.83-44.46c-4.08-14.52-9.34-23.49-18.18-31.32s-58.1-22.23-58.1-22.23a40,40,0,0,1-16.16-17.93c-5.81-12.63-2.84-25.41-2.84-25.41"/></svg>