<svg id="Ebene_1" data-name="Ebene 1" xmlns="http://www.w3.org/2000/svg" viewBox="0 0 226.77 226.77"><defs><style>.cls-1,.cls-2,.cls-3{fill:none;}.cls-1,.cls-3,.cls-5{stroke:#1d1d1b;stroke-width:2px;}.cls-1{stroke-linejoin:round;}.cls-3,.cls-5{stroke-miterlimit:10;}.cls-4{fill:#1d1d1b;}.cls-5,.cls-6{fill:#fff;}.cls-7{fill:#f39200;}</style></defs><title>Bildkarten_Exp3</title><polyline class="cls-1" points="96.05 68.92 108.26 70.6 104.08 74"/><polyline class="cls-1" points="139.37 69.26 127.13 70.75 129.88 73.44"/><path class="cls-2" d="M103.44,32.55c-.09.89-2.3,22-19.37,35.49h0a220.35,220.35,0,0,1,.73-25.61c2.4-30.23,34.79-27.09,34.79-27.09,34.55.27,34.38,24,34.38,24l-.21,25.15h-.26S118.88,52.71,103.44,32.55Z"/><path class="cls-3" d="M153.74,64.52,154,39.37s.17-23.76-34.38-24c0,0-32.39-3.14-34.79,27.09A220.35,220.35,0,0,0,84.05,68c.11,2.95.33,5.87.63,8.75A73.69,73.69,0,0,0,89.32,96.5c2.75,6.73,6.82,12.31,12.63,15.92a31.78,31.78,0,0,0,16.82,4.46,29.38,29.38,0,0,0,16-4.2c6-3.71,10.14-9.51,12.94-15.78A70.64,70.64,0,0,0,153,77.27a78.69,78.69,0,0,0,.75-10.94Z"/><path class="cls-3" d="M186.38,278.15c-.45-7.78-.88-15-.88-15s-3.86-36.51-5.64-60.43c-.63-8.49-1-15.41-.85-18.53"/><path class="cls-3" d="M143.32,104.6c-1,.62-.3,14.73-.3,14.73S186.9,132.14,189,133.22c2.46,1.31,17,7.7,16.56,24.45-.15,6.19.11,20.66.51,36.43h0c.67,26.77,1.71,57.29,1.71,57.29s5.1,25.15,4.34,32.44c-2.49,24.26-6.42,61.53-5.65,68s5.41,17.05,5,26c-.21,4.79-4.3,7.13-8.44,11.09-3.55,3.38-5.5,5.57-9.35,5.54-2.44,0-5.28-8.4-5.72-10.95a52.83,52.83,0,0,1-.55-7.84c-.07-5.12.18-10.59.3-12.76A6.46,6.46,0,0,1,188,361c.76-2.18,2.83-7.4,5.43-8.72.45-3-5.81-51.36-6-56.23-.11-2.4-.58-10.35-1-17.85"/><path class="cls-3" d="M187.21,375.67l-2.47,23.53L181,435.07a325.71,325.71,0,0,0-2.55,36c0,14.3,2.35,63,.62,75.62S176.8,605,176.8,605s10.54,32.3,28.31,38.75,18.27,12,14.3,14.16-22.35,3-35.12.07C180,657,167,648.8,149.84,644c-7-2,.15-19.09,1.07-22.32s-.93-42.14-.51-48.62S144.78,532,144,521s2.79-55.5,2.05-62.75c-1.55-14.89-3.66-34.6-6-56-.1-1.07-.21-2.2-.32-3.41-1.34-17.25-.63-46.35-.41-56.61a2.69,2.69,0,0,0-2.53-2.75l-4.07,0c-1.89,0-3.42,1.65-3.08,4.46,1.43,11.5.6,40.36.9,54.74,0,1.48.07,2.8.12,3.95.82,15.3-4.2,53.44-1,64.55s6.55,38.41,5,54C134,527,132.09,566,132.09,566s-4.17,14.55,1.79,47.27-4.3,31.58-7.54,31.81-13.8,1.53-13.8,1.53S93.8,658.87,80,658.83c-30.31,0-36.44-10.14-24.37-14.06,22.14-7.19,51.85-34.69,52.69-37.39s-5.24-54.33-8.39-68.13-3-52.05-3.32-58.09c-.17-3.06,0-11.16.16-20,.1-5.64-7.84-39.41-13.51-62.81-2.61-10.75-9.29-38.27-9.17-60.53s.43-54.35.43-54.35c2.44-9.13,6.18-34.64,6.18-34.64s-1.81-31-1.21-48a55.25,55.25,0,0,0-.16-9.78"/><path class="cls-3" d="M181.93,170.16s-1.4,6.79-2.92,14v0c-1.25,6.09-2.61,12.45-3.25,15.15-1.41,5.93-.08,57.25,1.27,59.15s8.87,18.67,9.35,19.71a.15.15,0,0,1,0,.06"/><path class="cls-3" d="M85,76.91l-.33-.12c-2-.75-12.76-4.32-9.46,4.53,3.64,9.77,5,12.15,5.32,12.66,2.27,3.7,7.65,5.65,8.78,2.52"/><path class="cls-3" d="M152.45,77.44l.52-.17c2.47-.86,12.54-3.81,9.2,4.73-3.8,9.71-5.2,12.08-5.51,12.58-2.33,3.66-7.72,5.53-8.83,2.38"/><path class="cls-3" d="M103.44,32.53v0c-.09.89-2.3,22-19.37,35.49"/><path class="cls-3" d="M153.48,64.52s-34.6-11.81-50-32"/><path class="cls-3" d="M206,194.1c-.66,0-26.17,8.57-26.17,8.57"/><polygon class="cls-4" points="122.54 86.43 113.58 86.36 116.95 71.21 118.85 71.63 116 84.43 122.55 84.48 122.54 86.43"/><path class="cls-3" d="M146.49,120.11a29.26,29.26,0,0,1-43.32,1.79"/><line class="cls-3" x1="49.78" y1="190.82" x2="71.04" y2="198.54"/><ellipse class="cls-3" cx="118.54" cy="101.21" rx="4.54" ry="7.06" transform="translate(16.4 218.96) rotate(-89.55)"/><path class="cls-5" d="M96.84,122.31s-21.31,7.1-28.07,12.3-11.9,11.26-15,23.21c0,0-9.05,54.29-9.27,65.27s13.68,46.24,26.14,25.58c0,0,24-43.29,31.61-65.13,4.62-13.18,7.88-40.62,7.88-40.62s10-7.81,13.33-18.33c2.8-8.87.53-10.9.53-10.9s-5.45-7-5.92-9.1.08-7.13-4.11-8c-3.77-.73-10,10.24-14,18.83-2,4.1-3.44,7.66-4,9.12-1.57,4.49.54,12.4.05,14.43-.45,1.85-10.2,26.08-22.3,52-.72,1.53-10,29.2-10,29.2"/><path class="cls-3" d="M48,192.85l22.68,7.86"/><rect class="cls-6" x="19.68" y="202.67" width="210.29" height="474.39"/><circle class="cls-7" cx="133.41" cy="103.8" r="2.44"/><circle class="cls-7" cx="142.01" cy="107.34" r="3.25"/><circle class="cls-7" cx="151.26" cy="111.43" r="4.06"/><circle class="cls-7" cx="162.61" cy="116.96" r="4.88"/><circle class="cls-7" cx="133.41" cy="119.32" r="2.44"/><circle class="cls-7" cx="139.24" cy="126.55" r="3.25"/><circle class="cls-7" cx="145.38" cy="134.6" r="4.06"/><circle class="cls-7" cx="152.66" cy="144.91" r="4.88"/><circle class="cls-7" cx="120.91" cy="126.65" r="2.7"/><circle class="cls-7" cx="122.38" cy="136.85" r="3.6"/><circle class="cls-7" cx="123.67" cy="147.98" r="4.5"/><circle class="cls-7" cx="124.78" cy="161.93" r="5.4"/><circle class="cls-7" cx="100.45" cy="109.39" r="2.61"/><circle class="cls-7" cx="91.55" cy="113.88" r="3.49"/><circle class="cls-7" cx="81.74" cy="118.5" r="4.36"/><circle class="cls-7" cx="69.29" cy="123.82" r="5.23"/><circle class="cls-7" cx="101.11" cy="101.55" r="2.44"/><circle class="cls-7" cx="91.83" cy="101.1" r="3.25"/><circle class="cls-7" cx="81.74" cy="100.33" r="4.06"/><circle class="cls-7" cx="69.2" cy="98.9" r="4.88"/></svg>