<svg id="Ebene_1" data-name="Ebene 1" xmlns="http://www.w3.org/2000/svg" viewBox="0 0 283.46 283.46"><defs><style>.cls-1{fill:none;stroke:#1d1d1b;stroke-miterlimit:10;stroke-width:2px;}</style></defs><title>husten</title><path class="cls-1" d="M103.27,122.41c-2-3.37-9.4-15.66-10.36-20s-.43-26.6-.43-26.6"/><path class="cls-1" d="M88.07,57.69s-2.21,22.14,4.26,31l.15-12.85c16.75,7,35.26,16,35.26,16L145.34,88a44.17,44.17,0,0,0,9.88-4.15c4.34-2.65-2,13.34-.84,11.83,0,0,20.83-20.59,11.21-50.4-2.51-7.76-4.37-10.35-9-14.28-3.7-3.17-10.1-4.52-16.6-6.21s-6.8-.9-10.42-1.14-17.41,1.08-22.37,3.45C90.74,35,88.07,57.69,88.07,57.69Z"/><path class="cls-1" d="M156.55,84.57c0,2.41-3.14,15-8.2,22.93s-16.63,18.29-16.63,18.29l-6,1.93"/><path class="cls-1" d="M96.74,90.14s13.51,5.51,15.21,7,4.1,3.61,3.86,5.78-1.66,7.72-1.66,7.72"/><path class="cls-1" d="M110.6,110.6s-2.39,4.34-1.2,5.79,3.6,1.69,4.08,2.41a5.65,5.65,0,0,0,3.35,1.69c.94,0,5-1.69,6.22-1.69s1.92-5.3,1.92-5.3,5.54,5.3,5.78,7"/><path class="cls-1" d="M127.79,99.11s6.1-.16,8,0,6.75-1.28,8.43-1"/><path class="cls-1" d="M96.74,96.58s4.61,1.87,6.53,2.38a32.25,32.25,0,0,0,5.8.54l-.79,1.94"/><path class="cls-1" d="M139.55,102.29a56.2,56.2,0,0,1-6.14.84c-1.78.21-5.62-1.69-5.62-1.69-1,.55,1.7,2.9,1.7,2.9"/><path class="cls-1" d="M106.29,112.67a13.78,13.78,0,0,0-2.05,2.87"/><path class="cls-1" d="M109.07,127.72s9.15,1.44,13.73,1.93,1.2-6,1.2-6a130.12,130.12,0,0,0-13.73-1.21c-7.48-.24-9.16,1.21-9.16,1.21s-3.67,8.44-4.37,11.57.51,5.54-1.66,8.92S87.37,164.84,84,166.77,76,179.3,76,179.3s-2.66,6.75-4.34,7.47S59.65,198.1,59.65,198.1s-9.16,7.23-9.65,11.33"/><path class="cls-1" d="M109.07,135.78l13.49,1.11s3.61-1.82,1.24-7.27"/><path class="cls-1" d="M107.33,144.76l13.49,1.11s4.38-2.61.59-9"/><path class="cls-1" d="M123.52,141.38s-.23,4.05-3.61,4.42-11.33-.73-11.33-.73"/><path class="cls-1" d="M106.29,153.27l11,.84s5.92-2.5,3.56-8.24"/><path class="cls-1" d="M131.72,125.79c.82-.12,4.7-.24,5.06.24s2.29,2.41,1.33,4.22-1.88,3.49-4.44,4.34-5,1.46-5.88,2.3-2.94,4.05-4.27,4.49"/><path class="cls-1" d="M127.26,127.72a8.7,8.7,0,0,0,0,4.1,12.18,12.18,0,0,0,2.23,4.15"/><path class="cls-1" d="M90.74,95.66c-1.2-1-2.41,2.35-7.71,3.46s-20.25,6.73-23.38,8.38-11.33,4.31-12.06,8-3.37,69.31-3.37,75.09,2.65,26.52,3.13,29.65,5.79,15.43,7.23,17.6,8.44,5.06,9.16,6.5,3.38,2.17,5.55,1.93,6-6.75,6.75-7.23,14.46-15.19,14.7-18.8,3.62-16.87,3.62-16.87,11.2-35.32,13-36.4a10.09,10.09,0,0,0,4.26-4.34c1.21-2.29,5.67-8.56,5.67-8.56"/><path class="cls-1" d="M71.34,152.79s3.25,11.08,3,14.46-2.65,19.52-2.65,19.52"/><path class="cls-1" d="M154.38,95.66s39.77,21,41.46,22.9,11.33,14.13,13.5,27.31,14,67.18,14,73,.72,23.48-1.21,27.53-3.37,7.18-6.75,7.42-16.39-1.92-20-3.37-31.81-7.23-41-12.29S130.46,224.86,127,224.86s-19.74-1.45-21.73-2.41-5.21-2.17-7.46-2.17H90.74"/><path class="cls-1" d="M101.35,186.77a3.46,3.46,0,0,1,4.94,0c2.53,2.41,18,11.82,22,13.74S145,205.82,148.35,208s13.5,6,18.56,6.5,22.66,1.93,22.66,1.93,9.16-.24,19.52,6.27"/><path class="cls-1" d="M176.79,158.81s4.58,36.64,6.27,40.26,6.51,17.35,6.51,17.35"/><path class="cls-1" d="M183.06,199.07S178,210.4,178.48,211.6s1.79,4.05,1.79,4.05"/><line class="cls-1" x1="106.29" y1="119.34" x2="110.27" y2="122.41"/><line class="cls-1" x1="124" y1="123.62" x2="128.24" y2="122.39"/><line class="cls-1" x1="133.55" y1="142.79" x2="141.12" y2="158.81"/><line class="cls-1" x1="91.57" y1="129.13" x2="77.44" y2="137.38"/><line class="cls-1" x1="93.21" y1="120.29" x2="74.15" y2="120.68"/><line class="cls-1" x1="125.69" y1="155.54" x2="125.69" y2="171.54"/><line class="cls-1" x1="148.87" y1="133.25" x2="165.87" y2="143.62"/></svg>