<svg id="Ebene_1" data-name="Ebene 1" xmlns="http://www.w3.org/2000/svg" viewBox="0 0 75 75"><title>hustenk</title><path d="M26.2,43.4S18.4,46,15.9,47.9a14.6,14.6,0,0,0-5.6,8.6S8.5,67.6,7.5,75" fill="#fff" stroke="#000" stroke-miterlimit="10"/><polyline points="25.9 23.7 30.4 24.3 28.9 25.6" fill="none" stroke="#000" stroke-linecap="round" stroke-linejoin="round"/><polyline points="41.9 23.8 37.4 24.4 38.4 25.4" fill="none" stroke="#000" stroke-linecap="round" stroke-linejoin="round"/><path d="M47.2,22.1V12.8S47.4,4,34.6,3.9c0,0-11.9-1.1-12.8,10a73,73,0,0,0-.3,9.5c0,1,.1,2.1.2,3.2a27.8,27.8,0,0,0,1.7,7.3,12.9,12.9,0,0,0,4.7,5.8,11,11,0,0,0,6.2,1.7,10.8,10.8,0,0,0,5.9-1.6A12.4,12.4,0,0,0,45,34a24.1,24.1,0,0,0,1.9-7.2,36.6,36.6,0,0,0,.3-4.1Z" fill="none" stroke="#000" stroke-miterlimit="10"/><path d="M57,74.8c-.2-3.1-.5-7.5-.5-8.6" fill="none" stroke="#000" stroke-miterlimit="10"/><path d="M43.4,36.8c-.4.3-.1,5.5-.1,5.5S59.4,47,60.2,47.4s6.3,2.8,6.1,9c0,2.3,0,12.7.2,18.6" fill="none" stroke="#000" stroke-miterlimit="10"/><path d="M57.6,61s-.5,2.5-1.1,5.2h0c-.4,2.2-.9,4.6-1.2,5.6s-.1,1.5-.2,3" fill="none" stroke="#000" stroke-miterlimit="10"/><path d="M21.9,26.6h-.2c-.7-.3-4.7-1.6-3.5,1.7a36.2,36.2,0,0,0,2,4.6c.8,1.4,2.8,2.1,3.2,1" fill="none" stroke="#000" stroke-miterlimit="10"/><path d="M46.7,26.8h.2c.9-.4,4.7-1.4,3.4,1.7a46.1,46.1,0,0,1-2,4.7c-.9,1.3-2.9,2-3.3.8" fill="none" stroke="#000" stroke-miterlimit="10"/><path d="M66.5,69.9,56.9,73" fill="none" stroke="#000" stroke-miterlimit="10"/><path d="M44.5,42.6a10.6,10.6,0,0,1-15.9.6" fill="none" stroke="#000" stroke-miterlimit="10"/><ellipse cx="34.2" cy="35.6" rx="1.7" ry="2.6" transform="translate(-1.6 69.5) rotate(-89.5)" fill="none" stroke="#000" stroke-miterlimit="10"/><path d="M24.3,75.1C25.9,71.7,31.1,51,31.1,51s3.7-2.9,4.9-6.8.2-4,.2-4-.7-3.4-1.4-4-.7-2-2.3-2.3-3.6,3.8-5.1,7a31.2,31.2,0,0,0-1.5,3.3c-.6,1.7.2,4.6,0,5.3s-11,22.4-12.3,25.1" fill="#fff" stroke="#000" stroke-miterlimit="10"/><line x1="8.2" y1="69.4" x2="15" y2="71.8" fill="none" stroke="#000" stroke-miterlimit="10"/><path d="M28.7,10.3c-.1.3-.9,8.1-7.2,13.1h0a73,73,0,0,1,.3-9.5c.9-11.1,12.8-10,12.8-10,12.8.1,12.7,8.9,12.7,8.9v9.3h-.1S34.4,17.7,28.7,10.3Z" fill="none" stroke="#000" stroke-linecap="round" stroke-linejoin="round"/><path d="M33.7,25.6l-1.2,5.5h3" fill="none" stroke="#000" stroke-linecap="round" stroke-linejoin="round"/><path d="M27.2,37.6h-.9L12,36.5c-1.8-.2-2.2-.7-1.8-2.4a1.2,1.2,0,0,1,1.3-1l1,.2,13.9,3.8.8.3Z"/><path d="M25.4,39.7a2,2,0,0,0-.8.4L11.3,45.4c-1.7.6-2.2.4-2.7-1.4a1.2,1.2,0,0,1,.7-1.4,4.5,4.5,0,0,1,1.1-.3l14.1-2.7h.8Z"/><path d="M26.2,41.1l-.4.6c-2,2.9-4,5.8-6.1,8.6-.7,1.2-1.2,1.2-2.2.3a.9.9,0,0,1-.1-1.2l.5-.6,7.7-7.3.5-.5Z"/><path d="M37.3,38.1h.9l14.3,1.2c1.8.2,2.2-.3,2.1-2.1a1,1,0,0,0-1-1.1,2,2,0,0,0-1.1,0L38.2,37.8h-.8Z"/><path d="M38.8,40.4a2,2,0,0,0,.8.4l12.7,6.4c1.7.9,2.2.6,2.8-1.1a1,1,0,0,0-.6-1.4l-1-.4L39.6,40.4l-.8-.2Z"/><path d="M38,42.1l.3.6,5.3,9.1c.7,1.2,1.1,1.3,2.2.5a.9.9,0,0,0,.2-1.2l-.5-.6c-2.3-2.7-4.6-5.4-7-8l-.4-.5Z"/></svg>