<svg id="Ebene_1" data-name="Ebene 1" xmlns="http://www.w3.org/2000/svg" viewBox="0 0 30 30"><title>hustensirup</title><path d="M3.2,25.2h7.6A3.8,3.8,0,0,1,7,27.5C5.1,27.5,3.5,26.5,3.2,25.2Z" fill="#fff"/><path d="M20.6,1.8l6.1,6.8-2.9,2.7L17.6,4.4Z" fill="#fff"/><path d="M20,9.4,19,8.3l-1,1L17,8.2l-1,.9.9,1.1-1,.9.9,1.1,1.1-1,.9,1.1,1-.9-.9-1.1ZM16.9,5.1,23,12l-3.9,3.5L12.9,8.6Z" fill="#fff"/><path d="M12.1,17.6h-.5L9.8,19.4,8,17.4l1.8-1.6c.1-.2.2-.3.2-.5s-.6-3.8,1.2-5.3l.9-.7,6.2,6.9-.9.7A7.3,7.3,0,0,1,12.1,17.6Z" fill="#fff"/><polygon points="18.9 10.3 19.8 11.3 18.8 12.3 17.9 11.2 16.8 12.2 15.9 11.1 16.9 10.2 16 9.1 17 8.2 18 9.3 19 8.3 19.9 9.4 18.9 10.3"/><path d="M26.7,8.6,20.6,1.8l-3,2.6,6.2,6.9Zm-7.6,6.9L23,12,16.9,5.1l-4,3.5Zm-8.3,9.7H3.2c.3,1.3,1.9,2.3,3.8,2.3A3.8,3.8,0,0,0,10.8,25.2Zm7.5-9L12.1,9.3l-.9.7C9.4,11.5,10,15.2,10,15.3s-.1.3-.2.5L8,17.4l1.8,2,1.8-1.7h.5a7.3,7.3,0,0,0,5.3-.7ZM18,17.8a8.1,8.1,0,0,1-5.9.9l-2,1.8H9.7a.4.4,0,0,1-.4-.2l-.6-.7a8.9,8.9,0,0,0-1,4.5h3.7a22.3,22.3,0,0,1,6-1.2c3.1-.2,4.6.8,4.7.9a.5.5,0,1,1-.6.8,8.2,8.2,0,0,0-4.1-.7,26.7,26.7,0,0,0-5.6,1.2c-.3,1.9-2.3,3.3-4.8,3.3s-5-1.7-5-3.8a.6.6,0,0,1,.6-.5h4A9.9,9.9,0,0,1,8,18.9L6.9,17.7a.8.8,0,0,1-.2-.4.5.5,0,0,1,.2-.4l2-1.7c-.1-1-.3-4.3,1.7-6S20.2.7,20.3.6a.5.5,0,0,1,.8.1l6.7,7.5a.6.6,0,0,1,0,.8C27.4,9.3,19.4,16.9,18,17.8Z"/></svg>