<svg id="Ebene_1" data-name="Ebene 1" xmlns="http://www.w3.org/2000/svg" viewBox="0 0 226.77 226.77"><defs><style>.cls-1{fill:none;}.cls-1,.cls-2{stroke:#1d1d1b;stroke-linecap:round;stroke-linejoin:round;stroke-width:3px;}.cls-2{fill:#fff;}.cls-10,.cls-12,.cls-16,.cls-18,.cls-19,.cls-21,.cls-22,.cls-23,.cls-3,.cls-4,.cls-5,.cls-6,.cls-8{font-size:7.13px;fill:#1d1d1b;font-family:Moderat-Bold, Moderat;font-weight:700;}.cls-4,.cls-7{letter-spacing:-0.01em;}.cls-11,.cls-5{letter-spacing:-0.02em;}.cls-6{letter-spacing:-0.01em;}.cls-13,.cls-8{letter-spacing:-0.03em;}.cls-9{letter-spacing:0.02em;}.cls-10{letter-spacing:0.01em;}.cls-12{letter-spacing:0.02em;}.cls-14{letter-spacing:-0.01em;}.cls-15{letter-spacing:0.01em;}.cls-16{letter-spacing:0em;}.cls-17{letter-spacing:-0.01em;}.cls-18{letter-spacing:-0.03em;}.cls-19{letter-spacing:-0.03em;}.cls-20{letter-spacing:-0.02em;}.cls-21{letter-spacing:0em;}.cls-22{letter-spacing:0em;}.cls-23{letter-spacing:-0.04em;}.cls-24{letter-spacing:-0.03em;}</style></defs><title>Bildkarten_Exp3</title><path class="cls-1" d="M183.29,172.54H38.71V61.19H183.29Z"/><rect class="cls-2" x="33.24" y="54.58" width="144.58" height="111.11"/><line class="cls-1" x1="49.57" y1="69.02" x2="49.57" y2="42.04"/><line class="cls-1" x1="157.3" y1="69.02" x2="157.3" y2="42.04"/><rect class="cls-1" x="45.38" y="80.01" width="120.29" height="70.23"/><line class="cls-1" x1="45.38" y1="96.52" x2="165.67" y2="96.52"/><line class="cls-1" x1="45.38" y1="114.46" x2="165.67" y2="114.46"/><line class="cls-1" x1="45.38" y1="132.4" x2="165.67" y2="132.4"/><line class="cls-1" x1="61.63" y1="82.06" x2="61.63" y2="150.25"/><line class="cls-1" x1="78.99" y1="82.06" x2="78.99" y2="150.25"/><line class="cls-1" x1="96.35" y1="82.06" x2="96.35" y2="150.25"/><line class="cls-1" x1="131.06" y1="82.06" x2="131.06" y2="150.25"/><line class="cls-1" x1="148.41" y1="82.06" x2="148.41" y2="150.25"/><line class="cls-1" x1="113.7" y1="82.06" x2="113.7" y2="150.25"/><line class="cls-1" x1="83.16" y1="67.46" x2="123.57" y2="67.46"/><text class="cls-3" transform="translate(118.43 89.7)">1</text><text class="cls-3" transform="translate(134.05 89.7)">2</text><text class="cls-4" transform="translate(152.04 89.7)">3</text><text class="cls-4" transform="translate(118.43 105.8)">8</text><text class="cls-5" transform="translate(134.05 105.8)">9</text><text class="cls-6" transform="translate(152.04 105.8)">1<tspan class="cls-7" x="2.72" y="0">0</tspan></text><text class="cls-5" transform="translate(49.57 105.8)">4</text><text class="cls-3" transform="translate(65.19 105.8)">5</text><text class="cls-5" transform="translate(83.19 105.8)">6</text><text class="cls-8" transform="translate(100.38 105.8)">7</text><text class="cls-3" transform="translate(118.43 123.74)"><tspan class="cls-9">1</tspan><tspan x="2.98" y="0">5</tspan></text><text class="cls-10" transform="translate(134.05 123.74)">1<tspan class="cls-11" x="2.89" y="0">6</tspan></text><text class="cls-12" transform="translate(152.04 123.74)">1<tspan class="cls-13" x="2.99" y="0">7</tspan></text><text class="cls-3" transform="translate(49.57 123.74)"><tspan class="cls-14">1</tspan><tspan x="2.75" y="0">1</tspan></text><text class="cls-3" transform="translate(65.19 123.74)"><tspan class="cls-15">1</tspan><tspan x="2.92" y="0">2</tspan></text><text class="cls-16" transform="translate(83.19 123.74)">1<tspan class="cls-7" x="2.79" y="0">3</tspan></text><text class="cls-10" transform="translate(100.38 123.74)">1<tspan class="cls-11" x="2.89" y="0">4</tspan></text><text class="cls-3" transform="translate(118.43 141.69)"><tspan class="cls-17">2</tspan><tspan x="4" y="0">2</tspan></text><text class="cls-18" transform="translate(134.05 141.69)">2<tspan class="cls-7" x="3.87" y="0">3</tspan></text><text class="cls-19" transform="translate(152.04 141.69)">2<tspan class="cls-20" x="3.88" y="0">4</tspan></text><text class="cls-21" transform="translate(49.57 141.69)">1<tspan class="cls-7" x="2.81" y="0">8</tspan></text><text class="cls-22" transform="translate(65.19 141.69)">1<tspan class="cls-11" x="2.83" y="0">9</tspan></text><text class="cls-23" transform="translate(83.19 141.69)">2<tspan class="cls-7" x="3.8" y="0">0</tspan></text><text class="cls-3" transform="translate(100.38 141.69)"><tspan class="cls-24">2</tspan><tspan x="3.86" y="0">1</tspan></text></svg>