<svg id="Ebene_1" data-name="Ebene 1" xmlns="http://www.w3.org/2000/svg" viewBox="0 0 226.77 226.77"><defs><style>.cls-1{fill:none;}.cls-1,.cls-2{stroke:#1d1d1b;stroke-linecap:round;stroke-linejoin:round;stroke-width:3.87px;}.cls-2{fill:#fff;}.cls-10,.cls-12,.cls-16,.cls-18,.cls-19,.cls-20,.cls-21,.cls-22,.cls-3,.cls-4,.cls-5,.cls-6,.cls-8{font-size:9.18px;fill:#1d1d1b;font-family:Moderat-Bold, Moderat;font-weight:700;}.cls-4,.cls-7{letter-spacing:-0.01em;}.cls-11,.cls-5{letter-spacing:-0.02em;}.cls-6{letter-spacing:-0.01em;}.cls-13,.cls-8{letter-spacing:-0.03em;}.cls-9{letter-spacing:0.02em;}.cls-10{letter-spacing:0.01em;}.cls-12{letter-spacing:0.02em;}.cls-14{letter-spacing:-0.01em;}.cls-15{letter-spacing:0.01em;}.cls-16{letter-spacing:0em;}.cls-17{letter-spacing:-0.01em;}.cls-18{letter-spacing:-0.03em;}.cls-19{letter-spacing:-0.03em;}.cls-20{letter-spacing:0em;}.cls-21{letter-spacing:0em;}.cls-22{letter-spacing:-0.04em;}.cls-23{letter-spacing:-0.03em;}</style></defs><title>Zeichenfläche 7 Kopie</title><path class="cls-1" d="M212.73,198.14H26.42V54.65H212.73Z"/><rect class="cls-2" x="19.37" y="46.14" width="186.31" height="143.18"/><line class="cls-1" x1="40.41" y1="64.75" x2="40.41" y2="29.98"/><line class="cls-1" x1="179.24" y1="64.75" x2="179.24" y2="29.98"/><rect class="cls-1" x="35.02" y="78.92" width="155" height="90.5"/><line class="cls-1" x1="35.02" y1="100.18" x2="190.03" y2="100.18"/><line class="cls-1" x1="35.02" y1="123.3" x2="190.03" y2="123.3"/><line class="cls-1" x1="35.02" y1="146.43" x2="190.03" y2="146.43"/><line class="cls-1" x1="55.96" y1="81.55" x2="55.96" y2="169.42"/><line class="cls-1" x1="78.33" y1="81.55" x2="78.33" y2="169.42"/><line class="cls-1" x1="100.69" y1="81.55" x2="100.69" y2="169.42"/><line class="cls-1" x1="145.42" y1="81.55" x2="145.42" y2="169.42"/><line class="cls-1" x1="167.79" y1="81.55" x2="167.79" y2="169.42"/><line class="cls-1" x1="123.06" y1="81.55" x2="123.06" y2="169.42"/><line class="cls-1" x1="83.7" y1="62.74" x2="135.78" y2="62.74"/><text class="cls-3" transform="translate(129.15 91.39)">1</text><text class="cls-3" transform="translate(149.28 91.39)">2</text><text class="cls-4" transform="translate(172.47 91.39)">3</text><text class="cls-4" transform="translate(129.15 112.14)">8</text><text class="cls-5" transform="translate(149.28 112.14)">9</text><text class="cls-6" transform="translate(172.47 112.14)">1<tspan class="cls-7" x="3.51" y="0">0</tspan></text><text class="cls-5" transform="translate(40.42 112.14)">4</text><text class="cls-3" transform="translate(60.55 112.14)">5</text><text class="cls-5" transform="translate(83.74 112.14)">6</text><text class="cls-8" transform="translate(105.89 112.14)">7</text><text class="cls-3" transform="translate(129.15 135.27)"><tspan class="cls-9">1</tspan><tspan x="3.84" y="0">5</tspan></text><text class="cls-10" transform="translate(149.28 135.27)">1<tspan class="cls-11" x="3.72" y="0">6</tspan></text><text class="cls-12" transform="translate(172.47 135.27)">1<tspan class="cls-13" x="3.86" y="0">7</tspan></text><text class="cls-3" transform="translate(40.42 135.27)"><tspan class="cls-14">1</tspan><tspan x="3.54" y="0">1</tspan></text><text class="cls-3" transform="translate(60.55 135.27)"><tspan class="cls-15">1</tspan><tspan x="3.76" y="0">2</tspan></text><text class="cls-16" transform="translate(83.74 135.27)">1<tspan class="cls-7" x="3.6" y="0">3</tspan></text><text class="cls-10" transform="translate(105.89 135.27)">1<tspan class="cls-11" x="3.72" y="0">4</tspan></text><text class="cls-3" transform="translate(129.15 158.39)"><tspan class="cls-17">2</tspan><tspan x="5.16" y="0">2</tspan></text><text class="cls-18" transform="translate(149.28 158.39)">2<tspan class="cls-7" x="4.99" y="0">3</tspan></text><text class="cls-19" transform="translate(172.47 158.39)">2<tspan class="cls-11" x="5" y="0">4</tspan></text><text class="cls-20" transform="translate(40.42 158.39)">1<tspan class="cls-7" x="3.62" y="0">8</tspan></text><text class="cls-21" transform="translate(60.55 158.39)">1<tspan class="cls-11" x="3.65" y="0">9</tspan></text><text class="cls-22" transform="translate(83.74 158.39)">2<tspan class="cls-7" x="4.9" y="0">0</tspan></text><text class="cls-3" transform="translate(105.89 158.39)"><tspan class="cls-23">2</tspan><tspan x="4.98" y="0">1</tspan></text></svg>