<svg id="Ebene_1" data-name="Ebene 1" xmlns="http://www.w3.org/2000/svg" viewBox="0 0 226.77 226.77"><defs><style>.cls-1{fill:#be1622;}.cls-1,.cls-2,.cls-3,.cls-4{stroke:#1d1d1b;}.cls-1,.cls-2{stroke-linecap:round;}.cls-1,.cls-2,.cls-3{stroke-miterlimit:10;}.cls-2{fill:#fff;}.cls-3,.cls-4{fill:none;}.cls-4{stroke-linejoin:round;}.cls-5{font-size:10.85px;fill:#1d1d1b;font-family:Helvetica-Bold, Helvetica;font-weight:700;}.cls-6{letter-spacing:-0.1em;}.cls-7{letter-spacing:-0.12em;}.cls-8{letter-spacing:-0.04em;}.cls-9{letter-spacing:-0.08em;}.cls-10{letter-spacing:-0.06em;}</style></defs><title>Bildkarten_Exp3</title><path class="cls-1" d="M39.32,36.19c.87,14.34,7,158.61,7,158.61l133.61-10L164.54,24.12,40.4,34.94A1.19,1.19,0,0,0,39.32,36.19Z"/><path class="cls-2" d="M47.89,79.73C49,88.1,52.42,190.05,52.42,190.05l122.07-9.72L164.77,70.91Z"/><line class="cls-3" x1="63.72" y1="79.05" x2="70.27" y2="188.69"/><line class="cls-3" x1="80.45" y1="77.47" x2="87.23" y2="186.43"/><line class="cls-3" x1="97.63" y1="75.89" x2="104.18" y2="185.3"/><line class="cls-3" x1="114.81" y1="74.76" x2="122.27" y2="184.4"/><line class="cls-3" x1="131.31" y1="73.4" x2="139.68" y2="182.59"/><line class="cls-3" x1="147.59" y1="71.82" x2="156.86" y2="182.14"/><line class="cls-3" x1="49.16" y1="101.45" x2="166.58" y2="92.84"/><line class="cls-3" x1="49.87" y1="122.52" x2="168.25" y2="114.16"/><line class="cls-3" x1="51.78" y1="167.05" x2="172.29" y2="157.97"/><line class="cls-3" x1="51.28" y1="145.06" x2="170.79" y2="136.07"/><path class="cls-3" d="M49.16,33.82s-2.27-5.6-1.67,3c.18,2.68.42,3.76.65,4"/><path class="cls-3" d="M51.57,33.59s-2.27-5.6-1.67,3c.22,3.21.52,4.12.8,4"/><path class="cls-3" d="M58.82,33.24s-2-6.07-1.38,2.5c.18,2.68.42,3.75.65,4"/><path class="cls-3" d="M61.53,32.78s-2.28-5.84-1.68,2.73c.22,3.22.51,4.12.79,4"/><path class="cls-3" d="M68.6,32.23s-2.26-5.59-1.67,3c.19,2.68.42,3.76.66,4"/><path class="cls-3" d="M71,32s-2.26-5.6-1.67,3c.23,3.21.52,4.12.8,4"/><path class="cls-3" d="M78.24,31.33s-2.26-5.6-1.66,3c.18,2.68.42,3.75.65,4"/><path class="cls-3" d="M80.65,31.1s-2.26-5.59-1.66,3c.22,3.22.51,4.12.79,4"/><path class="cls-3" d="M87,28.26c-.07.38-.07,7.84.61,9.72"/><path class="cls-3" d="M89.41,28.26c-.07.38-.07,7.84.61,9.72"/><path class="cls-3" d="M96.72,27.13c-.07.38-.07,7.84.61,9.72"/><path class="cls-3" d="M99.14,27.13c-.08.38-.08,7.84.6,9.72"/><path class="cls-3" d="M106.14,26.45c-.07.38-.07,7.84.61,9.73"/><path class="cls-3" d="M108.55,26.45c-.07.38-.07,7.84.61,9.73"/><path class="cls-3" d="M116.09,25.55c-.08.38-.08,7.84.6,9.72"/><path class="cls-3" d="M118.5,25.55c-.07.38-.07,7.84.6,9.72"/><path class="cls-3" d="M125.43,25.1a58.82,58.82,0,0,1,.76,9.72"/><path class="cls-3" d="M128.22,24.72s.76,7.54.91,9.65"/><path class="cls-3" d="M135.08,24.57a59.59,59.59,0,0,1,.75,9.72"/><path class="cls-3" d="M137.87,24.19s.75,7.54.9,9.65"/><path class="cls-3" d="M145,23.44a59.59,59.59,0,0,1,.75,9.72"/><path class="cls-3" d="M147.81,23.06s.76,7.54.91,9.65"/><path class="cls-3" d="M154.22,24s1-7.46,1.36,8"/><path class="cls-3" d="M156.78,23.44s1.43-6.78,1.13,8.37"/><polygon class="cls-4" points="51.9 40.5 46.5 41.03 46.16 37.58 51.56 37.05 51.9 40.5"/><polygon class="cls-4" points="62.01 39.75 56.67 40.27 56.33 36.82 61.67 36.3 62.01 39.75"/><polygon class="cls-4" points="71.28 39.15 65.94 39.67 65.6 36.22 70.94 35.7 71.28 39.15"/><rect class="cls-4" x="76.08" y="35.16" width="4.53" height="3.47" transform="translate(-3.2 7.76) rotate(-5.55)"/><rect class="cls-4" x="86.25" y="34.33" width="4.53" height="3.47" transform="translate(-3.07 8.74) rotate(-5.55)"/><rect class="cls-4" x="95.52" y="33.73" width="4.53" height="3.47" transform="translate(-2.97 9.63) rotate(-5.55)"/><rect class="cls-4" x="105.39" y="32.77" width="4.63" height="3.59" transform="translate(-2.47 8.94) rotate(-4.7)"/><rect class="cls-4" x="115.18" y="31.95" width="4.63" height="3.59" transform="translate(-2.37 9.74) rotate(-4.7)"/><rect class="cls-4" x="124.9" y="31.27" width="4.63" height="3.59" transform="translate(-2.28 10.54) rotate(-4.7)"/><rect class="cls-4" x="134.63" y="30.59" width="4.63" height="3.59" transform="translate(-2.19 11.33) rotate(-4.7)"/><rect class="cls-4" x="144.5" y="29.61" width="4.63" height="3.59" transform="translate(-2.08 12.14) rotate(-4.7)"/><rect class="cls-4" x="153.92" y="28.55" width="4.63" height="3.59" transform="translate(-1.96 12.9) rotate(-4.7)"/><text class="cls-5" transform="translate(82.2 86.26)">1</text><text class="cls-5" transform="translate(99.14 85.27)">2</text><text class="cls-5" transform="translate(116.86 83.5)">3</text><text class="cls-5" transform="translate(133.35 82.28)">4</text><text class="cls-5" transform="translate(149.85 80.73)">5</text><text class="cls-5" transform="translate(83.96 108.13)">8</text><text class="cls-5" transform="translate(50.02 110.59)">6</text><text class="cls-5" transform="translate(66.73 110.1)">7</text><text class="cls-5" transform="translate(99.63 107.38)">9</text><text class="cls-5" transform="translate(117.35 105.61)"><tspan class="cls-6">1</tspan><tspan x="4.95" y="0">0</tspan></text><text class="cls-5" transform="translate(133.84 104.39)"><tspan class="cls-7">1</tspan><tspan x="4.79" y="0">1</tspan></text><text class="cls-5" transform="translate(150.34 102.84)">12</text><text class="cls-5" transform="translate(84.66 129.99)"><tspan class="cls-6">1</tspan><tspan x="4.95" y="0">5</tspan></text><text class="cls-5" transform="translate(51.99 132.21)"><tspan class="cls-8">1</tspan><tspan x="5.6" y="0">3</tspan></text><text class="cls-5" transform="translate(68.45 130.98)"><tspan class="cls-9">1</tspan><tspan x="5.17" y="0">4</tspan></text><text class="cls-5" transform="translate(52.48 155.05)">20</text><text class="cls-5" transform="translate(68.94 153.83)">21</text><text class="cls-5" transform="translate(85.64 152.11)">22</text><text class="cls-5" transform="translate(102.1 150.88)">23</text><text class="cls-5" transform="translate(121.02 149.4)">24</text><text class="cls-5" transform="translate(52.97 176.43)">27</text><text class="cls-5" transform="translate(70.17 174.95)">28</text><text class="cls-5" transform="translate(87.36 173.48)">29</text><text class="cls-5" transform="translate(104.59 172.47)">30</text><text class="cls-5" transform="translate(121.51 170.78)">31</text><text class="cls-5" transform="translate(137.48 148.18)">25</text><text class="cls-5" transform="translate(154.92 147.19)">26</text><text class="cls-5" transform="translate(101.6 129)"><tspan class="cls-9">1</tspan><tspan x="5.17" y="0">6</tspan></text><text class="cls-5" transform="translate(119.31 127.23)"><tspan class="cls-6">1</tspan><tspan x="4.95" y="0">7</tspan></text><text class="cls-5" transform="translate(135.81 126.01)"><tspan class="cls-10">1</tspan><tspan x="5.38" y="0">8</tspan></text><text class="cls-5" transform="translate(152.3 124.46)"><tspan class="cls-10">1</tspan><tspan x="5.38" y="0">9</tspan></text><polyline class="cls-3" points="48.12 194.57 48.35 197.74 183.08 186.89 166.13 25.48 164.54 25.93"/><polyline class="cls-3" points="51.06 197.06 51.28 200.22 186.02 189.37 169.06 27.96 166.13 27.51"/></svg>