<svg id="Ebene_1" data-name="Ebene 1" xmlns="http://www.w3.org/2000/svg" viewBox="0 0 30 30"><title>kalt</title><polygon points="12.5 7.6 10.7 8.1 8.7 7 10.7 5.9 12.5 6.4 13 4.8 11.7 4.5 12 3.2 10.3 2.8 9.9 4.5 7.9 5.6 7.9 3.4 9.2 2.2 8 1 7 1.9 6 1 4.8 2.2 6.1 3.4 6.1 5.6 4.1 4.5 3.7 2.8 2 3.2 2.3 4.5 1 4.8 1.5 6.4 3.3 5.9 5.3 7 3.3 8.1 1.5 7.6 1 9.2 2.3 9.5 2 10.8 3.7 11.2 4.1 9.5 6.1 8.4 6.1 10.6 4.8 11.8 6 13 7 12.1 8 13 9.2 11.8 7.9 10.6 7.9 8.4 9.9 9.5 10.3 11.2 12 10.8 11.7 9.5 13 9.2 12.5 7.6" fill="#29abe2"/><polygon points="27.3 22.2 24.6 22.4 22.1 20.2 25.2 19.1 27.6 20.3 28.7 18.1 26.9 17.2 27.8 15.5 25.5 14.4 24.4 16.8 21.3 17.9 21.9 14.7 24.1 13.1 22.7 11.1 21.1 12.2 20 10.6 17.9 12 19.5 14.2 18.8 17.4 16.4 15.3 16.2 12.6 13.7 12.8 13.8 14.7 11.9 14.9 12.1 17.3 14.7 17.2 17.2 19.3 14.1 20.4 11.7 19.2 10.6 21.4 12.4 22.3 11.5 24 13.8 25.1 15 22.7 18 21.6 17.4 24.8 15.2 26.4 16.6 28.4 18.2 27.3 19.3 28.9 21.4 27.5 19.9 25.3 20.5 22.1 23 24.2 23.2 26.9 25.6 26.7 25.5 24.8 27.4 24.6 27.3 22.2" fill="#29abe2"/></svg>