<svg id="Ebene_1" data-name="Ebene 1" xmlns="http://www.w3.org/2000/svg" viewBox="0 0 30 30"><title>kratz</title><path d="M3,16.5l.6-1.1.6-1c.5-.7.9-1.4,1.4-2a41,41,0,0,1,6.8-6.8l2-1.4,1-.6L16.5,3l-.6,1.1-.6,1c-.5.7-.9,1.4-1.4,2a37.3,37.3,0,0,1-3.2,3.6,37.3,37.3,0,0,1-3.6,3.2l-2,1.4-1,.6Z" fill="#e6231e"/><path d="M13.5,27l.6-1.1.6-1c.5-.7.9-1.4,1.4-2a41,41,0,0,1,6.8-6.8l2-1.4,1-.6,1.1-.6-.6,1.1-.6,1c-.5.7-.9,1.4-1.4,2a37.3,37.3,0,0,1-3.2,3.6,34.7,34.7,0,0,1-3.6,3.1l-2,1.5-1,.6Z" fill="#e6231e"/><path d="M3.5,25.7l1.1-1.6,1.2-1.6,1.3-1.6,1.2-1.5a72.7,72.7,0,0,1,5.4-5.7,72.7,72.7,0,0,1,5.7-5.4L21,7l.7-.6.8-.6,1.6-1.2,1.6-1.1L24.6,5.1,23.4,6.7l-.6.8-.6.8L20.9,9.8a72.7,72.7,0,0,1-5.4,5.7,72.7,72.7,0,0,1-5.7,5.4L8.3,22.2,6.7,23.4,5.1,24.6A9.1,9.1,0,0,1,3.5,25.7Z" fill="#c1272d"/></svg>