<svg id="Ebene_1" data-name="Ebene 1" xmlns="http://www.w3.org/2000/svg" viewBox="0 0 226.77 226.77"><defs><style>.cls-1,.cls-3{fill:none;}.cls-1,.cls-2,.cls-3{stroke:#1d1d1b;stroke-miterlimit:10;stroke-width:3px;}.cls-1{stroke-linecap:round;}.cls-2{fill:#fff;}</style></defs><title>Bildkarten_Exp3</title><circle class="cls-1" cx="63.16" cy="64.56" r="11.86"/><line class="cls-1" x1="53.28" y1="58.01" x2="73.05" y2="71.11"/><circle class="cls-1" cx="52.75" cy="164.51" r="11.86"/><line class="cls-1" x1="42.13" y1="169.78" x2="63.37" y2="159.24"/><circle class="cls-1" cx="132.47" cy="167.75" r="11.86"/><line class="cls-1" x1="120.62" y1="167.28" x2="144.32" y2="168.23"/><circle class="cls-1" cx="120.61" cy="72.29" r="11.86"/><line class="cls-1" x1="108.76" y1="71.81" x2="132.46" y2="72.76"/><rect class="cls-2" x="67.22" y="77.48" width="121.24" height="60.57" rx="9.71" ry="9.71" transform="translate(-26.26 42.89) rotate(-17.3)"/><line class="cls-1" x1="77.61" y1="123.41" x2="123.68" y2="109.06"/><line class="cls-1" x1="129.77" y1="107.17" x2="178.06" y2="92.13"/><circle class="cls-3" cx="82.42" cy="107.63" r="6.02"/><circle class="cls-3" cx="107.45" cy="99.84" r="6.02"/><circle class="cls-3" cx="138.49" cy="90.17" r="6.02"/><circle class="cls-3" cx="163.52" cy="82.37" r="6.02"/><circle class="cls-3" cx="90.53" cy="133.67" r="6.02"/><circle class="cls-3" cx="115.56" cy="125.88" r="6.02"/><circle class="cls-3" cx="146.6" cy="116.21" r="6.02"/><circle class="cls-3" cx="171.63" cy="108.41" r="6.02"/></svg>