<svg id="Ebene_1" data-name="Ebene 1" xmlns="http://www.w3.org/2000/svg" viewBox="0 0 30 30"><title>notok</title><path d="M1.5,16.5h8.8a26.7,26.7,0,0,1,3.1,3.6,19.3,19.3,0,0,0,3.5,3.5,6.9,6.9,0,0,1,1.3,1.1,1.6,1.6,0,0,1,.2,1c.1.6.1,1.9,1.5,1.8s2.2-.6,2.2-3.5a5.9,5.9,0,0,0-1.3-2.9,10,10,0,0,1-.8-1.4c-.7-1.1-.2-1.6-.1-1.7s.8-.4,2.3-.4h4a2,2,0,0,0,2.2-1.6,2.2,2.2,0,0,0-1.5-2.8,2.2,2.2,0,0,0,.4-1.3,2.4,2.4,0,0,0-1.2-2.1,3.3,3.3,0,0,0,.4-1.4,2.5,2.5,0,0,0-1.1-2.1A2.1,2.1,0,0,0,24,2.7H18c-2.6,0-4.9.3-5.8,1.4S2.3,5.2,1.5,5.1V6.2c1,0,10.2-.1,11.4-1.6s5.8-1,9-.9H24a1,1,0,0,1,.8.9,1,1,0,0,1-.9,1.2H20.8a.6.6,0,0,0-.5.6.5.5,0,0,0,.5.5h3.8a1,1,0,0,1,.8,1.2c0,.6-.4,1.2-.8,1.2H21.4a.5.5,0,0,0-.5.5c.1.3.3.6.6.5h3.8a1,1,0,0,1,.9,1,1.2,1.2,0,0,1-1,1.4H21.6a.5.5,0,0,0-.5.5.6.6,0,0,0,.6.6h4.6a1.2,1.2,0,0,1,1.2,1.2,1.2,1.2,0,0,1-1.3,1.2h-4c-1.6,0-2.6.2-3,.7a2.5,2.5,0,0,0-.1,3.1l.8,1.4A4.5,4.5,0,0,1,21,24c0,1.1-.2,2.4-1.2,2.4s-.3,0-.3-.8A2.8,2.8,0,0,0,19,24a8.6,8.6,0,0,0-1.4-1.3,17.2,17.2,0,0,1-3.4-3.2c0-.1-2.9-4-3.8-4H1.5"/></svg>