<svg id="Ebene_1" data-name="Ebene 1" xmlns="http://www.w3.org/2000/svg" viewBox="0 0 30 30"><title>ok1</title><path d="M14.5,1.2a1.5,1.5,0,0,0-1.5,0,1.9,1.9,0,0,0-1.1,1.3l-.2.6a1.6,1.6,0,0,0-1.2-.9,1.4,1.4,0,0,0-1.4.4,1.8,1.8,0,0,0-.6,1.3v2a2,2,0,0,0-1.1,0A2,2,0,0,0,6,7.7H6L7.5,18.4v9.8a.6.6,0,0,0,.6.5.6.6,0,0,0,.6-.5l-.2-8.6h0c-.2-2.7,1.1-3.7,1.2-3.7h0c.2-.1,4.7-3.8,6-5a.6.6,0,0,1,.7-.1h.1l4.9,1.4s.9.2.9,1a.5.5,0,0,1-.2.4,2.2,2.2,0,0,1-1.3.3l-3.8-1-.6.2-2.4,3.2a.6.6,0,0,0-.1.4c.1.3.3,1.1.6,1.9l-.4-.4a.5.5,0,0,0-.8-.2.6.6,0,0,0-.1.8,3.9,3.9,0,0,0,3.2,1.5,2.7,2.7,0,0,0,1.3-.2,2.1,2.1,0,0,0,1.4-.7,4.2,4.2,0,0,0,.9-1.3l.8-2.4a1.1,1.1,0,0,1,1.2-.4c.5.2.7.4.7.5l-.5,4.1-.9,1.8h-.1c-.2.6-1,2.1-3.9,3.8a3.7,3.7,0,0,0-1.9,1.8v1.1a.6.6,0,0,0,.6.6.6.6,0,0,0,.5-.6v-.8a3,3,0,0,1,1.3-1.1c3.1-1.8,4.2-3.5,4.5-4.4l1-1.9c0-.1.1-.1.1-.2l.5-4.3h0a1.7,1.7,0,0,0-1-1.3,1.7,1.7,0,0,0,.5-1.2,2.3,2.3,0,0,0-1.7-2.2L17,9.7a1.8,1.8,0,0,0-1.9.3l-1.1.9,1.5-6.6C15.8,3.5,15.9,1.8,14.5,1.2Zm5.4,13.9h0l-.8,2.4a2,2,0,0,1-2.8,1.1c-.5-.1-.9-1.2-1.1-2l2-2.6,2.9.7ZM9.8,3.4h.5c.5.1.7.9.7,1V5.8l-1.7,6,.3-7.9ZM7.6,7c.5-.1.7.1.8.3h0l-.3,7.3-1-7A.8.8,0,0,1,7.6,7Zm6.9-3h-.1l-1.8,8L9.7,14.4,12.1,6h0L13,2.8a1.7,1.7,0,0,1,.4-.7.7.7,0,0,1,.6.1C14.9,2.6,14.5,3.9,14.5,4Z"/></svg>