<svg id="Ebene_2" data-name="Ebene 2" xmlns="http://www.w3.org/2000/svg" viewBox="0 0 283.46 283.46"><defs><style>.cls-1{fill:#f29100;}</style></defs><title>Zeichenfläche 32</title><circle class="cls-1" cx="189.59" cy="142.38" r="4.12"/><circle class="cls-1" cx="202.79" cy="150.88" r="5.49"/><circle class="cls-1" cx="216.9" cy="160.51" r="6.86"/><circle class="cls-1" cx="234.05" cy="173.17" r="8.23"/><circle class="cls-1" cx="178.62" cy="164.86" r="4.12"/><circle class="cls-1" cx="188.47" cy="177.08" r="5.49"/><circle class="cls-1" cx="198.83" cy="190.67" r="6.86"/><circle class="cls-1" cx="211.12" cy="208.09" r="8.23"/><circle class="cls-1" cx="163.94" cy="181.21" r="4.12"/><circle class="cls-1" cx="166.18" cy="196.74" r="5.49"/><circle class="cls-1" cx="168.15" cy="213.71" r="6.86"/><circle class="cls-1" cx="169.84" cy="234.97" r="8.23"/><circle class="cls-1" cx="125.4" cy="170.33" r="4.12"/><circle class="cls-1" cx="119.24" cy="184.76" r="5.49"/><circle class="cls-1" cx="112.11" cy="200.29" r="6.86"/><circle class="cls-1" cx="102.51" cy="219.32" r="8.23"/><circle class="cls-1" cx="109.99" cy="141.74" r="4.12"/><circle class="cls-1" cx="96.88" cy="150.37" r="5.49"/><circle class="cls-1" cx="82.37" cy="159.38" r="6.86"/><circle class="cls-1" cx="63.85" cy="169.95" r="8.23"/><circle class="cls-1" cx="104.06" cy="124.08" r="4.12"/><circle class="cls-1" cx="88.47" cy="122.21" r="5.49"/><circle class="cls-1" cx="71.57" cy="119.71" r="6.86"/><circle class="cls-1" cx="50.61" cy="115.83" r="8.23"/></svg>