<svg id="Ebene_1" data-name="Ebene 1" xmlns="http://www.w3.org/2000/svg" viewBox="0 0 30 30"><title>salbe</title><line x1="27.2" y1="9.4" x2="18" y2="2.9" fill="#fff"/><ellipse cx="9.7" cy="24.7" rx="0.5" ry="1.4" transform="translate(-16.1 18.2) rotate(-54.4)" fill="#fff"/><path d="M10.3,25.2l-.7-.4L9,24.3l.7.4Z" fill="#fff"/><path d="M10.2,24.1a4.6,4.6,0,0,0-1-.5l.7-1,1.7,1.3-.6.9Z" fill="#fff"/><polygon points="27.8 8.1 27.2 8.8 18.9 2.9 19.3 2 27.8 8.1" fill="#fff"/><polygon points="26.5 9.5 14.2 22.4 10.2 19.6 18.4 3.8 26.5 9.5" fill="#fff"/><polygon points="13.4 23.1 13 23.6 9.4 21.1 9.8 20.5 13.4 23.1" fill="#fff"/><path d="M27.2,8.8l.6-.7L19.3,2l-.4.9Zm-8.8-5L10.2,19.6l3.9,2.8L26.5,9.5ZM14.1,23,9.7,19.8H9.5L19.1,1.3,28.6,8,14.2,23.1Z"/><path d="M8.7,21.2l1-1.4L14.1,23l-1,1.4-.9-.7L9.9,22Zm1.1-.7-.4.5L13,23.6l.4-.5Z"/><path d="M9.2,23.6a4.6,4.6,0,0,1,1,.5l.8.7.6-.9L9.9,22.6Zm-.2.7.6.5.7.4-.6-.5Zm.7-4.5-1,1.4,1.2.8,2.3,1.7.9.7,1-1.4h.1L28.6,8,19.1,1.3,9.5,19.8ZM8.4,21.6a.5.5,0,0,1-.2-.4.4.4,0,0,1,.1-.3l.8-1.1c-.1-.1,0-.2,0-.3L18.7,1.1,19,.8h.4l9.5,6.7c.1.1.1.3.2.4a.8.8,0,0,1-.2.4l-14.3,15-.3.2-.7,1a.5.5,0,0,1-.5.3h-.2l-.7-.5-1,1.5h0c-.2.2-.3.2-.6.2a2.4,2.4,0,0,1-1.4-.6,2.5,2.5,0,0,1-1.1-1.3h0c0-.1.1-.2.1-.3l1.1-1.5Z"/><path d="M8.2,26l-.2.4-.9,1.1A3.6,3.6,0,0,1,2,27.3a3.8,3.8,0,0,1,.7-.8,2,2,0,0,1,1.4-.4A8,8,0,0,0,8.2,26Z" fill="#fff"/><path d="M9.6,25.1c.1.2.1.4-.1.5a3.8,3.8,0,0,0-.9,1.2,3.5,3.5,0,0,1-1.1,1.3,5.2,5.2,0,0,1-3,1.1,4.1,4.1,0,0,1-3.1-1.5c-.1-.1-.3-.4.1-.9a2.7,2.7,0,0,1,2.8-1.4c2.1.6,4.8-.4,4.9-.4S9.5,25,9.6,25.1ZM8,26.4l.2-.4a8,8,0,0,1-4.1.1,2,2,0,0,0-1.4.4,3.8,3.8,0,0,0-.7.8,3.6,3.6,0,0,0,5.1.2Z"/></svg>