<svg id="Ebene_1" data-name="Ebene 1" xmlns="http://www.w3.org/2000/svg" viewBox="0 0 75 75"><title>schnupfenk</title><path d="M26.5,46s-8.2,2.7-10.8,4.8a14.9,14.9,0,0,0-5.8,8.9S8.6,67.3,7.6,75" fill="#fff" stroke="#000" stroke-miterlimit="10" stroke-width="1.05"/><polyline points="26.2 25.4 31 26 29.3 27.3" fill="none" stroke="#000" stroke-linecap="round" stroke-linejoin="round" stroke-width="1.05"/><polyline points="43 25.5 38.2 26.1 39.3 27.1" fill="none" stroke="#000" stroke-linecap="round" stroke-linejoin="round" stroke-width="1.05"/><path d="M28.2,41.9l.3.3A11.8,11.8,0,0,0,35,43.9a11.9,11.9,0,0,0,6.2-1.6,14.1,14.1,0,0,0,5-6.1,26.8,26.8,0,0,0,2-7.6,21.4,21.4,0,0,0,.3-4.2V14s.1-9.2-13.3-9.3c0,0-12.5-1.3-13.4,10.4a80,80,0,0,0-.3,9.9c0,1.2.1,2.3.2,3.4A29.2,29.2,0,0,0,23.6,36" fill="none" stroke="#000" stroke-miterlimit="10" stroke-width="1.05"/><path d="M44.5,39.2c-.4.2-.1,5.7-.1,5.7s16.1,3.1,19,14c.6,2.3,1,9.9,1.1,16" fill="none" stroke="#000" stroke-miterlimit="10" stroke-width="0.97"/><path d="M22,28.5h-.2c-.7-.3-4.9-1.7-3.6,1.8s1.9,4.7,2,4.9l.9.9" fill="none" stroke="#000" stroke-miterlimit="10" stroke-width="1.05"/><path d="M48,28.7h.2c1-.3,4.9-1.5,3.6,1.8a50.9,50.9,0,0,1-2.1,4.9c-.9,1.4-3,2.1-3.5.9" fill="none" stroke="#000" stroke-miterlimit="10" stroke-width="1.05"/><path d="M47.3,45.6c-2.1,2.5-7,5.1-10.5,5a11.2,11.2,0,0,1-8-3.3" fill="none" stroke="#000" stroke-miterlimit="10" stroke-width="1.05"/><ellipse cx="34.9" cy="37.9" rx="1.8" ry="2.7" transform="translate(-3.2 72.5) rotate(-89.5)" fill="none" stroke="#000" stroke-miterlimit="10" stroke-width="1.05"/><path d="M25.2,74.8c1.7-3.5,6.2-23.6,6.2-23.6A16.7,16.7,0,0,0,36.6,44c.8-2.9.2-4.2.2-4.2s-.8-3.6-1.6-4.2-.7-2.2-2.3-2.5-3.8,4-5.4,7.4c-.8,1.6-1.4,3-1.6,3.5s.3,4.9.1,5.7S15.4,72,14,74.8" fill="#fff" stroke="#000" stroke-miterlimit="10" stroke-width="1.05"/><path d="M45.2,75c-1.6-3.4-6.1-24-6.1-24s-3.9-3-5.2-7.1-.2-4.3-.2-4.3.8-3.5,1.6-4.1.7-2.2,2.3-2.5,3.9,4,5.4,7.3a34.7,34.7,0,0,1,1.6,3.6c.6,1.7-.2,4.8,0,5.6S55.2,72.3,56.6,75" fill="#fff" stroke="#000" stroke-miterlimit="10" stroke-width="1.05"/><path d="M29.1,11.3A21.2,21.2,0,0,1,21.6,25h0a80,80,0,0,1,.3-9.9C22.8,3.4,35.3,4.7,35.3,4.7,48.7,4.8,48.6,14,48.6,14v9.7h-.1S35.1,19.1,29.1,11.3Z" fill="none" stroke="#000" stroke-linecap="round" stroke-linejoin="round" stroke-width="1.05"/><path d="M34.3,27.4l-1.2,5.7h3.2" fill="none" stroke="#000" stroke-linecap="round" stroke-linejoin="round" stroke-width="1.05"/><path d="M30.8,34.6s-4.6,1.7-7.9,1.4-7.9,5.1-8.1,5.8,3.9,3.6,6,3.9S26,44,26,44" fill="none" stroke="#000" stroke-miterlimit="10" stroke-width="1.05"/></svg>