<svg id="Ebene_1" data-name="Ebene 1" xmlns="http://www.w3.org/2000/svg" viewBox="0 0 30 30"><title>schoppe</title><path d="M16.7,4.2a4.3,4.3,0,0,1,.1-.5,1.8,1.8,0,0,0-3.6,0,4.3,4.3,0,0,1,.1.5,2.8,2.8,0,0,0-1.5,2.5,3.2,3.2,0,0,0,6.4,0A2.8,2.8,0,0,0,16.7,4.2Z" fill="#fff" stroke="#000" stroke-miterlimit="10" stroke-width="1.05"/><rect x="9.7" y="9.7" width="10.5" height="18.29" rx="1.1" ry="1.1" fill="#fff" stroke="#000" stroke-miterlimit="10" stroke-width="1.05"/><rect x="10.3" y="7.3" width="9.5" height="2.43" rx="1.1" ry="1.1" fill="#fff" stroke="#000" stroke-miterlimit="10" stroke-width="1.05"/><line x1="9.9" y1="14.4" x2="13.7" y2="14.4" fill="#fff" stroke="#000" stroke-linecap="round" stroke-miterlimit="10" stroke-width="1.05"/><line x1="9.9" y1="18.3" x2="13.7" y2="18.3" fill="#fff" stroke="#000" stroke-linecap="round" stroke-miterlimit="10" stroke-width="1.05"/><line x1="9.9" y1="22.3" x2="13.7" y2="22.3" fill="#fff" stroke="#000" stroke-linecap="round" stroke-miterlimit="10" stroke-width="1.05"/></svg>