<svg id="Ebene_1" data-name="Ebene 1" xmlns="http://www.w3.org/2000/svg" viewBox="0 0 75 75"><title>schwindelk</title><path d="M42.8,8S31.2,5.9,29.3,16.7s-3.1,26.6,9.9,27.9S53.5,27.5,53.5,27.5l.9-9.7S55.2,9.3,42.8,8Z" fill="none" stroke="#1d1d1b" stroke-linecap="round" stroke-linejoin="round"/><path d="M9.9,74.8c.2-1.8.9-12.5.9-12.5.4-4.9,6-6.5,6-6.5l15.7-5.4.8-8" fill="none" stroke="#1d1d1b" stroke-linejoin="round"/><path d="M45.8,43.2l-.8,8,14.4,8.3s5.1,2.7,4.6,7.6a71.9,71.9,0,0,1-1.2,7.7" fill="none" stroke="#1d1d1b" stroke-linejoin="round"/><path d="M28.3,29.1s-4.7-2.4-3.7,1.2a32.4,32.4,0,0,0,1.5,4.8c.7,1.4,2.6,2.3,3.1,1.2" fill="none" stroke="#1d1d1b" stroke-linejoin="round"/><path d="M52.6,31.5s5.1-1.4,3.4,1.9a46.8,46.8,0,0,1-2.4,4.4c-1,1.2-3,1.7-3.3.5" fill="none" stroke="#1d1d1b" stroke-linejoin="round"/><path d="M53.7,25.5s-12.4-4-17.3-11.8c0,0-1.2,5.7-7.9,10.1" fill="none" stroke="#1d1d1b" stroke-linecap="round" stroke-linejoin="round"/><path d="M40.4,28.2l-1.6,4.9,2.8.3" fill="none" stroke="#1d1d1b" stroke-linecap="round" stroke-linejoin="round"/><line x1="38.7" y1="38.5" x2="40.6" y2="38.7" fill="none" stroke="#1d1d1b" stroke-linecap="round" stroke-miterlimit="10"/><path d="M46.5,52a10.7,10.7,0,0,1-8.6,3.1,10.5,10.5,0,0,1-7.1-3.9" fill="none" stroke="#1d1d1b" stroke-miterlimit="10"/><polyline points="36.8 36.7 37.7 37.4 38.7 36.9 39.5 37.6 40.5 37 41.4 37.7 42.4 37.2 43.2 37.9" fill="none" stroke="#1d1d1b" stroke-linecap="round" stroke-miterlimit="10"/><circle cx="35.6" cy="25.2" r="2.3" fill="none" stroke="#1d1d1b" stroke-miterlimit="10" stroke-width="0.69"/><circle cx="35.6" cy="25.2" r="1.3" fill="none" stroke="#1d1d1b" stroke-miterlimit="10" stroke-width="0.46"/><circle cx="35.6" cy="25.2" r="0.7" fill="none" stroke="#1d1d1b" stroke-miterlimit="10" stroke-width="0.23"/><circle cx="46.1" cy="26.2" r="2.3" fill="none" stroke="#1d1d1b" stroke-miterlimit="10" stroke-width="0.69"/><circle cx="46.1" cy="26.2" r="1.3" fill="none" stroke="#1d1d1b" stroke-miterlimit="10" stroke-width="0.46"/><circle cx="46.1" cy="26.2" r="0.7" fill="none" stroke="#1d1d1b" stroke-miterlimit="10" stroke-width="0.23"/><path d="M26.6,4.4a1.4,1.4,0,0,1,.7-.8l1-.3a12,12,0,0,1,2-.3h4a74.7,74.7,0,0,1,8,.8,72.5,72.5,0,0,1,7.8,1.7l3.8,1.3,1.9.9.8.7a1.4,1.4,0,0,1,.6,1.2,2.2,2.2,0,0,1-.9,1l-1,.3-2.1.3a17.9,17.9,0,0,1-4,.1,52.9,52.9,0,0,1-8-.9,49.5,49.5,0,0,1-7.8-2L29.6,6.9a9.5,9.5,0,0,1-1.7-1l-.8-.6A1.4,1.4,0,0,1,26.6,4.4Zm.1,0a1,1,0,0,0,.5.8l.7.6,1.8.8a27.8,27.8,0,0,0,3.8,1.2,72,72,0,0,0,7.8,1.6c2.6.4,5.3.7,7.9.9h4a12.5,12.5,0,0,0,1.9-.3l.8-.2.5-.4a1.1,1.1,0,0,0-.3-.6l-.7-.6-1.8-.9L49.9,6a50.6,50.6,0,0,0-7.7-1.8,71.4,71.4,0,0,0-7.9-1.1c-1.4,0-2.7-.1-4,0l-2,.3-.9.3A1.2,1.2,0,0,0,26.7,4.4Z"/><path d="M62.2,13c.1-.4-.2-.7-.6-1l-1-.7-2.4-.9a45.4,45.4,0,0,0-5-1.2A70.7,70.7,0,0,0,43,8.1,88.7,88.7,0,0,0,32.7,8l-5.1.6-2.4.7-1.1.5c-.3.2-.6.4-.6.7a1,1,0,0,0,.5.7l1,.6,2.4.9a43.7,43.7,0,0,0,4.9,1.2c3.4.6,6.8,1,10.2,1.3s6.8.4,10.3.3a43.8,43.8,0,0,0,5.1-.4l2.5-.6,1.1-.5A1.1,1.1,0,0,0,62.2,13Zm.1,0a1.4,1.4,0,0,1-.7,1.1l-1.2.6a10.2,10.2,0,0,1-2.5.6,29.8,29.8,0,0,1-5.1.7,72.2,72.2,0,0,1-10.4.1,88.6,88.6,0,0,1-10.2-1.2l-5.1-1.3-2.4-1-1.2-.8a1.9,1.9,0,0,1-.7-1.4c0-.7.5-1,.9-1.3l1.2-.5,2.6-.7a43.6,43.6,0,0,1,5.2-.5A70.9,70.9,0,0,1,43,7.6,89.2,89.2,0,0,1,53.2,9a28.3,28.3,0,0,1,5,1.3l2.4.9,1.1.7C62,12.2,62.4,12.6,62.3,13Z"/><path d="M54.6,3.7c-.1-.5-.6-.8-1-1l-1.3-.5a12.7,12.7,0,0,0-2.8-.6A36.8,36.8,0,0,0,43.8,1H38.1l-2.8.4-1.4.3a2.1,2.1,0,0,0-.8.5,1.4,1.4,0,0,0,.8.6l1.3.5,2.7.7,5.7.7,5.7.2h2.8l1.4-.4C53.9,4.3,54.5,4.1,54.6,3.7Zm.1,0c-.1.5-.7.7-1.1.9L52.2,5l-2.9.5a37.5,37.5,0,0,1-5.8.1,38.3,38.3,0,0,1-5.8-.7,14.7,14.7,0,0,1-2.8-.8l-1.4-.5-.7-.5a1.1,1.1,0,0,1-.4-.9.8.8,0,0,1,.6-.8l.7-.4L35.1.7l3-.3a54.2,54.2,0,0,1,5.7.1,54,54,0,0,1,5.8.9l2.7.7,1.4.5C54.1,2.9,54.6,3.1,54.7,3.7Z"/></svg>