<svg id="Ebene_1" data-name="Ebene 1" xmlns="http://www.w3.org/2000/svg" viewBox="0 0 75 75"><title>sturzk</title><path d="M20.1,26.1A7.1,7.1,0,0,1,16.6,23c-1.1-2.2-.5-7.6.9-8.5s3.3-2.7,5.3-2.5,5.8,1.8,6,3.4.3,3,.3,3l.2,1.9s.9,1.2.7,2-.3,2.8-.4,3.2-1,1.2-1.5,1.1-2.8-.1-3.7-.8-2.3,0-2.7-.1Z" fill="none" stroke="#1d1d1b" stroke-linecap="round"/><path d="M21.5,22.5a3.8,3.8,0,0,0,.8-2.1l-.2-1.8,1.3-.8.4-1.4,2.4-.8,2.4-.5" fill="none" stroke="#1d1d1b" stroke-linecap="round"/><path d="M21.5,22.6a2.7,2.7,0,0,0-.7-.8c-.5-.3-.9-.6-1.6,0s.4,2.2.9,2.3,1,.8,1.4.6a.7.7,0,0,0,.5-.6" fill="none" stroke="#1d1d1b" stroke-linecap="round"/><path d="M19.4,26.3l-.7.9-1.4.8a13.7,13.7,0,0,1-2.4,2.2,17.6,17.6,0,0,1-3.3.5c-.2,0-6-1.7-5.9-1.8a12.9,12.9,0,0,0-2.3,1.2L2,31.4" fill="none" stroke="#1d1d1b" stroke-linecap="round"/><path d="M32.7,42.1l-2.9,2.7c-.6.4-1.6,3.8-1.8,3.6a19.6,19.6,0,0,1-1.6-2.2l-.8-1.7a33.5,33.5,0,0,0-2-3.5c-.4-.2-2.8-5.7-2.8-5.7H19.1l-2.6,1.6s-7.5-.3-8.9-.5-4.5-2.2-4.9-2.1a15.2,15.2,0,0,0,2.7-1.1c.5-.5,1-1.2.5-2s-.2-2.3-.6-2.2" fill="none" stroke="#1d1d1b" stroke-linecap="round"/><path d="M30.2,23.1c.2-.2.3-.6.7-.8a6.7,6.7,0,0,0,2.1-1l1.6-2.6a11,11,0,0,1,1.8-1.6,9.8,9.8,0,0,1,1.7-.7s.9,2.4.5,2.9l-.9.9a5.6,5.6,0,0,1-.4,2.2c-.4.6-1.2,3.1-1.5,3.4s-.6,1.5-.9,2.1a12,12,0,0,0-.6,2" fill="none" stroke="#1d1d1b" stroke-linecap="round"/><path d="M33.7,25.9A4.5,4.5,0,0,1,34,28a8.4,8.4,0,0,0,1.6,4.7c.2.3,2.2,4.7,2.2,4.7" fill="none" stroke="#1d1d1b" stroke-linecap="round"/><path d="M28.3,48.4c.1.3.7,3.4,2.4,4.5a7.8,7.8,0,0,0,3.9,1.6,11.8,11.8,0,0,0,3.1-1.7,10.4,10.4,0,0,1,1-1.8,13.6,13.6,0,0,0-.2-2" fill="none" stroke="#1d1d1b" stroke-linecap="round"/><path d="M32.7,42l3.6-4.2c.3-.1,2.8-.8,3.3-.5a17.4,17.4,0,0,1,3.2,4.5c.3,1.2,1.1,6.8,1.5,8.3s.6,2.5,1.2,3.1,2.6.8,3.1,1.6a14.5,14.5,0,0,0,.8,1.4,12.2,12.2,0,0,1-2.1,1.1c-1.4.6-2.8.7-3.3,1.1s-2,1.8-2.2,1a9,9,0,0,1-.2-2.1c-.1-.3.6-1.5.6-1.5" fill="none" stroke="#1d1d1b" stroke-linecap="round"/><path d="M36,44.6a29.4,29.4,0,0,0,2.2,4.2c.6.8,1.1,2.9,1.8,3.3s.8,5,.9,5.3,1.2-1.5,1.9-2,2.9-2.1,3.8-1.9" fill="none" stroke="#1d1d1b" stroke-linecap="round"/><path d="M42.1,40.4l5.5,1.7s5,1.3,5.6,1.8a17,17,0,0,0,3.7,2.3c1.4.4,5.7,3.5,6.2,4" fill="none" stroke="#1d1d1b" stroke-linecap="round"/><path d="M60.4,50.9a9.1,9.1,0,0,1,3.2-.6l1.7.4A2.7,2.7,0,0,0,64,52.4c-.6,1.3-1.8,2.9-2,4.3a20.6,20.6,0,0,0-.2,2.6L58.1,56a27.7,27.7,0,0,1-2.9-1.5c-.4-.3-3.7-1-4.1-1.4s-4.3-.8-4.6-1.1-1.5-1.4-1.4-1.5-.5-.6-.5-.6" fill="none" stroke="#1d1d1b" stroke-linecap="round" stroke-linejoin="round"/><path d="M64.5,51.5a3,3,0,0,0,2.1.2c.9-.2,1.4-1.3,2.4-.9a9,9,0,0,1,1.7.7,3.6,3.6,0,0,0-2,.6A16.1,16.1,0,0,0,66.3,55a7.4,7.4,0,0,1-1.9,2.1c-.8.6-1.7.7-2.1,1.9s.2,1.5.8,1.3,3.2-1.4,3.4-1.9,2.7-2.5,3.2-2.9a8.6,8.6,0,0,0,1.6-1.8c.3-.6,1-1.6-.6-2.3" fill="none" stroke="#1d1d1b" stroke-linecap="round"/><path d="M1.9,31.5c0,.2-.7,1.3,0,2s.8.6,1.4.4" fill="none" stroke="#1d1d1b" stroke-linecap="round"/><path d="M38.4,16.6s1.2.7,1.1,1.2.2.9-.1.8-.7-.7-.7-.7" fill="none" stroke="#1d1d1b" stroke-linecap="round"/><line x1="3.2" y1="32.2" x2="4.1" y2="33.7" fill="none" stroke="#1d1d1b" stroke-linecap="round"/><line x1="4.5" y1="31.3" x2="5.2" y2="33.2" fill="none" stroke="#1d1d1b" stroke-linecap="round"/><path d="M6.7,40.3a26.8,26.8,0,0,0,3.6,16.2c.5.8,2.6,0,2-.9A25.2,25.2,0,0,1,8.9,40.2c.1-1.1-2.1-.8-2.2.1Z" fill="#1d1d1b"/><path d="M12,38.6c-.3,6,2.7,11.2,7.2,14.9.4.4,2.4-.4,2-.8-4.4-3.6-7.3-8.8-7-14.7,0-.4-2.1-.1-2.2.6Z" fill="#1d1d1b"/><path d="M17,42a15.1,15.1,0,0,0,1.5,2.8c.5.7,2.6-.1,2-.9a8.5,8.5,0,0,1-1.3-2.5c-.3-.9-2.5-.3-2.2.6Z" fill="#1d1d1b"/></svg>