<svg id="Ebene_1" data-name="Ebene 1" xmlns="http://www.w3.org/2000/svg" viewBox="0 0 30 30"><title>tabletten</title><rect x="13.9" y="5.4" width="5" height="2.34" rx="1" ry="1" transform="translate(20.9 23.7) rotate(-126.8)"/><path d="M15.5,7l-.7-1a.8.8,0,0,1,.1-1.1l.2-.2a.8.8,0,0,1,1.2.2l.7,1" fill="#fff"/><path d="M14.8,4.7l.2-.2a1,1,0,0,1,1.3.3l.8,1.1-.3.3L16,5.1a.5.5,0,0,0-.7-.2l-.2.2c-.2.1-.2.4-.1.7l.9,1.1-.4.2L14.7,6A.9.9,0,0,1,14.8,4.7Z"/><rect x="19.1" y="24.3" width="5" height="2.34" rx="1" ry="1" transform="translate(-9.5 37.6) rotate(-71.1)"/><path d="M20.8,24.9l.4-1.2a.7.7,0,0,1,1-.4h.3a.8.8,0,0,1,.4,1.1l-.4,1.1" fill="#fff"/><path d="M22.3,23h.2a1,1,0,0,1,.5,1.3l-.4,1.3-.4-.2.4-1.3a.5.5,0,0,0-.2-.6h-.3c-.2-.1-.5.1-.6.4l-.4,1.3-.4-.2.4-1.3A1.1,1.1,0,0,1,22.3,23Z"/><rect x="9.3" y="25.1" width="5" height="2.34" rx="1" ry="1" transform="translate(32 47) rotate(159.9)"/><path d="M12,27.3l-1.2.4a.8.8,0,0,1-1-.5V27a.8.8,0,0,1,.4-1.1l1.2-.4" fill="#fff"/><path d="M9.5,27.3v-.2a1.1,1.1,0,0,1,.7-1.2l1.3-.5.2.4-1.3.5c-.3.1-.5.4-.4.6v.2a.6.6,0,0,0,.7.3l1.3-.5v.4l-1.3.5A1.2,1.2,0,0,1,9.5,27.3Z"/><rect x="20.5" y="2.6" width="5" height="2.34" rx="1" ry="1" transform="translate(41.8 17.5) rotate(-153.2)"/><path d="M22.3,4.5l-1.1-.6a.7.7,0,0,1-.3-1V2.6a.8.8,0,0,1,1.1-.3l1.1.5" fill="#fff"/><path d="M20.7,2.7V2.5a1,1,0,0,1,1.3-.3l1.2.6-.2.4-1.2-.6c-.2-.1-.6-.1-.7.2V3a.4.4,0,0,0,.3.6l1.2.6-.2.4L21.2,4A1,1,0,0,1,20.7,2.7Z"/><rect x="4" y="8.5" width="22" height="13" rx="2.2" ry="2.2" transform="translate(-2.6 3.1) rotate(-11)" fill="#fff" stroke="#000" stroke-miterlimit="10" stroke-width="0.92"/><rect x="5.1" y="12.5" width="4" height="1.86" rx="0.8" ry="0.8" transform="translate(19 3.9) rotate(79)"/><line x1="6.1" y1="13.6" x2="8.1" y2="13.3" fill="none" stroke="#fff" stroke-miterlimit="10" stroke-width="0.51"/><rect x="6.3" y="18.4" width="4" height="1.86" rx="0.8" ry="0.8" transform="translate(25.6 7.5) rotate(79)"/><line x1="7.3" y1="19.5" x2="9.2" y2="19.1" fill="none" stroke="#fff" stroke-miterlimit="10" stroke-width="0.51"/><rect x="8.8" y="11.8" width="4" height="1.86" rx="0.8" ry="0.8" transform="translate(21.2 -0.3) rotate(79)"/><line x1="9.8" y1="12.9" x2="11.8" y2="12.5" fill="none" stroke="#fff" stroke-miterlimit="10" stroke-width="0.51"/><rect x="9.9" y="17.7" width="4" height="1.86" rx="0.8" ry="0.8" transform="translate(27.9 3.3) rotate(79)"/><line x1="10.9" y1="18.8" x2="12.9" y2="18.4" fill="none" stroke="#fff" stroke-miterlimit="10" stroke-width="0.51"/><rect x="12.4" y="11.1" width="4" height="1.86" rx="0.8" ry="0.8" transform="translate(23.5 -4.4) rotate(79)"/><line x1="13.4" y1="12.2" x2="15.4" y2="11.8" fill="none" stroke="#fff" stroke-miterlimit="10" stroke-width="0.51"/><rect x="13.6" y="16.9" width="4" height="1.86" rx="0.8" ry="0.8" transform="translate(30.1 -0.8) rotate(79)"/><line x1="14.6" y1="18.1" x2="16.6" y2="17.7" fill="none" stroke="#fff" stroke-miterlimit="10" stroke-width="0.51"/><rect x="16.1" y="10.4" width="4" height="1.86" rx="0.8" ry="0.8" transform="translate(25.7 -8.6) rotate(79)"/><line x1="17.1" y1="11.5" x2="19.1" y2="11.1" fill="none" stroke="#fff" stroke-miterlimit="10" stroke-width="0.51"/><rect x="17.2" y="16.2" width="4" height="1.86" rx="0.8" ry="0.8" transform="translate(32.4 -5) rotate(79)"/><line x1="18.2" y1="17.4" x2="20.2" y2="17" fill="none" stroke="#fff" stroke-miterlimit="10" stroke-width="0.51"/><rect x="19.7" y="9.7" width="4" height="1.86" rx="0.8" ry="0.8" transform="matrix(0.19, 0.98, -0.98, 0.19, 28, -12.77)"/><line x1="20.8" y1="10.8" x2="22.7" y2="10.4" fill="none" stroke="#fff" stroke-miterlimit="10" stroke-width="0.51"/><rect x="20.9" y="15.5" width="4" height="1.86" rx="0.8" ry="0.8" transform="translate(34.7 -9.2) rotate(79)"/><line x1="21.9" y1="16.6" x2="23.9" y2="16.3" fill="none" stroke="#fff" stroke-miterlimit="10" stroke-width="0.51"/><line x1="6.1" y1="16.7" x2="23.5" y2="13.3" fill="none" stroke="#000" stroke-linecap="round" stroke-miterlimit="10" stroke-width="0.5"/><rect x="4.2" y="3.6" width="5" height="2.34" rx="1" ry="1" transform="translate(14.6 2.7) rotate(129.8)"/><path d="M7.3,5.5l-.8,1a.8.8,0,0,1-1.1.1l-.3-.2A.9.9,0,0,1,5,5.3l.8-1" fill="#fff"/><path d="M5.2,6.8,5,6.6A1,1,0,0,1,5,5.2l.9-1,.3.3-.9,1c-.2.2-.2.6,0,.7l.2.2a.6.6,0,0,0,.7-.1l.9-1.1.3.3-.9,1A.9.9,0,0,1,5.2,6.8Z"/></svg>