<svg id="Ebene_1" data-name="Ebene 1" xmlns="http://www.w3.org/2000/svg" viewBox="0 0 226.77 226.77"><defs><style>.cls-1{fill:none;}.cls-1,.cls-2{stroke:#1d1d1b;stroke-linecap:round;stroke-linejoin:round;stroke-width:3.87px;}.cls-2{fill:#fff;}.cls-3{fill:#1d1d1b;}</style></defs><title>Zeichenfläche 7 Kopie 2</title><rect class="cls-1" x="67.48" y="49.45" width="115.33" height="159.33"/><rect class="cls-2" x="60.81" y="42.12" width="115.33" height="159.33"/><rect class="cls-2" x="52.81" y="34.12" width="115.33" height="159.33"/><line class="cls-1" x1="66.41" y1="53.42" x2="66.41" y2="18.64"/><line class="cls-1" x1="149.24" y1="54.08" x2="149.24" y2="19.31"/><path class="cls-3" d="M93.54,63.2V74.56H91.32V67.5h0l-2.77,4.9H87.06l-2.77-4.9h0v7.06H82V63.2h2.27l3.49,6.46h0l3.48-6.46Z"/><path class="cls-3" d="M95.43,70.66a4.15,4.15,0,1,1,4.14,4A3.91,3.91,0,0,1,95.43,70.66Zm6.17,0a2,2,0,1,0-4.06,0,2,2,0,1,0,4.06,0Z"/><path class="cls-3" d="M112.88,69.92v4.64h-2.09V70.45c0-1.49-.53-2-1.51-2s-1.77.74-1.77,2.13v3.94h-2.1V66.75h2.1v1h0A3.22,3.22,0,0,1,110,66.62C111.72,66.62,112.88,67.52,112.88,69.92Z"/><path class="cls-3" d="M115.09,72.1V68.48h-.93V66.75h.93V64.19l2.08-.23v2.79h2.13v1.73h-2.13v3.33c0,.67.21,1,.69,1a2.55,2.55,0,0,0,1-.27l.54,1.68a3.89,3.89,0,0,1-2.08.48C116,74.69,115.09,73.86,115.09,72.1Z"/><path class="cls-3" d="M128.18,66.75v7.81h-2v-.94h0a2.82,2.82,0,0,1-2.34,1.07,3.71,3.71,0,0,1-3.73-4,3.76,3.76,0,0,1,3.68-4,2.88,2.88,0,0,1,2.29,1h0v-.88Zm-2,3.94a2,2,0,1,0-4,0,2,2,0,0,0,2,2.13A2,2,0,0,0,126.18,70.69Z"/><path class="cls-3" d="M137.86,66.75v6.91c0,2.44-1.07,4.2-4.07,4.2a6.39,6.39,0,0,1-3.21-.79l.49-1.77a5,5,0,0,0,2.53.73c1.47,0,2.23-.78,2.23-1.74V73.5h-.05a3,3,0,0,1-2.27.92,3.91,3.91,0,0,1-.12-7.8,3.27,3.27,0,0,1,2.34.93h.05v-.8Zm-2,3.75a2,2,0,1,0-4,0,2,2,0,1,0,4,0Z"/><path class="cls-3" d="M99.68,168.29H95.32l-.77,2.27H92.19L96.4,159.2h2.16l4.25,11.36h-2.36ZM99,166.37l-1.52-4.47h0L96,166.37Z"/><path class="cls-3" d="M112.29,166.67a3.71,3.71,0,0,1-3.74,4,2.92,2.92,0,0,1-2.31-1h0v4h-2.1v-11h2.1v.9h0a3,3,0,0,1,2.37-1A3.76,3.76,0,0,1,112.29,166.67Zm-2.13,0a2,2,0,0,0-2-2.2,2.05,2.05,0,0,0-2,2.2,2,2,0,0,0,2,2.13A2,2,0,0,0,110.16,166.69Z"/><path class="cls-3" d="M118.63,162.64v2.27h-.55a1.89,1.89,0,0,0-2,2v3.63H114v-7.81h2.09v1.15h0a2.88,2.88,0,0,1,2.37-1.28A.37.37,0,0,1,118.63,162.64Z"/><path class="cls-3" d="M119.84,160.36a1.31,1.31,0,1,1,1.3,1.29A1.3,1.3,0,0,1,119.84,160.36Zm.24,2.39h2.1v7.81h-2.1Z"/><path class="cls-3" d="M124.48,158.78h2.1v11.78h-2.1Z"/><path class="cls-3" d="M118,131.5v7.44H91.12L91,133.6,103.84,120c3.3-3.54,5.52-6.35,5.52-9.65a5.37,5.37,0,0,0-5.52-5.58c-2.88,0-5.34,1.44-7.14,4.43l-5.88-4.19c2.4-4.38,6.78-7.8,13.68-7.8s13.08,4.56,13.08,12.23c0,4.68-1.5,8.34-6.84,13.86l-7.8,8v.12Z"/><path class="cls-3" d="M123.88,134.68a4.86,4.86,0,1,1,4.86,4.74A4.78,4.78,0,0,1,123.88,134.68Z"/><line class="cls-1" x1="83.22" y1="43.91" x2="135.3" y2="43.91"/></svg>