<svg id="Ebene_1" data-name="Ebene 1" xmlns="http://www.w3.org/2000/svg" viewBox="0 0 226.77 226.77"><defs><style>.cls-1,.cls-3{fill:none;}.cls-2{fill:#1d1d1b;}.cls-3{stroke:#1d1d1b;stroke-miterlimit:10;stroke-width:2px;}</style></defs><title>Zeichenfläche 48</title><g id="_Gruppe_" data-name="&lt;Gruppe&gt;"><path class="cls-1" d="M95.25,48.07c-.08.88-2.09,21.58-18.75,35h0A218.24,218.24,0,0,1,77,57.92c2.12-29.7,34-26.87,34-26.87,33.93,0,34,23.33,34,23.33l0,24.69h-.25S110.57,67.75,95.25,48.07Z"/><path class="cls-2" d="M111,131.71a32.13,32.13,0,0,1-17-4.39c-5.55-3.38-9.89-8.75-12.91-16a73.29,73.29,0,0,1-4.78-19.58c-.32-2.84-.56-5.76-.69-8.65a216.23,216.23,0,0,1,.52-25.27c.62-8.66,3.78-15.48,9.38-20.26,10.28-8.74,25-7.55,25.6-7.49h0c34.4,0,34.82,24,34.82,24.28l0,26.47a79.59,79.59,0,0,1-.66,10.87,69.44,69.44,0,0,1-5.09,19.59c-3.14,7.21-7.5,12.6-13,16A29.87,29.87,0,0,1,111,131.71Zm-2.08-99.77c-4.37,0-14.72.73-22.21,7.12C81.47,43.49,78.54,49.86,78,58a212.4,212.4,0,0,0-.52,25c.13,2.85.36,5.72.68,8.52a71.24,71.24,0,0,0,4.64,19.06c2.86,6.84,6.95,11.91,12.14,15.08a30.33,30.33,0,0,0,16,4.11,28,28,0,0,0,15.17-4.1c5.12-3.21,9.23-8.31,12.22-15.16a67.4,67.4,0,0,0,4.94-19.05,74.36,74.36,0,0,0,.64-10.61l0-26.5c0-.91-.47-22.37-33-22.37C110.9,32,110.14,31.94,108.87,31.94Z"/><path class="cls-2" d="M189,198.35H37.73l0-1c.18-6.8.33-11.14.33-11.14-.33-20.31,15.29-24.52,15.45-24.56l36.1-12.12,3.82-1.76V126.51h1.91V149l-5,2.3L54.07,163.51c-.65.17-14.39,3.93-14.08,22.73,0,0-.14,4-.3,10.19H187.1c0-3.53-.06-9.68,0-11.51.16-9.92-5-17.58-15.42-22.75l-.51-.25c-.59-.3-6.25-2.14-37.39-11l-8.32-2.38,0-.69c-.77-21.22.17-21.78.73-22.12l1,1.64a.73.73,0,0,0,.28-.29c-.47,1.14-.42,10.94-.11,20l7,2c36,10.29,37.31,11,37.74,11.18l.48.24C183.61,166,189.16,174.23,189,185c0,1.83,0,8.93,0,12.41Z"/><path class="cls-2" d="M79.49,113.48c-2.46,0-5.47-1.85-7.07-4.41-.59-1-2.08-3.86-5.4-12.56-1-2.66-.92-4.63.29-5.85,2.34-2.39,7.91-.73,10.19.1l.3.11-.61,1.81-.34-.12c-3.1-1.12-7-1.78-8.18-.56-.79.8-.36,2.53.14,3.83,3.39,8.87,4.79,11.51,5.24,12.24,1.44,2.3,4.14,3.67,5.73,3.49a1.3,1.3,0,0,0,1.2-.9l1.8.64a3.18,3.18,0,0,1-2.8,2.16A3.93,3.93,0,0,1,79.49,113.48Z"/><path class="cls-2" d="M141.73,113.48a3.85,3.85,0,0,1-.48,0,3.2,3.2,0,0,1-2.82-2.16l1.8-.65a1.31,1.31,0,0,0,1.22.91c1.61.17,4.28-1.2,5.72-3.5.45-.73,1.86-3.4,5.23-12.23.5-1.3.93-3,.14-3.83-1.17-1.2-4.86-.61-8,.5l-.49.16-.7-1.77s.22-.09.6-.2c2.19-.79,7.64-2.39,9.95,0,1.2,1.23,1.29,3.2.28,5.85-3.31,8.66-4.8,11.59-5.39,12.56C147.19,111.63,144.18,113.48,141.73,113.48Z"/><path class="cls-2" d="M77.1,83.82l-1.2-1.49C92.28,69.13,94.22,48.85,94.3,48l1.9.08C96.12,49,94.11,70.11,77.1,83.82Z"/><path class="cls-2" d="M144.33,80c-1.4-.46-34.52-11.64-49.84-31.32L96,47.48c15,19.23,48.6,30.58,48.93,30.69Z"/></g><polyline class="cls-3" points="109.44 86.13 106.49 99.87 114.11 99.87"/><path class="cls-3" d="M120,113.48s-5.17-2.57-8.3-2.57-9.79,2.57-9.79,2.57"/><path class="cls-3" d="M132.82,149a28.74,28.74,0,0,1-42.53,2.1"/><circle class="cls-2" cx="96.2" cy="83.66" r="2.83"/><circle class="cls-2" cx="122.88" cy="83.66" r="2.83"/></svg>