<svg id="Ebene_1" data-name="Ebene 1" xmlns="http://www.w3.org/2000/svg" viewBox="0 0 30 30"><title>uhrdigital</title><rect x="5.1" y="17.6" width="4.5" height="4.49" rx="0.5" ry="0.5" fill="#fff"/><rect x="20.4" y="17.6" width="4.5" height="4.49" rx="0.5" ry="0.5" fill="#fff"/><rect x="2" y="7.9" width="26" height="12" rx="1.9" ry="1.9" fill="#fff"/><path d="M26.1,7.4H3.9A2.4,2.4,0,0,0,1.5,9.8V18a2.4,2.4,0,0,0,2.4,2.4h.8v1.2a.9.9,0,0,0,.9.9H9.1a.9.9,0,0,0,.9-.9V20.4H20v1.2a.9.9,0,0,0,.9.9h3.5a.9.9,0,0,0,.9-.9V20.4h.8A2.4,2.4,0,0,0,28.5,18V9.8A2.4,2.4,0,0,0,26.1,7.4ZM9.2,21.6H5.5V20.4H9.2Zm15.3,0H20.8V20.4h3.7Zm3-3.6a1.4,1.4,0,0,1-1.4,1.4H3.9A1.4,1.4,0,0,1,2.5,18V9.8A1.4,1.4,0,0,1,3.9,8.4H26.1a1.4,1.4,0,0,1,1.4,1.4Z"/><path d="M8.3,12.1v3.7C8.3,17,8,18,6.4,18s-1.7-1-1.7-2.2V12.2c0-1.4.5-2.2,1.8-2.2S8.3,10.8,8.3,12.1ZM5.9,12v4q0,.9.6.9c.4,0,.6-.4.6-1V12q0-.9-.6-.9T5.9,12Z"/><path d="M9,16v-.7a1.7,1.7,0,0,1,.8-1.6c-.4-.2-.7-.6-.7-1.5v-.3A1.7,1.7,0,0,1,10.9,10c1,0,1.7.5,1.7,1.9v.3c0,1-.3,1.3-.6,1.5a1.7,1.7,0,0,1,.7,1.6v.6c0,1.6-.7,2.1-1.8,2.1S9,17.6,9,16Zm2.5.1v-1c0-.6-.2-.8-.6-.8s-.6.2-.6.8v1c0,.5.1.8.6.8S11.5,16.7,11.5,16.1Zm-1.2-4.3v.6c0,.5.2.8.6.8s.6-.2.6-.8v-.6c0-.4-.2-.7-.6-.7S10.3,11.4,10.3,11.8Z"/><path d="M14.3,13.8V12h1.2v1.8Zm0,4.1V16.1h1.2v1.8Z"/><path d="M20.9,12.1v3.7c0,1.2-.3,2.2-1.9,2.2s-1.7-1-1.7-2.2V12.2c0-1.4.5-2.2,1.8-2.2S20.9,10.8,20.9,12.1ZM18.5,12v4q0,.9.6.9c.4,0,.6-.4.6-1V12q0-.9-.6-.9T18.5,12Z"/><path d="M25.3,12.1v3.7c0,1.2-.3,2.2-1.8,2.2s-1.8-1-1.8-2.2V12.2c0-1.4.6-2.2,1.8-2.2S25.3,10.8,25.3,12.1ZM22.9,12v4q0,.9.6.9c.4,0,.6-.4.6-1V12q0-.9-.6-.9T22.9,12Z"/></svg>