<svg id="Ebene_1" data-name="Ebene 1" xmlns="http://www.w3.org/2000/svg" xmlns:xlink="http://www.w3.org/1999/xlink" viewBox="0 0 75 75"><defs><clipPath id="clip-path"><rect x="28.5" width="46.5" height="22.96" transform="translate(103.6 23) rotate(180)" fill="none"/></clipPath></defs><title>fieberk</title><path d="M36.8,4.5S24.1,3.4,23.3,15.2s-.6,28.9,13.5,28.9S50.3,24.3,50.3,24.3V13.8S50.3,4.5,36.8,4.5Z" fill="none" stroke="#000" stroke-linecap="round" stroke-linejoin="round"/><path d="M8,74.7c.1-1.9.2-8.5.2-8.5,0-5.3,5.7-7.7,5.7-7.7l16.3-7.4V42.4" fill="none" stroke="#000" stroke-linecap="round" stroke-linejoin="round"/><path d="M43.8,42v8.7l16.3,7.4s5.7,2.3,5.7,7.6c0,0,.1,6.6.2,9.1" fill="none" stroke="#000" stroke-linecap="round" stroke-linejoin="round"/><path d="M23.5,28.6s-5.3-2-3.8,1.8a30.3,30.3,0,0,0,2.1,4.9c.9,1.4,3,2.2,3.4,1" fill="none" stroke="#000" stroke-linejoin="round"/><path d="M49.9,28.6s5.2-2,3.8,1.8a50.9,50.9,0,0,1-2.1,4.9c-.9,1.4-3,2.2-3.5,1" fill="none" stroke="#000" stroke-linejoin="round"/><path d="M50.2,23.6S36.6,19.1,30.6,11.3a21.9,21.9,0,0,1-7.5,13.9" fill="none" stroke="#1d1d1b" stroke-linecap="round" stroke-linejoin="round"/><path d="M36.3,26.4l-1.1,5.5h3" fill="none" stroke="#000" stroke-linecap="round" stroke-linejoin="round"/><line x1="35.7" y1="37.7" x2="37.7" y2="37.7" fill="none" stroke="#1d1d1b" stroke-linecap="round" stroke-miterlimit="10" stroke-width="0.89"/><line x1="40.7" y1="24.5" x2="43.7" y2="24.5" fill="none" stroke="#1d1d1b" stroke-linecap="round" stroke-miterlimit="10" stroke-width="1.09"/><line x1="30.3" y1="24.5" x2="33.3" y2="24.5" fill="none" stroke="#1d1d1b" stroke-linecap="round" stroke-miterlimit="10" stroke-width="1.09"/><path d="M45.4,51.4a11.5,11.5,0,0,1-16.9.8" fill="none" stroke="#000" stroke-miterlimit="10"/><circle cx="30.8" cy="15.8" r="5.1" fill="#e20613" fill-opacity="0.8"/><circle cx="30.8" cy="15.8" r="7.6" fill="#e20613" fill-opacity="0.6"/><circle cx="30.8" cy="15.8" r="10.4" fill="#e20613" fill-opacity="0.4"/><circle cx="30.8" cy="15.8" r="13.2" fill="#e20613" fill-opacity="0.2"/><g clip-path="url(#clip-path)"><path d="M53.5,12.3,37.3,21.9a1.9,1.9,0,0,1-2.4-.6h0a1.8,1.8,0,0,1,.6-2.4L50.4,10" fill="#fff" stroke="#000" stroke-linecap="round" stroke-linejoin="round" stroke-width="1.26"/><path d="M49.8,14.5l1.4-.9" fill="#fff" stroke="#000" stroke-linecap="round" stroke-linejoin="round" stroke-width="1.38"/><path d="M47,8,33.7,15.9a1.7,1.7,0,0,1-2.3-.6h0A1.6,1.6,0,0,1,32,13L44.3,5.6" fill="#fff" stroke="#000" stroke-linecap="round" stroke-linejoin="round" stroke-width="1.26"/><path d="M44.5,5.5l-8.9,5.3a1.4,1.4,0,0,1-2-.7h0A1.5,1.5,0,0,1,33.9,8L47,.2s5.6-3.4,7.9-3a8.1,8.1,0,0,0,6.2-1.3c11-7.7,30.8-20.5,30.8-19.9l5.7,7.6S62.5,5.3,61.8,8.8a8,8,0,0,1-3,5.1L46.6,21.1a1.8,1.8,0,0,1-2.6-.6l-.2-.3a1.9,1.9,0,0,1,.7-2.6l7.1-4.2" fill="#fff" stroke="#000" stroke-linecap="round" stroke-linejoin="round" stroke-width="1.22"/><path d="M45.8,12.8,33.3,20.2a1.8,1.8,0,0,1-2.4-.6h0a1.9,1.9,0,0,1,.6-2.4L44,9.8" fill="#fff" stroke="#000" stroke-linecap="round" stroke-linejoin="round" stroke-width="1.26"/></g><path d="M57.9,45.1l1.6.9a1.6,1.6,0,0,1,.7,2l-.5.9a1.6,1.6,0,0,1-2.1.7L56,48.7" fill="#fff"/><path d="M57.9,45.2l-7.9-4a48.9,48.9,0,0,0-6-2.1c-1-.2-6.1-2.5-6.1-2.5a1.4,1.4,0,0,1-.4.8s4.2,2.4,5.9,3.6l3.2,2.7c.1.2,9.4,5,9.4,5s.4,0,.5-.2l1.5-3A.2.2,0,0,0,57.9,45.2Z" fill="#fff"/><path d="M37.6,37.4l-1.1-.6h-.1a.3.3,0,0,1,0-.5.3.3,0,0,1,.5-.1h0" fill="#fff"/><path d="M59.9,49.1l.5-1a1.4,1.4,0,0,0,.1-1.4,1.8,1.8,0,0,0-.9-1l-1.5-.8H58l-7.8-4a35.6,35.6,0,0,0-6.1-2c-.8-.2-4.3-1.8-6-2.6H38l-1.1-.5h0a.6.6,0,0,0-.7.1.8.8,0,0,0-.2.9c.1,0,.1.1.2.2l.8.5h0l.4.2h0c.3.1,4.2,2.4,5.8,3.5l3.2,2.7c.1.2,5.2,2.9,9.5,5.1H56l1.5.8a1.7,1.7,0,0,0,1.4.1A1.6,1.6,0,0,0,59.9,49.1ZM36.7,36.6h-.1c-.1,0-.1-.1,0-.1s.1-.1.1,0h0l.9.4a.3.3,0,0,0-.1.2Zm10.1,6.9-3.2-2.7c-1.5-1.1-4.6-2.9-5.6-3.5s.1-.2.1-.3,5,2.2,5.9,2.4a48.1,48.1,0,0,1,5.9,2.1l7.8,3.9-1.5,2.9c0,.1,0,.1-.1.1h0Zm11.9,5.9a1.4,1.4,0,0,1-.9-.1l-1.1-.6h0a27,27,0,0,0,1.5-2.9l1.1.5a1.6,1.6,0,0,1,.7.7.9.9,0,0,1-.1.9l-.5,1A1.1,1.1,0,0,1,58.7,49.4Z"/><path d="M48.9,44v-.2l.9-1.7c.1-.1.2-.2.3-.1L55,44.5c.1,0,.1.2.1.2l-.9,1.8h-.3L49,44.1A.1.1,0,0,0,48.9,44Zm1.2-1.6-.7,1.4,4.5,2.4.7-1.5Z"/><circle cx="55.9" cy="46.3" r="0.9" fill="#fff"/><path d="M54.9,46.8h0a1.1,1.1,0,0,1,0-.8c.1-.2.2-.5.5-.6a1.1,1.1,0,0,1,1.4.5,1,1,0,0,1-.5,1.4,1.1,1.1,0,0,1-.8.1Zm1.6-.8a.6.6,0,0,0-.9-.3c-.2,0-.3.2-.4.4a1.1,1.1,0,0,0,.1.5c0,.1.2.2.3.3a.6.6,0,0,0,.6,0,.8.8,0,0,0,.3-.9Z"/><line x1="33.4" y1="36.2" x2="40.4" y2="36.2" fill="none" stroke="#1d1d1b" stroke-linecap="round" stroke-miterlimit="10" stroke-width="0.99"/></svg>