<svg id="Ebene_1" data-name="Ebene 1" xmlns="http://www.w3.org/2000/svg" viewBox="0 0 226.77 226.77"><defs><style>.cls-1,.cls-3,.cls-4{fill:none;}.cls-2{fill:#1d1d1b;}.cls-3{stroke:#1d1d1b;stroke-width:2px;}.cls-3,.cls-4,.cls-5,.cls-6{stroke-miterlimit:10;}.cls-4{stroke:#e30613;stroke-width:3px;}.cls-5{fill:#fff;}.cls-5,.cls-6{stroke:#fff;stroke-width:0.75px;}.cls-6{fill:#010101;}</style></defs><title>Bildkarten_Exp3</title><g id="_Gruppe_" data-name="&lt;Gruppe&gt;"><path class="cls-1" d="M94.28,43.92c-.08.88-2.08,21.57-18.74,35h0A218.26,218.26,0,0,1,76,53.77c2.13-29.7,34-26.87,34-26.87,33.93,0,34,23.33,34,23.33l0,24.69h-.25S109.6,63.6,94.28,43.92Z"/><path class="cls-2" d="M110,127.56a32.22,32.22,0,0,1-17-4.39c-5.54-3.38-9.89-8.76-12.91-16a73.23,73.23,0,0,1-4.77-19.57c-.33-2.85-.56-5.76-.7-8.66a216.1,216.1,0,0,1,.52-25.26c.62-8.67,3.78-15.48,9.39-20.26,10.27-8.75,25-7.55,25.6-7.5h0c34.39,0,34.81,24.05,34.81,24.29l0,26.47a77.75,77.75,0,0,1-.66,10.87,69.28,69.28,0,0,1-5.08,19.58c-3.15,7.22-7.51,12.6-13,16A29.87,29.87,0,0,1,110,127.56Zm-2.07-99.77c-4.37,0-14.72.73-22.21,7.12-5.2,4.43-8.13,10.8-8.71,18.93a212.27,212.27,0,0,0-.52,25c.14,2.86.36,5.73.69,8.53a71.46,71.46,0,0,0,4.63,19c2.87,6.85,6.95,11.92,12.15,15.09a30.37,30.37,0,0,0,16,4.11,28,28,0,0,0,15.18-4.1c5.11-3.21,9.22-8.31,12.22-15.17a67.65,67.65,0,0,0,4.93-19,77.25,77.25,0,0,0,.65-10.6l0-26.5c0-.91-.48-22.38-33-22.38C109.93,27.85,109.17,27.79,107.91,27.79Z"/><path class="cls-2" d="M188.07,194.19H36.76l0-1c.17-6.79.32-11.14.32-11.14-.33-20.3,15.3-24.51,15.45-24.55l36.1-12.13,3.82-1.75V122.36h1.91v22.51l-5,2.3L53.1,159.35c-.65.17-14.38,3.94-14.07,22.74,0,0-.14,4-.31,10.19H186.13c0-3.53-.06-9.68,0-11.51.17-9.92-5-17.58-15.42-22.75l-.51-.25c-.59-.31-6.25-2.14-37.39-11.05l-8.31-2.37,0-.69c-.76-21.22.17-21.79.73-22.12l1,1.63a.67.67,0,0,0,.28-.29c-.47,1.15-.42,11-.11,20l7,2c36,10.3,37.31,11,37.74,11.19l.48.24c11.12,5.53,16.66,13.77,16.49,24.49,0,1.84,0,8.94,0,12.42Z"/><path class="cls-2" d="M78.52,109.33c-2.46,0-5.47-1.85-7.06-4.41-.6-1-2.08-3.86-5.4-12.56-1-2.66-.93-4.63.28-5.86,2.35-2.39,7.91-.72,10.19.11l.3.11-.6,1.81-.35-.12c-3.1-1.13-7-1.78-8.18-.57-.79.81-.36,2.53.14,3.84,3.39,8.87,4.79,11.51,5.24,12.23,1.44,2.31,4.14,3.68,5.73,3.49a1.28,1.28,0,0,0,1.2-.89l1.8.63A3.17,3.17,0,0,1,79,109.31Z"/><path class="cls-2" d="M140.76,109.33l-.48,0a3.21,3.21,0,0,1-2.81-2.16l1.8-.65a1.28,1.28,0,0,0,1.21.91c1.61.17,4.28-1.2,5.72-3.5.45-.73,1.86-3.4,5.23-12.23.5-1.31.93-3,.14-3.84-1.17-1.2-4.85-.61-8,.51-.3.09-.46.15-.48.16l-.71-1.78s.23-.09.6-.2c2.19-.78,7.64-2.38,9.95,0,1.2,1.22,1.3,3.19.28,5.85-3.31,8.66-4.8,11.58-5.39,12.55C146.23,107.48,143.21,109.33,140.76,109.33Z"/><path class="cls-2" d="M76.14,79.66l-1.2-1.48C91.31,65,93.25,44.69,93.33,43.84l1.91.08C95.16,44.89,93.14,66,76.14,79.66Z"/><path class="cls-2" d="M143.36,75.83c-1.4-.47-34.51-11.64-49.83-31.32L95,43.33C110,62.56,143.63,73.9,144,74Z"/></g><polyline class="cls-3" points="108.47 81.98 105.53 95.72 113.14 95.72"/><line class="cls-3" x1="100.98" y1="106.76" x2="119.07" y2="106.76"/><line class="cls-3" x1="106.11" y1="110.37" x2="112.46" y2="110.37"/><line class="cls-3" x1="89.32" y1="78.92" x2="97.91" y2="78.92"/><line class="cls-3" x1="120.4" y1="78.92" x2="127.96" y2="78.92"/><path class="cls-3" d="M131.85,144.82a28.73,28.73,0,0,1-42.53,2.09"/><path class="cls-4" d="M81.76,57.67c0-3,5.67-3,5.67-6.08s-5.67-3-5.67-6.07,5.67-3,5.67-6.07-5.67-3-5.67-6.07,5.67-3,5.67-6.07-5.67-3-5.67-6.08,5.67-3,5.67-6.07-5.67-3-5.67-6.08"/><path class="cls-4" d="M93.42,57.67c0-3,5.67-3,5.67-6.08s-5.67-3-5.67-6.07,5.67-3,5.67-6.07-5.67-3-5.67-6.07,5.67-3,5.67-6.07-5.67-3-5.67-6.08,5.67-3,5.67-6.07-5.67-3-5.67-6.08"/><path class="cls-4" d="M104.85,58.67c0-3,5.67-3,5.67-6.07s-5.67-3-5.67-6.07,5.67-3,5.67-6.07-5.67-3-5.67-6.07,5.67-3,5.67-6.07-5.67-3-5.67-6.08,5.67-3,5.67-6.08-5.67-3-5.67-6.08"/><polygon class="cls-5" points="228.59 -13.92 140.82 25.7 129.42 26.24 96.03 43.29 100.11 50.63 91.97 55.78 94.14 61.49 90.61 65.07 95.23 68.95 101.74 73.46 123.72 61.52 116.94 68.95 119.65 71.29 147.18 55.78 151.4 47.14 226.25 2.13 228.59 -13.92"/><path class="cls-6" d="M95.64,48.7A5.09,5.09,0,0,0,97,50.3l-4.71,2.59a5.1,5.1,0,0,0-2,6.93,4.91,4.91,0,0,0,1.42,1.62,5.08,5.08,0,0,0,4.67,9A5.08,5.08,0,0,0,104,74.52L115.1,68.4a5.09,5.09,0,0,0,5.45,4.68,5.23,5.23,0,0,0,2.08-.62l21.2-11.66A12.32,12.32,0,0,0,150,52.5a9.29,9.29,0,0,1,4-5.89L227.91,4.67a1.52,1.52,0,0,0,.49-2l-.06-.1a1.51,1.51,0,0,0-2.09-.44l-73.95,42A12.25,12.25,0,0,0,147,52a9.28,9.28,0,0,1-4.63,6.26L121.16,69.87a2.09,2.09,0,0,1-2-3.65L126.78,62a1.53,1.53,0,0,0,.6-2.06,1.51,1.51,0,0,0-2.06-.59L102.54,71.91a2.09,2.09,0,0,1-2-3.64L122,56.44a1.51,1.51,0,0,0-1.46-2.65L95.41,67.64a2.09,2.09,0,0,1-2-3.65l25.4-14a1.51,1.51,0,1,0-1.46-2.65L95.8,59.22a2.08,2.08,0,0,1-2-3.64l25-13.74a1.51,1.51,0,1,0-1.45-2.65L101.12,48.1a2.08,2.08,0,0,1-2-3.64L129.07,28a8.66,8.66,0,0,1,6.27-.81,11.68,11.68,0,0,0,7.53-.69L221-8.52a1.51,1.51,0,0,0,.76-2l-.06-.12a1.51,1.51,0,0,0-1.94-.66l-78.1,35.11a8.67,8.67,0,0,1-5.59.47,11.59,11.59,0,0,0-8.48,1.09L97.68,41.83A5.11,5.11,0,0,0,95.64,48.7Z"/></svg>