<svg id="Ebene_1" data-name="Ebene 1" xmlns="http://www.w3.org/2000/svg" viewBox="0 0 30 30"><title>fiebermesser</title><path d="M23.5,5.6l1.9-1.4a2,2,0,0,1,2.7.4l.8,1.2a1.9,1.9,0,0,1-.5,2.6l-2,1.4" fill="#fff"/><path d="M23.5,5.5l-9.1,6.6a55,55,0,0,0-5.9,5.6c-.8,1-6.5,5.4-6.5,5.4s.7.5.7.9,5.2-3.3,7.6-4.5l4.9-2c.3-.1,11.3-7.7,11.3-7.7a1.5,1.5,0,0,0,0-.7L24,5.7A.5.5,0,0,0,23.5,5.5Z" fill="#fff"/><path d="M2.8,24l-1.4.9H1.3a.5.5,0,0,1-.7-.3A.5.5,0,0,1,.9,24H1" fill="#fff"/><path d="M29.2,5.6l-.8-1.2a2.4,2.4,0,0,0-1.5-.9,2.5,2.5,0,0,0-1.7.4L23.4,5.2h-.1l-9.1,6.6a56.5,56.5,0,0,0-6,5.7,81.5,81.5,0,0,1-6.4,5.3h0l-1.2,1h0a.7.7,0,0,0-.3.9.8.8,0,0,0,.8.6h.3l1.1-.7h0l.4-.3H3c.3-.2,5.1-3.3,7.4-4.5l4.9-1.9c.3-.1,6.4-4.3,11.4-7.8h.1l1.8-1.3a1.9,1.9,0,0,0,.9-1.4A1.9,1.9,0,0,0,29.2,5.6ZM1.3,24.5H1.1a.1.1,0,0,1-.1-.1c-.1-.1,0-.2.1-.2h0l.9-.7.3.3Zm13.8-7.3-5,2a80.5,80.5,0,0,0-7.2,4.3l-.3-.4A70.6,70.6,0,0,0,8.8,18a44.9,44.9,0,0,1,5.8-5.6l9.1-6.5,2.5,3.4v.2h0ZM28.8,7.1a1.4,1.4,0,0,1-.7,1l-1.3,1V8.9L24.3,5.5l1.3-1a1.6,1.6,0,0,1,1.2-.2,1.4,1.4,0,0,1,1,.5L28.6,6A1.4,1.4,0,0,1,28.8,7.1Z"/><path d="M16.9,15h-.2l-1.4-2c-.1-.2-.1-.3,0-.4l5.8-4h.3l1.5,2.1v.2h-.1L17.1,15Zm-1.1-2.2L17,14.4l5.3-3.7L21.1,9Z"/><circle cx="23.6" cy="8.5" r="1.1" fill="#fff"/><path d="M23.6,9.9h0a1.9,1.9,0,0,1-1-.5,1.5,1.5,0,0,1-.4-.9,1.4,1.4,0,0,1,2.8,0,1.9,1.9,0,0,1-.5,1A1.5,1.5,0,0,1,23.6,9.9Zm0-2.2a.9.9,0,0,0-.9.8.9.9,0,0,0,.3.6.6.6,0,0,0,.6.3.9.9,0,0,0,.6-.3,1.6,1.6,0,0,0,.3-.6.9.9,0,0,0-.9-.8Z"/></svg>