<svg id="Ebene_1" data-name="Ebene 1" xmlns="http://www.w3.org/2000/svg" viewBox="0 0 226.77 226.77"><defs><style>.cls-1,.cls-2{fill:none;stroke:#1d1d1b;stroke-linecap:round;stroke-linejoin:round;}.cls-1{stroke-width:5px;}.cls-2{stroke-width:3px;}</style></defs><title>Bildkarten_Exp3</title><ellipse class="cls-1" cx="113.66" cy="100.17" rx="57" ry="19.03"/><path class="cls-1" d="M170.66,160.83c0,10.51-25.52,19-57,19s-57-8.52-57-19"/><path class="cls-1" d="M170.66,139.26c0,10.51-25.52,19-57,19s-57-8.53-57-19"/><path class="cls-1" d="M170.66,124.7c0,10.52-25.52,19-57,19s-57-8.52-57-19"/><line class="cls-1" x1="56.66" y1="100.17" x2="56.66" y2="160.83"/><line class="cls-1" x1="170.66" y1="100.17" x2="170.66" y2="160.83"/><line class="cls-1" x1="84.66" y1="102.38" x2="84.66" y2="64.18"/><line class="cls-1" x1="113.66" y1="102.38" x2="113.66" y2="64.18"/><line class="cls-1" x1="139.33" y1="102.38" x2="139.33" y2="64.18"/><path class="cls-2" d="M89,54.16a4.33,4.33,0,1,1-8.66,0c0-2.4,4.33-7.2,4.33-7.2C87.05,47,89,51.76,89,54.16Z"/><path class="cls-2" d="M118,54.16a4.33,4.33,0,1,1-8.66,0c0-2.4,4.33-7.2,4.33-7.2C116.05,47,118,51.76,118,54.16Z"/><path class="cls-2" d="M143.66,54.16a4.34,4.34,0,0,1-8.67,0c0-2.4,4.34-7.2,4.34-7.2C141.72,47,143.66,51.76,143.66,54.16Z"/></svg>