<svg id="Ebene_1" data-name="Ebene 1" xmlns="http://www.w3.org/2000/svg" viewBox="0 0 226.77 226.77"><defs><style>.cls-1,.cls-2,.cls-3,.cls-6{fill:none;}.cls-1,.cls-3,.cls-5{stroke:#1d1d1b;stroke-width:2px;}.cls-1,.cls-6{stroke-linejoin:round;}.cls-3,.cls-5{stroke-miterlimit:10;}.cls-4{fill:#1d1d1b;}.cls-5,.cls-7{fill:#fff;}.cls-6{stroke:#e6332a;stroke-width:2.5px;}</style></defs><title>Bildkarten_Exp3</title><polyline class="cls-1" points="93.16 68.92 105.37 70.6 101.19 74"/><polyline class="cls-1" points="136.49 69.26 124.25 70.75 127 73.44"/><path class="cls-2" d="M100.56,32.55c-.09.89-2.3,22-19.37,35.49h0a222.65,222.65,0,0,1,.72-25.61c2.4-30.23,34.79-27.09,34.79-27.09,34.56.27,34.39,24,34.39,24l-.22,25.15h-.25S116,52.71,100.56,32.55Z"/><path class="cls-3" d="M150.85,64.52l.22-25.15s.17-23.76-34.39-24c0,0-32.39-3.14-34.79,27.09A222.65,222.65,0,0,0,81.17,68q.17,4.42.63,8.75A73.31,73.31,0,0,0,86.44,96.5c2.75,6.73,6.82,12.31,12.63,15.92a31.78,31.78,0,0,0,16.82,4.46,29.37,29.37,0,0,0,16-4.2c6-3.71,10.15-9.51,12.94-15.78a70.69,70.69,0,0,0,5.26-19.63,78.69,78.69,0,0,0,.75-10.94Z"/><path class="cls-3" d="M183.49,278.15c-.44-7.78-.87-15-.87-15s-3.86-36.51-5.64-60.43c-.64-8.49-1-15.41-.85-18.53"/><path class="cls-3" d="M140.43,104.6c-1,.62-.3,14.73-.3,14.73s43.89,12.81,45.94,13.89c2.47,1.31,17,7.7,16.56,24.45-.14,6.19.11,20.66.52,36.43h0c.66,26.77,1.71,57.29,1.71,57.29s5.1,25.15,4.34,32.44c-2.49,24.26-6.42,61.53-5.66,68s5.42,17.05,5,26c-.21,4.79-4.3,7.13-8.44,11.09-3.56,3.38-5.5,5.57-9.36,5.54-2.43,0-5.27-8.4-5.72-10.95a53,53,0,0,1-.54-7.84c-.08-5.12.18-10.59.29-12.76a6.47,6.47,0,0,1,.37-1.9c.76-2.18,2.82-7.4,5.43-8.72.45-3-5.81-51.36-6-56.23-.12-2.4-.58-10.35-1-17.85"/><path class="cls-3" d="M184.32,375.67l-2.46,23.53-3.77,35.87a324.22,324.22,0,0,0-2.54,36c0,14.3,2.35,63,.61,75.62S173.91,605,173.91,605s10.54,32.3,28.31,38.75,18.28,12,14.31,14.16-22.35,3-35.12.07c-4.26-1-17.35-9.14-34.45-13.94-7-2,.15-19.09,1.07-22.32s-.93-42.14-.51-48.62S141.9,532,141.09,521s2.79-55.5,2-62.75c-1.56-14.89-3.66-34.6-6-56-.11-1.07-.22-2.2-.32-3.41-1.35-17.25-.63-46.35-.42-56.61a2.69,2.69,0,0,0-2.53-2.75l-4.07,0c-1.89,0-3.42,1.65-3.07,4.46,1.43,11.5.6,40.36.89,54.74,0,1.48.08,2.8.13,3.95.81,15.3-4.2,53.44-1,64.55s6.55,38.41,5,54c-.59,5.92-2.54,44.9-2.54,44.9S125,580.53,131,613.25s-4.3,31.58-7.53,31.81-13.8,1.53-13.8,1.53-18.74,12.28-32.59,12.24c-30.31,0-36.45-10.14-24.38-14.06,22.15-7.19,51.86-34.69,52.7-37.39s-5.25-54.33-8.39-68.13-3-52.05-3.32-58.09c-.17-3.06,0-11.16.15-20,.11-5.64-7.83-39.41-13.51-62.81-2.6-10.75-9.28-38.27-9.17-60.53s.43-54.35.43-54.35c2.45-9.13,6.19-34.64,6.19-34.64s-1.82-31-1.22-48a54.57,54.57,0,0,0-.15-9.78"/><path class="cls-3" d="M179,170.16s-1.39,6.79-2.91,14v0c-1.26,6.09-2.61,12.45-3.26,15.15-1.41,5.93-.08,57.25,1.27,59.15s8.87,18.67,9.35,19.71a.15.15,0,0,1,0,.06"/><path class="cls-3" d="M82.13,76.91l-.33-.12c-2-.75-12.76-4.32-9.46,4.53,3.64,9.77,5,12.15,5.31,12.66,2.27,3.7,7.65,5.65,8.79,2.52"/><path class="cls-3" d="M149.56,77.44l.53-.17c2.46-.86,12.54-3.81,9.2,4.73-3.8,9.71-5.2,12.08-5.52,12.58-2.32,3.66-7.72,5.53-8.82,2.38"/><path class="cls-3" d="M100.56,32.53v0c-.09.89-2.3,22-19.37,35.49"/><path class="cls-3" d="M150.6,64.52s-34.6-11.81-50-32"/><path class="cls-3" d="M203.15,194.1c-.67,0-26.17,8.57-26.17,8.57"/><polygon class="cls-4" points="119.66 86.43 110.69 86.36 114.07 71.21 115.97 71.63 113.12 84.43 119.67 84.48 119.66 86.43"/><path class="cls-3" d="M143.61,120.11a29.27,29.27,0,0,1-43.33,1.79"/><line class="cls-3" x1="46.89" y1="190.82" x2="68.15" y2="198.54"/><ellipse class="cls-3" cx="115.66" cy="101.21" rx="4.54" ry="7.06" transform="translate(13.54 216.07) rotate(-89.55)"/><path class="cls-5" d="M94,122.31s-21.31,7.1-28.07,12.3-11.9,11.26-15,23.21c0,0-9,54.29-9.27,65.27s13.68,46.24,26.14,25.58c0,0,24-43.29,31.61-65.13,4.61-13.18,7.87-40.62,7.87-40.62s10-7.81,13.34-18.33c2.79-8.87.53-10.9.53-10.9s-5.46-7-5.93-9.1.08-7.13-4.1-8c-3.78-.73-10,10.24-14.06,18.83-2,4.1-3.44,7.66-3.94,9.12-1.57,4.49.54,12.4,0,14.43-.46,1.85-10.2,26.08-22.3,52-.73,1.53-10,29.2-10,29.2"/><path class="cls-3" d="M45.12,192.85l22.68,7.86"/><polyline class="cls-6" points="128.59 108.17 130.02 116.16 138.05 117.37 139.48 125.37 147.52 126.58 148.95 134.58"/><polyline class="cls-6" points="101.31 104.83 92.01 106.54 90.73 115.91 81.43 117.62 80.14 127 70.83 128.72"/><polyline class="cls-6" points="97.32 103.19 90.04 98.19 84.94 105.39 77.66 100.39 72.55 107.6 65.27 102.6"/><polyline class="cls-6" points="127.3 121.89 122.46 129.34 129.81 134.31 124.97 141.76 132.33 146.74 127.49 154.2"/><polyline class="cls-6" points="128.38 98.11 132.92 106.38 141.4 102.23 145.94 110.51 154.43 106.36 158.97 114.64"/><rect class="cls-7" x="16.8" y="202.67" width="210.29" height="474.39"/></svg>