<svg id="Ebene_1" data-name="Ebene 1" xmlns="http://www.w3.org/2000/svg" viewBox="0 0 30 30"><title>kalender</title><rect x="2" y="3.9" width="26" height="24" fill="#fff" stroke="#000" stroke-linecap="round" stroke-linejoin="round"/><line x1="5.5" y1="6.1" x2="5.5" y2="2.1" fill="none" stroke="#000" stroke-linecap="round" stroke-linejoin="round"/><line x1="25.5" y1="6.1" x2="25.5" y2="2.1" fill="none" stroke="#000" stroke-linecap="round" stroke-linejoin="round"/><line x1="2" y1="7.9" x2="28" y2="7.9" fill="none" stroke="#000" stroke-linejoin="round"/><rect x="10.1" y="9.8" width="3.3" height="3.27" fill="#fff" stroke="#000" stroke-linecap="round" stroke-linejoin="round" stroke-width="0.82"/><rect x="13.4" y="9.8" width="3.3" height="3.27" fill="#fff" stroke="#000" stroke-linecap="round" stroke-linejoin="round" stroke-width="0.82"/><rect x="16.6" y="9.8" width="3.3" height="3.27" fill="#fff" stroke="#000" stroke-linecap="round" stroke-linejoin="round" stroke-width="0.82"/><rect x="19.9" y="9.8" width="3.3" height="3.27" fill="#fff" stroke="#000" stroke-linecap="round" stroke-linejoin="round" stroke-width="0.82"/><rect x="23.2" y="9.8" width="3.3" height="3.27" fill="#fff" stroke="#000" stroke-linecap="round" stroke-linejoin="round" stroke-width="0.82"/><rect x="3.5" y="13.1" width="3.3" height="3.27" fill="#fff" stroke="#000" stroke-linecap="round" stroke-linejoin="round" stroke-width="0.82"/><rect x="6.8" y="13.1" width="3.3" height="3.27" fill="#fff" stroke="#000" stroke-linecap="round" stroke-linejoin="round" stroke-width="0.82"/><rect x="10.1" y="13.1" width="3.3" height="3.27" fill="#fcee21" stroke="#000" stroke-linecap="round" stroke-linejoin="round" stroke-width="0.82"/><rect x="13.4" y="13.1" width="3.3" height="3.27" fill="#fff" stroke="#000" stroke-linecap="round" stroke-linejoin="round" stroke-width="0.82"/><rect x="16.6" y="13.1" width="3.3" height="3.27" fill="#fff" stroke="#000" stroke-linecap="round" stroke-linejoin="round" stroke-width="0.82"/><rect x="19.9" y="13.1" width="3.3" height="3.27" fill="#fff" stroke="#000" stroke-linecap="round" stroke-linejoin="round" stroke-width="0.82"/><rect x="23.2" y="13.1" width="3.3" height="3.27" fill="#fff" stroke="#000" stroke-linecap="round" stroke-linejoin="round" stroke-width="0.82"/><rect x="3.5" y="16.4" width="3.3" height="3.27" fill="#fff" stroke="#000" stroke-linecap="round" stroke-linejoin="round" stroke-width="0.82"/><rect x="6.8" y="16.4" width="3.3" height="3.27" fill="#fff" stroke="#000" stroke-linecap="round" stroke-linejoin="round" stroke-width="0.82"/><rect x="10.1" y="16.4" width="3.3" height="3.27" fill="#fff" stroke="#000" stroke-linecap="round" stroke-linejoin="round" stroke-width="0.82"/><rect x="13.4" y="16.4" width="3.3" height="3.27" fill="#fff" stroke="#000" stroke-linecap="round" stroke-linejoin="round" stroke-width="0.82"/><rect x="16.6" y="16.4" width="3.3" height="3.27" fill="#fff" stroke="#000" stroke-linecap="round" stroke-linejoin="round" stroke-width="0.82"/><rect x="19.9" y="16.4" width="3.3" height="3.27" fill="#fff" stroke="#000" stroke-linecap="round" stroke-linejoin="round" stroke-width="0.82"/><rect x="23.2" y="16.4" width="3.3" height="3.27" fill="#fff" stroke="#000" stroke-linecap="round" stroke-linejoin="round" stroke-width="0.82"/><rect x="3.5" y="19.7" width="3.3" height="3.27" fill="#fff" stroke="#000" stroke-linecap="round" stroke-linejoin="round" stroke-width="0.82"/><rect x="6.8" y="19.7" width="3.3" height="3.27" fill="#fff" stroke="#000" stroke-linecap="round" stroke-linejoin="round" stroke-width="0.82"/><rect x="10.1" y="19.7" width="3.3" height="3.27" fill="#fff" stroke="#000" stroke-linecap="round" stroke-linejoin="round" stroke-width="0.82"/><rect x="13.4" y="19.7" width="3.3" height="3.27" fill="#fff" stroke="#000" stroke-linecap="round" stroke-linejoin="round" stroke-width="0.82"/><rect x="16.6" y="19.7" width="3.3" height="3.27" fill="#fff" stroke="#000" stroke-linecap="round" stroke-linejoin="round" stroke-width="0.82"/><rect x="19.9" y="19.7" width="3.3" height="3.27" fill="#fff" stroke="#000" stroke-linecap="round" stroke-linejoin="round" stroke-width="0.82"/><rect x="23.2" y="19.7" width="3.3" height="3.27" fill="#fff" stroke="#000" stroke-linecap="round" stroke-linejoin="round" stroke-width="0.82"/><rect x="3.5" y="22.9" width="3.3" height="3.27" fill="#fff" stroke="#000" stroke-linecap="round" stroke-linejoin="round" stroke-width="0.82"/><rect x="6.8" y="22.9" width="3.3" height="3.27" fill="#fff" stroke="#000" stroke-linecap="round" stroke-linejoin="round" stroke-width="0.82"/><rect x="10.1" y="22.9" width="3.3" height="3.27" fill="#fff" stroke="#000" stroke-linecap="round" stroke-linejoin="round" stroke-width="0.82"/><rect x="13.4" y="22.9" width="3.3" height="3.27" fill="#fff" stroke="#000" stroke-linecap="round" stroke-linejoin="round" stroke-width="0.82"/><rect x="6.8" y="9.8" width="3.3" height="3.27" fill="#fff" stroke="#000" stroke-linecap="round" stroke-linejoin="round" stroke-width="0.82"/></svg>