<svg id="Ebene_1" data-name="Ebene 1" xmlns="http://www.w3.org/2000/svg" viewBox="0 0 226.77 226.77"><defs><style>.cls-1,.cls-3{fill:none;}.cls-2{fill:#1d1d1b;}.cls-3{stroke:#1d1d1b;stroke-miterlimit:10;stroke-width:2px;}.cls-4,.cls-5,.cls-6,.cls-7{fill:#e30613;}.cls-4{fill-opacity:0.8;}.cls-5{fill-opacity:0.6;}.cls-6{fill-opacity:0.4;}.cls-7{fill-opacity:0.2;}</style></defs><title>Bildkarten_Exp3</title><g id="_Gruppe_" data-name="&lt;Gruppe&gt;"><path class="cls-1" d="M91,46.06c-.07.88-2.08,21.58-18.74,35h0a216.19,216.19,0,0,1,.52-25.16c2.12-29.7,34-26.87,34-26.87,33.93,0,33.94,23.34,33.94,23.34V77.07h-.25S106.27,65.75,91,46.06Z"/><path class="cls-2" d="M106.66,129.7a32.25,32.25,0,0,1-17-4.38c-5.54-3.39-9.89-8.76-12.91-16a73.33,73.33,0,0,1-4.77-19.57c-.33-2.85-.56-5.76-.69-8.66a213.68,213.68,0,0,1,.51-25.26c.62-8.67,3.78-15.49,9.39-20.26,10.27-8.75,25-7.55,25.6-7.5h0c34.39,0,34.81,24,34.81,24.29l0,26.47a75.83,75.83,0,0,1-.66,10.86,69.27,69.27,0,0,1-5.08,19.59c-3.15,7.21-7.51,12.6-13,16A29.84,29.84,0,0,1,106.66,129.7Zm-2.08-99.77c-4.37,0-14.72.74-22.21,7.12-5.2,4.43-8.13,10.8-8.71,18.93a214.37,214.37,0,0,0-.51,25c.13,2.86.36,5.72.68,8.52a71.44,71.44,0,0,0,4.63,19.06c2.87,6.84,7,11.92,12.15,15.09a30.37,30.37,0,0,0,16,4.1,28,28,0,0,0,15.17-4.1c5.12-3.2,9.22-8.3,12.22-15.16a67.65,67.65,0,0,0,4.94-19,78.13,78.13,0,0,0,.64-10.61l0-26.49c0-.92-.48-22.38-33-22.38C106.61,30,105.84,29.93,104.58,29.93Z"/><path class="cls-2" d="M184.75,196.34H33.44l0-1c.17-6.8.33-11.14.33-11.14-.34-20.31,15.29-24.51,15.45-24.55l36.09-12.13,3.82-1.75V124.5h1.92V147l-5,2.3L49.78,161.5c-.65.17-14.39,3.94-14.08,22.74,0,0-.14,4-.3,10.19H182.8c0-3.54-.06-9.69,0-11.52.16-9.92-5-17.57-15.43-22.74l-.5-.26c-.6-.3-6.25-2.14-37.39-11l-8.32-2.37,0-.7c-.76-21.21.18-21.78.73-22.12l1,1.64a.73.73,0,0,0,.28-.29c-.46,1.14-.42,10.94-.11,20l7,2c36,10.3,37.32,11,37.74,11.18l.49.25c11.11,5.52,16.66,13.76,16.48,24.49,0,1.83,0,8.94,0,12.42Z"/><path class="cls-2" d="M75.19,111.48c-2.45,0-5.46-1.85-7.06-4.41-.6-1-2.08-3.87-5.4-12.56-1-2.66-.92-4.63.28-5.86,2.35-2.39,7.91-.72,10.19.1l.31.11-.61,1.82-.35-.13c-3.1-1.12-7-1.77-8.17-.56-.79.8-.36,2.53.13,3.84,3.39,8.86,4.8,11.5,5.24,12.23,1.44,2.31,4.15,3.68,5.73,3.49a1.28,1.28,0,0,0,1.2-.9l1.81.64a3.2,3.2,0,0,1-2.8,2.16A4.07,4.07,0,0,1,75.19,111.48Z"/><path class="cls-2" d="M137.44,111.48a3.91,3.91,0,0,1-.49,0,3.19,3.19,0,0,1-2.81-2.16l1.8-.64a1.3,1.3,0,0,0,1.22.9c1.6.18,4.28-1.19,5.71-3.5.45-.73,1.86-3.39,5.24-12.22.5-1.31.92-3,.14-3.84-1.18-1.2-4.86-.61-8,.51a5.13,5.13,0,0,0-.49.16l-.7-1.78s.22-.09.6-.2c2.18-.78,7.64-2.39,9.94,0,1.21,1.23,1.3,3.2.28,5.86-3.3,8.66-4.8,11.58-5.39,12.55C142.9,109.63,139.89,111.48,137.44,111.48Z"/><path class="cls-2" d="M72.81,81.81l-1.2-1.49C88,67.12,89.93,46.84,90,46l1.91.08C91.83,47,89.81,68.11,72.81,81.81Z"/><path class="cls-2" d="M140,78c-1.41-.47-34.52-11.64-49.84-31.33l1.51-1.17c15,19.23,48.59,30.57,48.93,30.68Z"/></g><polyline class="cls-3" points="105.15 84.12 102.2 97.86 109.82 97.86"/><line class="cls-3" x1="97.66" y1="108.91" x2="115.75" y2="108.91"/><line class="cls-3" x1="102.78" y1="112.51" x2="109.14" y2="112.51"/><line class="cls-3" x1="86" y1="81.07" x2="94.58" y2="81.07"/><line class="cls-3" x1="117.07" y1="81.07" x2="124.63" y2="81.07"/><path class="cls-3" d="M128.52,147A28.71,28.71,0,0,1,86,149.06"/><circle class="cls-4" cx="102.2" cy="59.19" r="12.04"/><circle class="cls-5" cx="102.2" cy="59.19" r="17.82"/><circle class="cls-6" cx="102.2" cy="59.19" r="24.5"/><circle class="cls-7" cx="102.2" cy="59.19" r="31.18"/></svg>