<svg id="Ebene_1" data-name="Ebene 1" xmlns="http://www.w3.org/2000/svg" viewBox="0 0 226.77 226.77"><defs><style>.cls-1{fill:none;}.cls-1,.cls-2,.cls-4{stroke:#010101;stroke-miterlimit:10;stroke-width:2px;}.cls-2{fill:#fff;}.cls-3,.cls-4{fill:#010101;}</style></defs><title>Bildkarten_Exp3</title><polygon class="cls-1" points="90.18 179.99 23.03 179.99 23.03 99.41 36.46 85.98 76.75 85.98 90.18 99.41 90.18 179.99"/><rect class="cls-1" x="33.77" y="64.49" width="45.66" height="21.49"/><rect class="cls-1" x="23.03" y="123.58" width="67.15" height="29.55"/><rect class="cls-1" x="116.1" y="71.24" width="32" height="32" transform="translate(44.86 219.34) rotate(-90)"/><circle class="cls-1" cx="126.1" cy="79.24" r="4"/><circle class="cls-1" cx="126.1" cy="91.24" r="4"/><circle class="cls-1" cx="138.1" cy="79.24" r="4"/><circle class="cls-1" cx="138.1" cy="91.24" r="4"/><circle class="cls-1" cx="126.1" cy="103.24" r="4"/><circle class="cls-1" cx="138.1" cy="103.24" r="4"/><rect class="cls-2" x="101.1" y="112.24" width="60" height="42" transform="translate(-2.14 264.34) rotate(-90)"/><rect class="cls-3" x="52.58" y="131.64" width="5.37" height="16.12"/><rect class="cls-3" x="52.58" y="131.64" width="5.37" height="16.12" transform="translate(194.96 84.44) rotate(90)"/><rect class="cls-3" x="129.43" y="131.24" width="3.33" height="10" transform="translate(-5.14 267.34) rotate(-90)"/><rect class="cls-3" x="129.43" y="131.24" width="3.33" height="10"/><rect class="cls-1" x="110.1" y="125.24" width="42" height="22"/><path class="cls-1" d="M195.22,83.1h4.3a7.72,7.72,0,0,1,7.72,7.72V108.1a0,0,0,0,1,0,0h-20a0,0,0,0,1,0,0v-17A8,8,0,0,1,195.22,83.1Z" transform="translate(79.07 -89.01) rotate(31.52)"/><path class="cls-4" d="M182.16,104.41h4.3a7.72,7.72,0,0,1,7.72,7.72v17.28a0,0,0,0,1,0,0h-20a0,0,0,0,1,0,0v-17a8,8,0,0,1,8-8Z" transform="translate(280.08 312.86) rotate(-148.48)"/><path class="cls-1" d="M181.7,140h0a7.67,7.67,0,0,1,7.67,7.67v11.82a0,0,0,0,1,0,0H173.78a0,0,0,0,1,0,0V147.87A7.92,7.92,0,0,1,181.7,140Z" transform="translate(-26.64 259.35) rotate(-67.28)"/><path class="cls-4" d="M199.67,147.48h0a7.67,7.67,0,0,1,7.67,7.67V167a0,0,0,0,1,0,0H191.75a0,0,0,0,1,0,0V155.4a7.92,7.92,0,0,1,7.92-7.92Z" transform="translate(421.65 33.9) rotate(112.72)"/></svg>