<svg id="Ebene_1" data-name="Ebene 1" xmlns="http://www.w3.org/2000/svg" viewBox="0 0 30 30"><title>name</title><rect x="2" y="5.9" width="26" height="18" rx="2" ry="2" fill="#fff" stroke="#000" stroke-miterlimit="10"/><rect x="4.2" y="8.6" width="9.5" height="13" rx="0.9" ry="0.9" fill="#fff" stroke="#000" stroke-miterlimit="10" stroke-width="0.93"/><line x1="15.7" y1="16.3" x2="25.7" y2="16.3" fill="none" stroke="#000" stroke-linecap="round" stroke-miterlimit="10" stroke-width="0.69"/><line x1="15.7" y1="18.7" x2="25.7" y2="18.7" fill="none" stroke="#000" stroke-linecap="round" stroke-miterlimit="10" stroke-width="0.69"/><line x1="15.7" y1="21.3" x2="25.7" y2="21.3" fill="none" stroke="#000" stroke-linecap="round" stroke-miterlimit="10" stroke-width="0.69"/><circle cx="8.9" cy="13.4" r="1.8" fill="none" stroke="#000" stroke-miterlimit="10" stroke-width="0.67"/><path d="M5.8,21.5v-2c0-2.1,1.4-3.8,3.1-3.8s3.2,1.7,3.2,3.8v2" fill="none" stroke="#000" stroke-miterlimit="10" stroke-width="0.88"/><path d="M15.5,9.8h.7l.4.7.7,1.1h0V9.8h.6v2.7h-.6l-.5-.7-.7-1.1h0v1.8h-.6Z"/><path d="M19.5,12.5v-.2a.6.6,0,0,1-.6.3c-.4,0-.6-.2-.6-.5s.6-.7,1.2-.7h0a.3.3,0,0,0-.3-.3c-.2,0-.3.1-.3.2h-.5c0-.4.4-.6.8-.6s.9.2.9.7v1.2Zm0-.6v-.2q-.6,0-.6.3l.2.2C19.3,12.2,19.5,12.1,19.5,11.9Z"/><path d="M20.5,10.6h.6v.3a.6.6,0,0,1,.6-.3.5.5,0,0,1,.5.3l.6-.3c.4,0,.7.2.7.6v1.3h-.6V11.4a.3.3,0,0,0-.3-.3c-.1,0-.3.1-.3.5v.9h-.6V11.4c0-.2-.1-.3-.2-.3s-.4.1-.4.5v.9h-.6Z"/><path d="M25.7,12.2a1.1,1.1,0,0,1-.9.4.9.9,0,0,1-.9-1,.9.9,0,0,1,.9-1,.9.9,0,0,1,1,1H24.4c.1.3.1.5.4.5l.4-.2Zm-1.2-.8h.7a.4.4,0,0,0-.4-.4C24.6,11,24.5,11.2,24.5,11.4Z"/></svg>