<svg id="Ebene_1" data-name="Ebene 1" xmlns="http://www.w3.org/2000/svg" viewBox="0 0 30 30"><title>schmerz</title><path d="M11.7,28l-.5-.2L5,22.5a1.1,1.1,0,0,1-.2-1.4c.1-.1.1-.2.2-.2l3.6-3.4-5-5.2a1.2,1.2,0,0,1-.1-1.5.9.9,0,0,1,1.3-.1h0l5.7,6.1a1.2,1.2,0,0,1,.1,1.5h-.1L7,21.7l5.2,4.4a1.2,1.2,0,0,1,.2,1.5,1,1,0,0,1-.7.4Z" fill="#e6231e"/><path d="M15.2,22.4a.8.8,0,0,1-.8-.7l-2.7-9a1.2,1.2,0,0,1,.6-1.4h4.3L14.2,3.4a1.1,1.1,0,0,1,.5-1.3.9.9,0,0,1,1.2.6L18.7,12a1,1,0,0,1-.5,1.3H13.8l2.3,7.7a1.1,1.1,0,0,1-.6,1.3Z" fill="#e6231e"/><path d="M19.6,28h-.1a1.1,1.1,0,0,1-.7-1.2l.8-9.4c.1-.6.5-1,1-.9h.2l4.1,1.6V10.2a.9.9,0,1,1,1.8,0v9.4a1,1,0,0,1-.9,1.1h-.3l-4.2-1.7L20.5,27A.9.9,0,0,1,19.6,28Z" fill="#e6231e"/></svg>