<svg id="Ebene_1" data-name="Ebene 1" xmlns="http://www.w3.org/2000/svg" viewBox="0 0 30 30"><title>toilette</title><path d="M20.3,20.4,22,27c0,.5-.7.9-1.4.9H9.5c-2,0-1-2.3.7-2.5s3-1.8,2.5-3" fill="#fff"/><rect x="18.2" y="2" width="5.9" height="13.01" rx="1.1" ry="1.1" transform="translate(42.3 17) rotate(-180)" fill="#fff"/><path d="M6.1,15c0,4.2,3.7,7.5,8.3,7.5s8.4-3.3,8.4-7.5Z" fill="#fff"/><path d="M9.5,27.5H20.6c.5,0,.8-.2.8-.4L20,21.4a9.6,9.6,0,0,1-5.6,1.8h-1a2.2,2.2,0,0,1-.2,1.4A3.7,3.7,0,0,1,10.3,26a1.6,1.6,0,0,0-1.4,1.2C8.9,27.4,9.2,27.5,9.5,27.5Z" fill="#fff"/><path d="M22.1,15.7H6.8c.3,3.4,3.6,6.2,7.6,6.2S21.8,19.1,22.1,15.7Z" fill="#fff"/><path d="M23.6,3.1a.6.6,0,0,0-.6-.6H19.2a.6.6,0,0,0-.5.6V13.9a.5.5,0,0,0,.3.5h4.1a.5.5,0,0,0,.5-.5Z" fill="#fff"/><path d="M6.8,15.7H22.1c-.3,3.4-3.7,6.2-7.7,6.2S7.1,19.1,6.8,15.7Zm7.6,7.5A9.6,9.6,0,0,0,20,21.4L21.4,27c0,.2-.3.4-.8.4H9.5c-.3,0-.6-.1-.6-.3A1.6,1.6,0,0,1,10.3,26a3.7,3.7,0,0,0,2.9-1.5,2.2,2.2,0,0,0,.2-1.4ZM23,2.5a.6.6,0,0,1,.6.6V13.9a.5.5,0,0,1-.5.5H19a.5.5,0,0,1-.3-.5V3.1a.6.6,0,0,1,.5-.6ZM20.9,20.7a8,8,0,0,0,2.5-5.2,1.6,1.6,0,0,0,1.2-1.6V3.1A1.6,1.6,0,0,0,23,1.5H19.2a1.6,1.6,0,0,0-1.6,1.6v9.3H6.4a.6.6,0,0,0-.6.6.6.6,0,0,0,.6.6H17.6v.3a.9.9,0,0,0,.1.5H6.1a.6.6,0,0,0-.6.6,8.4,8.4,0,0,0,6.8,7.9,2,2,0,0,1,0,1.1,2.6,2.6,0,0,1-2.1.9,2.6,2.6,0,0,0-2.3,2.4c0,.6.5,1.2,1.6,1.2H20.6A1.8,1.8,0,0,0,22.5,27h0Z"/></svg>