<svg id="Ebene_1" data-name="Ebene 1" xmlns="http://www.w3.org/2000/svg" viewBox="0 0 30 30"><title>uhr</title><path d="M20.3,5.9l-1,1.6m4.8,2.2-1.6,1M25.6,15h-2m.5,5.3-1.6-1m-2.2,4.8-1-1.6M15,25.6v-2m-5.3.5,1-1.6M5.9,20.3l1.6-1M4.4,15h2M5.9,9.7l1.6,1M9.7,5.9l1,1.6M15,4.4v2M27,15A12,12,0,1,1,15,3,12,12,0,0,1,27,15Z" fill="#fff" stroke="#1d1d1b" stroke-miterlimit="10" stroke-width="1.47"/><path d="M15.7,15a.7.7,0,1,1-.7-.7.7.7,0,0,1,.7.7" fill="#fff" stroke="#1d1d1b" stroke-miterlimit="10" stroke-width="1.47"/><path d="M15.7,15a.7.7,0,1,1-.7-.7A.7.7,0,0,1,15.7,15Z" fill="#fff" stroke="#1d1d1b" stroke-miterlimit="10" stroke-width="1.47"/><path d="M22.2,15H15m0-8.6v8.1" fill="none" stroke="#1d1d1b" stroke-miterlimit="10" stroke-width="1.47"/></svg>